<?xml version="1.0" encoding="utf-8" standalone="no"?>
<!DOCTYPE svg PUBLIC "-//W3C//DTD SVG 1.1//EN"
  "http://www.w3.org/Graphics/SVG/1.1/DTD/svg11.dtd">
<svg xmlns:xlink="http://www.w3.org/1999/xlink" width="911.837034pt" height="641.1015pt" viewBox="0 0 911.837034 641.1015" xmlns="http://www.w3.org/2000/svg" version="1.1">
 <metadata>
  <rdf:RDF xmlns:dc="http://purl.org/dc/elements/1.1/" xmlns:cc="http://creativecommons.org/ns#" xmlns:rdf="http://www.w3.org/1999/02/22-rdf-syntax-ns#">
   <cc:Work>
    <dc:type rdf:resource="http://purl.org/dc/dcmitype/StillImage"/>
    <dc:date>2024-02-25T18:16:19.909728</dc:date>
    <dc:format>image/svg+xml</dc:format>
    <dc:creator>
     <cc:Agent>
      <dc:title>Matplotlib v3.8.2, https://matplotlib.org/</dc:title>
     </cc:Agent>
    </dc:creator>
   </cc:Work>
  </rdf:RDF>
 </metadata>
 <defs>
  <style type="text/css">*{stroke-linejoin: round; stroke-linecap: butt}</style>
 </defs>
 <g id="figure_1">
  <g id="patch_1">
   <path d="M 0 641.1015 
L 911.837034 641.1015 
L 911.837034 0 
L 0 0 
z
"/>
  </g>
  <g id="axes_1">
   <g id="patch_2">
    <path d="M 126.8125 525.196812 
L 875.837034 525.196812 
L 875.837034 36 
L 126.8125 36 
z
"/>
   </g>
   <g id="axes_2">
    <g id="patch_3">
     <path d="M 164.927529 525.196812 
L 252.181376 525.196812 
L 252.181376 36 
L 164.927529 36 
z
"/>
    </g>
    <g id="matplotlib.axis_1"/>
    <g id="matplotlib.axis_2"/>
    <g id="line2d_1">
     <path d="M 170.146371 642.1015 
L 170.712021 622.435263 
L 171.580692 600.583926 
L 172.461816 584.195423 
L 173.611442 567.80692 
L 174.566588 556.881251 
L 175.704403 545.955583 
L 177.054566 535.029914 
L 178.648445 524.104246 
L 180.51854 513.178577 
L 182.697776 502.252908 
L 185.218426 491.32724 
L 188.110407 480.401571 
L 191.398643 469.475902 
L 195.099342 458.550234 
L 199.215182 447.624565 
L 203.729652 436.698897 
L 208.601054 425.773228 
L 213.757009 414.847559 
L 229.694405 382.070553 
L 234.600607 371.144885 
L 236.869225 365.682051 
L 238.983094 360.219216 
L 240.920114 354.756382 
L 242.660206 349.293548 
L 244.185755 343.830713 
L 245.481946 338.367879 
L 246.536967 332.905045 
L 247.342083 327.44221 
L 247.891595 321.979376 
L 248.1827 316.516542 
L 248.215292 311.053707 
L 247.99172 305.590873 
L 247.516564 300.128039 
L 246.796433 294.665205 
L 245.839808 289.20237 
L 244.656948 283.739536 
L 243.259836 278.276702 
L 241.662153 272.813867 
L 239.879261 267.351033 
L 237.928153 261.888199 
L 235.827356 256.425364 
L 231.257326 245.499696 
L 226.339275 234.574027 
L 211.184605 201.797021 
L 206.462311 190.871353 
L 202.055984 179.945684 
L 198.007089 169.020015 
L 194.332498 158.094347 
L 191.032634 147.168678 
L 188.098156 136.24301 
L 185.514177 125.317341 
L 183.262166 114.391672 
L 181.320422 103.466004 
L 179.664082 92.540335 
L 178.265345 81.614666 
L 177.094187 70.688998 
L 176.119501 59.763329 
L 174.95876 43.374826 
L 174.074513 26.986323 
L 173.186887 5.134986 
L 172.979819 -1 
L 172.979819 -1 
" clip-path="url(#p188634934c)" style="fill: none; stroke: #40e0d0; stroke-width: 3.5; stroke-linecap: square"/>
    </g>
   </g>
   <g id="axes_3">
    <g id="patch_4">
     <path d="M 283.323622 525.196812 
L 370.577469 525.196812 
L 370.577469 36 
L 283.323622 36 
z
"/>
    </g>
    <g id="matplotlib.axis_3"/>
    <g id="matplotlib.axis_4"/>
    <g id="line2d_2">
     <path d="M 287.353103 642.1015 
L 287.529749 573.269754 
L 287.811778 545.955583 
L 288.167992 529.56708 
L 288.792603 513.178577 
L 289.439405 502.252908 
L 290.346569 491.32724 
L 291.594472 480.401571 
L 292.37469 474.938737 
L 293.27554 469.475902 
L 294.309909 464.013068 
L 295.490889 458.550234 
L 296.831532 453.0874 
L 298.344554 447.624565 
L 300.041976 442.161731 
L 301.934709 436.698897 
L 304.032057 431.236062 
L 306.341167 425.773228 
L 308.866396 420.310394 
L 311.60862 414.847559 
L 314.564495 409.384725 
L 317.725696 403.921891 
L 321.078156 398.459056 
L 324.601383 392.996222 
L 332.042802 382.070553 
L 347.279555 360.219216 
L 350.834917 354.756382 
L 354.16167 349.293548 
L 357.196625 343.830713 
L 359.881088 338.367879 
L 362.163572 332.905045 
L 364.002164 327.44221 
L 365.36632 321.979376 
L 366.237904 316.516542 
L 366.611385 311.053707 
L 366.493193 305.590873 
L 365.900374 300.128039 
L 364.858737 294.665205 
L 363.400738 289.20237 
L 361.563369 283.739536 
L 359.386272 278.276702 
L 356.910212 272.813867 
L 354.176001 267.351033 
L 351.223857 261.888199 
L 348.093124 256.425364 
L 341.44879 245.499696 
L 324.300763 218.185524 
L 317.924471 207.259856 
L 314.950382 201.797021 
L 312.145401 196.334187 
L 309.523819 190.871353 
L 307.095295 185.408518 
L 304.864922 179.945684 
L 302.833468 174.48285 
L 300.997808 169.020015 
L 299.351468 163.557181 
L 297.885265 158.094347 
L 296.587971 152.631513 
L 295.446976 147.168678 
L 294.448888 141.705844 
L 293.580074 136.24301 
L 292.177016 125.317341 
L 291.137941 114.391672 
L 290.377097 103.466004 
L 289.824591 92.540335 
L 289.269388 76.151832 
L 288.841895 54.300495 
L 288.498902 21.523489 
L 288.323671 -1 
L 288.323671 -1 
" clip-path="url(#p55f3d7d43b)" style="fill: none; stroke: #40e0d0; stroke-width: 3.5; stroke-linecap: square"/>
    </g>
   </g>
   <g id="axes_4">
    <g id="patch_5">
     <path d="M 401.719715 525.196812 
L 488.973562 525.196812 
L 488.973562 36 
L 401.719715 36 
z
"/>
    </g>
    <g id="matplotlib.axis_5"/>
    <g id="matplotlib.axis_6"/>
    <g id="line2d_3">
     <path d="M 405.6858 642.1015 
L 405.765291 507.715743 
L 406.005103 485.864405 
L 406.290574 474.938737 
L 406.788247 464.013068 
L 407.61966 453.0874 
L 408.210559 447.624565 
L 408.950891 442.161731 
L 409.868911 436.698897 
L 410.995762 431.236062 
L 412.365171 425.773228 
L 414.012879 420.310394 
L 415.975665 414.847559 
L 418.289811 409.384725 
L 420.988871 403.921891 
L 424.100639 398.459056 
L 427.643337 392.996222 
L 431.621189 387.533388 
L 436.019697 382.070553 
L 440.801132 376.607719 
L 445.900876 371.144885 
L 456.652231 360.219216 
L 462.033799 354.756382 
L 467.203537 349.293548 
L 471.98625 343.830713 
L 476.210874 338.367879 
L 479.724632 332.905045 
L 482.406511 327.44221 
L 484.177773 321.979376 
L 485.007478 316.516542 
L 484.911906 311.053707 
L 483.948066 305.590873 
L 482.202845 300.128039 
L 479.780329 294.665205 
L 476.790067 289.20237 
L 473.338458 283.739536 
L 469.524315 278.276702 
L 465.438298 272.813867 
L 456.784807 261.888199 
L 448.018491 250.96253 
L 443.781472 245.499696 
L 439.7308 240.036861 
L 435.919898 234.574027 
L 432.388072 229.111193 
L 429.159242 223.648359 
L 426.242392 218.185524 
L 423.633489 212.72269 
L 421.318345 207.259856 
L 419.27583 201.797021 
L 417.480911 196.334187 
L 415.907201 190.871353 
L 414.528848 185.408518 
L 413.321778 179.945684 
L 412.264378 174.48285 
L 411.337756 169.020015 
L 409.814422 158.094347 
L 408.649403 147.168678 
L 407.768447 136.24301 
L 407.114994 125.317341 
L 406.642751 114.391672 
L 406.188348 98.003169 
L 405.888636 76.151832 
L 405.742779 43.374826 
L 405.703489 -1 
L 405.703489 -1 
" clip-path="url(#p5eb5075bfb)" style="fill: none; stroke: #40e0d0; stroke-width: 3.5; stroke-linecap: square"/>
    </g>
   </g>
   <g id="axes_5">
    <g id="patch_6">
     <path d="M 520.115807 525.196812 
L 607.369654 525.196812 
L 607.369654 36 
L 520.115807 36 
z
"/>
    </g>
    <g id="matplotlib.axis_7"/>
    <g id="matplotlib.axis_8"/>
    <g id="line2d_4">
     <path d="M 524.081891 642.1015 
L 524.172464 453.0874 
L 524.435685 436.698897 
L 524.87901 425.773228 
L 525.247081 420.310394 
L 525.757265 414.847559 
L 526.453409 409.384725 
L 527.388885 403.921891 
L 528.62684 398.459056 
L 530.239319 392.996222 
L 532.304731 387.533388 
L 534.90325 382.070553 
L 538.110051 376.607719 
L 541.986637 371.144885 
L 546.570872 365.682051 
L 551.866424 360.219216 
L 557.831896 354.756382 
L 564.369529 349.293548 
L 585.361524 332.905045 
L 591.740266 327.44221 
L 597.115723 321.979376 
L 601.059765 316.516542 
L 603.223833 311.053707 
L 603.403571 305.590873 
L 601.580705 300.128039 
L 597.928139 294.665205 
L 592.776348 289.20237 
L 586.551991 283.739536 
L 579.70743 278.276702 
L 565.751922 267.351033 
L 559.236914 261.888199 
L 553.28245 256.425364 
L 547.984458 250.96253 
L 543.382997 245.499696 
L 539.475624 240.036861 
L 536.227613 234.574027 
L 533.580445 229.111193 
L 531.460028 223.648359 
L 529.785081 218.185524 
L 528.47496 212.72269 
L 527.455844 207.259856 
L 526.664537 201.797021 
L 526.049801 196.334187 
L 525.200119 185.408518 
L 524.690276 174.48285 
L 524.39397 163.557181 
L 524.182496 147.168678 
L 524.08837 114.391672 
L 524.081891 -1 
L 524.081891 -1 
" clip-path="url(#p38eb19d975)" style="fill: none; stroke: #40e0d0; stroke-width: 3.5; stroke-linecap: square"/>
    </g>
   </g>
   <g id="axes_6">
    <g id="patch_7">
     <path d="M 638.5119 525.196812 
L 725.765747 525.196812 
L 725.765747 36 
L 638.5119 36 
z
"/>
    </g>
    <g id="matplotlib.axis_9"/>
    <g id="matplotlib.axis_10"/>
    <g id="line2d_5">
     <path d="M 642.477984 642.1015 
L 642.534055 403.921891 
L 642.711566 392.996222 
L 642.934494 387.533388 
L 643.34592 382.070553 
L 644.081598 376.607719 
L 645.348987 371.144885 
L 647.436957 365.682051 
L 650.699892 360.219216 
L 655.499926 354.756382 
L 662.103945 349.293548 
L 670.555576 343.830713 
L 680.563021 338.367879 
L 702.186395 327.44221 
L 711.558831 321.979376 
L 718.385559 316.516542 
L 721.799663 311.053707 
L 721.45977 305.590873 
L 717.61382 300.128039 
L 710.983483 294.665205 
L 702.527897 289.20237 
L 683.803047 278.276702 
L 674.931182 272.813867 
L 667.004038 267.351033 
L 660.280041 261.888199 
L 654.866408 256.425364 
L 650.730833 250.96253 
L 647.732612 245.499696 
L 645.669198 240.036861 
L 644.32199 234.574027 
L 643.489141 229.111193 
L 643.003022 223.648359 
L 642.735875 218.185524 
L 642.530861 207.259856 
L 642.478445 179.945684 
L 642.477984 -1 
L 642.477984 -1 
" clip-path="url(#p601ec56fb2)" style="fill: none; stroke: #40e0d0; stroke-width: 3.5; stroke-linecap: square"/>
    </g>
   </g>
   <g id="axes_7">
    <g id="patch_8">
     <path d="M 756.907993 525.196812 
L 844.16184 525.196812 
L 844.16184 36 
L 756.907993 36 
z
"/>
    </g>
    <g id="matplotlib.axis_11"/>
    <g id="matplotlib.axis_12"/>
    <g id="line2d_6">
     <path d="M 760.874077 642.1015 
L 760.970859 382.070553 
L 761.140579 376.607719 
L 761.535818 371.144885 
L 762.396432 365.682051 
L 764.123085 360.219216 
L 767.278355 354.756382 
L 772.508608 349.293548 
L 780.28539 343.830713 
L 790.565699 338.367879 
L 802.572305 332.905045 
L 814.888692 327.44221 
L 825.917691 321.979376 
L 834.331548 316.516542 
L 839.262251 311.053707 
L 840.195756 305.590873 
L 836.907042 300.128039 
L 829.619994 294.665205 
L 819.163818 289.20237 
L 794.567385 278.276702 
L 783.523964 272.813867 
L 774.764338 267.351033 
L 768.587919 261.888199 
L 764.727786 256.425364 
L 762.596281 250.96253 
L 761.559394 245.499696 
L 761.116109 240.036861 
L 760.949772 234.574027 
L 760.875188 218.185524 
L 760.874077 -1 
L 760.874077 -1 
" clip-path="url(#p60825b6010)" style="fill: none; stroke: #40e0d0; stroke-width: 3.5; stroke-linecap: square"/>
    </g>
   </g>
   <g id="matplotlib.axis_13">
    <g id="xtick_1">
     <g id="line2d_7">
      <defs>
       <path id="m4ad0223ca9" d="M 0 0 
L 0 -8 
" style="stroke: #ffffff; stroke-width: 3"/>
      </defs>
      <g>
       <use xlink:href="#m4ad0223ca9" x="164.927529" y="525.196812" style="fill: #ffffff; stroke: #ffffff; stroke-width: 3"/>
      </g>
     </g>
     <g id="text_1">
      <!-- 5 -->
      <g style="fill: #ffffff" transform="translate(157.324404 554.6015) scale(0.3 -0.3)">
       <defs>
        <path id="Calibri-35" d="M 2869 1300 
Q 2869 975 2759 722 
Q 2650 469 2450 295 
Q 2250 122 1973 31 
Q 1697 -59 1359 -59 
Q 1172 -59 1003 -32 
Q 834 -6 703 33 
Q 572 72 487 109 
Q 403 147 379 169 
Q 356 191 347 209 
Q 338 228 330 254 
Q 322 281 319 322 
Q 316 363 316 419 
Q 316 472 320 514 
Q 325 556 337 582 
Q 350 609 367 621 
Q 384 634 406 634 
Q 438 634 503 595 
Q 569 556 680 511 
Q 791 466 955 425 
Q 1119 384 1344 384 
Q 1553 384 1728 434 
Q 1903 484 2029 590 
Q 2156 697 2228 858 
Q 2300 1019 2300 1250 
Q 2300 1444 2239 1592 
Q 2178 1741 2051 1839 
Q 1925 1938 1731 1986 
Q 1538 2034 1269 2034 
Q 1078 2034 940 2015 
Q 803 1997 684 1997 
Q 597 1997 559 2037 
Q 522 2078 522 2194 
L 522 3841 
Q 522 3944 570 3994 
Q 619 4044 709 4044 
L 2500 4044 
Q 2525 4044 2548 4030 
Q 2572 4016 2587 3987 
Q 2603 3959 2611 3915 
Q 2619 3872 2619 3813 
Q 2619 3700 2587 3637 
Q 2556 3575 2500 3575 
L 991 3575 
L 991 2441 
Q 1100 2456 1214 2459 
Q 1328 2463 1478 2463 
Q 1825 2463 2084 2380 
Q 2344 2297 2517 2145 
Q 2691 1994 2780 1778 
Q 2869 1563 2869 1300 
z
" transform="scale(0.015625)"/>
       </defs>
       <use xlink:href="#Calibri-35"/>
      </g>
     </g>
    </g>
    <g id="xtick_2">
     <g id="line2d_8">
      <g>
       <use xlink:href="#m4ad0223ca9" x="283.323622" y="525.196812" style="fill: #ffffff; stroke: #ffffff; stroke-width: 3"/>
      </g>
     </g>
     <g id="text_2">
      <!-- 10 -->
      <g style="fill: #ffffff" transform="translate(268.117372 554.6015) scale(0.3 -0.3)">
       <defs>
        <path id="Calibri-31" d="M 2897 213 
Q 2897 153 2887 112 
Q 2878 72 2862 47 
Q 2847 22 2826 11 
Q 2806 0 2784 0 
L 672 0 
Q 650 0 631 11 
Q 613 22 595 47 
Q 578 72 568 112 
Q 559 153 559 213 
Q 559 269 568 309 
Q 578 350 592 376 
Q 606 403 626 417 
Q 647 431 672 431 
L 1516 431 
L 1516 3506 
L 734 3041 
Q 675 3009 639 3003 
Q 603 2997 581 3017 
Q 559 3038 551 3084 
Q 544 3131 544 3203 
Q 544 3256 548 3293 
Q 553 3331 562 3356 
Q 572 3381 589 3400 
Q 606 3419 634 3438 
L 1566 4034 
Q 1578 4044 1597 4050 
Q 1616 4056 1644 4062 
Q 1672 4069 1709 4070 
Q 1747 4072 1803 4072 
Q 1878 4072 1928 4065 
Q 1978 4059 2006 4048 
Q 2034 4038 2043 4020 
Q 2053 4003 2053 3984 
L 2053 431 
L 2784 431 
Q 2809 431 2831 417 
Q 2853 403 2867 376 
Q 2881 350 2889 309 
Q 2897 269 2897 213 
z
" transform="scale(0.015625)"/>
        <path id="Calibri-30" d="M 3022 2031 
Q 3022 1566 2948 1181 
Q 2875 797 2704 520 
Q 2534 244 2259 92 
Q 1984 -59 1581 -59 
Q 1200 -59 939 77 
Q 678 213 518 477 
Q 359 741 292 1127 
Q 225 1513 225 2013 
Q 225 2475 300 2861 
Q 375 3247 544 3523 
Q 713 3800 988 3951 
Q 1263 4103 1663 4103 
Q 2047 4103 2308 3967 
Q 2569 3831 2728 3567 
Q 2888 3303 2955 2917 
Q 3022 2531 3022 2031 
z
M 2472 1994 
Q 2472 2297 2450 2537 
Q 2428 2778 2386 2962 
Q 2344 3147 2276 3280 
Q 2209 3413 2115 3498 
Q 2022 3584 1901 3623 
Q 1781 3663 1631 3663 
Q 1366 3663 1200 3538 
Q 1034 3413 939 3194 
Q 844 2975 809 2681 
Q 775 2388 775 2050 
Q 775 1597 822 1280 
Q 869 963 970 763 
Q 1072 563 1230 472 
Q 1388 381 1613 381 
Q 1788 381 1920 437 
Q 2053 494 2148 598 
Q 2244 703 2306 850 
Q 2369 997 2406 1175 
Q 2444 1353 2458 1561 
Q 2472 1769 2472 1994 
z
" transform="scale(0.015625)"/>
       </defs>
       <use xlink:href="#Calibri-31"/>
       <use xlink:href="#Calibri-30" x="50.683594"/>
      </g>
     </g>
    </g>
    <g id="xtick_3">
     <g id="line2d_9">
      <g>
       <use xlink:href="#m4ad0223ca9" x="401.719715" y="525.196812" style="fill: #ffffff; stroke: #ffffff; stroke-width: 3"/>
      </g>
     </g>
     <g id="text_3">
      <!-- 20 -->
      <g style="fill: #ffffff" transform="translate(386.513465 554.6015) scale(0.3 -0.3)">
       <defs>
        <path id="Calibri-32" d="M 2888 231 
Q 2888 175 2880 131 
Q 2872 88 2858 58 
Q 2844 28 2820 14 
Q 2797 0 2769 0 
L 534 0 
Q 491 0 458 11 
Q 425 22 401 47 
Q 378 72 367 119 
Q 356 166 356 234 
Q 356 297 361 344 
Q 366 391 381 427 
Q 397 463 420 498 
Q 444 534 481 575 
L 1266 1406 
Q 1538 1694 1702 1922 
Q 1866 2150 1955 2337 
Q 2044 2525 2072 2678 
Q 2100 2831 2100 2966 
Q 2100 3100 2056 3220 
Q 2013 3341 1930 3431 
Q 1847 3522 1722 3575 
Q 1597 3628 1434 3628 
Q 1244 3628 1092 3575 
Q 941 3522 827 3459 
Q 713 3397 636 3344 
Q 559 3291 522 3291 
Q 500 3291 483 3303 
Q 466 3316 455 3344 
Q 444 3372 437 3419 
Q 431 3466 431 3531 
Q 431 3578 434 3612 
Q 438 3647 445 3672 
Q 453 3697 465 3719 
Q 478 3741 515 3773 
Q 553 3806 645 3862 
Q 738 3919 877 3973 
Q 1016 4028 1183 4065 
Q 1350 4103 1534 4103 
Q 1828 4103 2048 4020 
Q 2269 3938 2414 3794 
Q 2559 3650 2631 3459 
Q 2703 3269 2703 3053 
Q 2703 2859 2668 2667 
Q 2634 2475 2523 2251 
Q 2413 2028 2203 1754 
Q 1994 1481 1647 1125 
L 1006 456 
L 2766 456 
Q 2791 456 2814 442 
Q 2838 428 2855 400 
Q 2872 372 2880 330 
Q 2888 288 2888 231 
z
" transform="scale(0.015625)"/>
       </defs>
       <use xlink:href="#Calibri-32"/>
       <use xlink:href="#Calibri-30" x="50.683594"/>
      </g>
     </g>
    </g>
    <g id="xtick_4">
     <g id="line2d_10">
      <g>
       <use xlink:href="#m4ad0223ca9" x="520.115807" y="525.196812" style="fill: #ffffff; stroke: #ffffff; stroke-width: 3"/>
      </g>
     </g>
     <g id="text_4">
      <!-- 40 -->
      <g style="fill: #ffffff" transform="translate(504.909557 554.6015) scale(0.3 -0.3)">
       <defs>
        <path id="Calibri-34" d="M 3059 1150 
Q 3059 1047 3028 987 
Q 2997 928 2941 928 
L 2484 928 
L 2484 78 
Q 2484 53 2471 36 
Q 2459 19 2428 6 
Q 2397 -6 2347 -12 
Q 2297 -19 2219 -19 
Q 2144 -19 2094 -12 
Q 2044 -6 2014 6 
Q 1984 19 1973 36 
Q 1963 53 1963 78 
L 1963 928 
L 294 928 
Q 256 928 231 937 
Q 206 947 186 972 
Q 166 997 158 1044 
Q 150 1091 150 1166 
Q 150 1225 153 1272 
Q 156 1319 165 1358 
Q 175 1397 190 1433 
Q 206 1469 228 1509 
L 1684 3966 
Q 1700 3991 1729 4009 
Q 1759 4028 1806 4040 
Q 1853 4053 1922 4058 
Q 1991 4063 2084 4063 
Q 2188 4063 2264 4055 
Q 2341 4047 2387 4034 
Q 2434 4022 2459 4001 
Q 2484 3981 2484 3953 
L 2484 1372 
L 2941 1372 
Q 2994 1372 3026 1317 
Q 3059 1263 3059 1150 
z
M 1963 3591 
L 1956 3591 
L 641 1372 
L 1963 1372 
L 1963 3591 
z
" transform="scale(0.015625)"/>
       </defs>
       <use xlink:href="#Calibri-34"/>
       <use xlink:href="#Calibri-30" x="50.683594"/>
      </g>
     </g>
    </g>
    <g id="xtick_5">
     <g id="line2d_11">
      <g>
       <use xlink:href="#m4ad0223ca9" x="638.5119" y="525.196812" style="fill: #ffffff; stroke: #ffffff; stroke-width: 3"/>
      </g>
     </g>
     <g id="text_5">
      <!-- 80 -->
      <g style="fill: #ffffff" transform="translate(623.30565 554.6015) scale(0.3 -0.3)">
       <defs>
        <path id="Calibri-38" d="M 2981 1038 
Q 2981 775 2887 570 
Q 2794 366 2617 225 
Q 2441 84 2181 12 
Q 1922 -59 1588 -59 
Q 1275 -59 1028 6 
Q 781 72 609 200 
Q 438 328 347 515 
Q 256 703 256 944 
Q 256 1134 318 1293 
Q 381 1453 498 1587 
Q 616 1722 787 1839 
Q 959 1956 1175 2063 
Q 988 2159 844 2267 
Q 700 2375 600 2501 
Q 500 2628 448 2772 
Q 397 2916 397 3084 
Q 397 3297 473 3483 
Q 550 3669 704 3806 
Q 859 3944 1098 4023 
Q 1338 4103 1656 4103 
Q 1963 4103 2186 4029 
Q 2409 3956 2554 3829 
Q 2700 3703 2769 3531 
Q 2838 3359 2838 3163 
Q 2838 3003 2786 2856 
Q 2734 2709 2634 2578 
Q 2534 2447 2389 2333 
Q 2244 2219 2056 2119 
Q 2278 2009 2451 1893 
Q 2625 1778 2742 1645 
Q 2859 1513 2920 1364 
Q 2981 1216 2981 1038 
z
M 2306 3113 
Q 2306 3244 2261 3350 
Q 2216 3456 2128 3531 
Q 2041 3606 1911 3645 
Q 1781 3684 1616 3684 
Q 1278 3684 1104 3531 
Q 931 3378 931 3113 
Q 931 2991 973 2886 
Q 1016 2781 1105 2687 
Q 1194 2594 1330 2505 
Q 1466 2416 1653 2319 
Q 1969 2481 2137 2678 
Q 2306 2875 2306 3113 
z
M 2438 981 
Q 2438 1125 2384 1242 
Q 2331 1359 2223 1461 
Q 2116 1563 1955 1658 
Q 1794 1753 1581 1856 
Q 1384 1759 1236 1662 
Q 1088 1566 992 1462 
Q 897 1359 848 1245 
Q 800 1131 800 994 
Q 800 691 1008 525 
Q 1216 359 1628 359 
Q 2028 359 2233 526 
Q 2438 694 2438 981 
z
" transform="scale(0.015625)"/>
       </defs>
       <use xlink:href="#Calibri-38"/>
       <use xlink:href="#Calibri-30" x="50.683594"/>
      </g>
     </g>
    </g>
    <g id="xtick_6">
     <g id="line2d_12">
      <g>
       <use xlink:href="#m4ad0223ca9" x="756.907993" y="525.196812" style="fill: #ffffff; stroke: #ffffff; stroke-width: 3"/>
      </g>
     </g>
     <g id="text_6">
      <!-- 160 -->
      <g style="fill: #ffffff" transform="translate(734.098618 554.6015) scale(0.3 -0.3)">
       <defs>
        <path id="Calibri-36" d="M 2991 1309 
Q 2991 1044 2909 795 
Q 2828 547 2659 358 
Q 2491 169 2231 55 
Q 1972 -59 1619 -59 
Q 1366 -59 1172 3 
Q 978 66 834 181 
Q 691 297 595 465 
Q 500 634 442 850 
Q 384 1066 359 1322 
Q 334 1578 334 1872 
Q 334 2131 362 2397 
Q 391 2663 462 2909 
Q 534 3156 657 3373 
Q 781 3591 967 3752 
Q 1153 3913 1412 4006 
Q 1672 4100 2016 4100 
Q 2131 4100 2250 4086 
Q 2369 4072 2469 4048 
Q 2569 4025 2637 3997 
Q 2706 3969 2728 3951 
Q 2750 3934 2761 3914 
Q 2772 3894 2778 3870 
Q 2784 3847 2787 3817 
Q 2791 3788 2791 3744 
Q 2791 3688 2789 3647 
Q 2788 3606 2777 3581 
Q 2766 3556 2748 3543 
Q 2731 3531 2703 3531 
Q 2669 3531 2609 3553 
Q 2550 3575 2465 3601 
Q 2381 3628 2261 3650 
Q 2141 3672 1981 3672 
Q 1691 3672 1481 3553 
Q 1272 3434 1139 3234 
Q 1006 3034 942 2770 
Q 878 2506 869 2219 
Q 950 2266 1051 2312 
Q 1153 2359 1273 2396 
Q 1394 2434 1528 2457 
Q 1663 2481 1816 2481 
Q 2144 2481 2369 2392 
Q 2594 2303 2733 2145 
Q 2872 1988 2931 1773 
Q 2991 1559 2991 1309 
z
M 2447 1259 
Q 2447 1441 2411 1589 
Q 2375 1738 2290 1841 
Q 2206 1944 2065 2000 
Q 1925 2056 1719 2056 
Q 1603 2056 1487 2036 
Q 1372 2016 1264 1980 
Q 1156 1944 1057 1895 
Q 959 1847 878 1791 
Q 878 1388 929 1116 
Q 981 844 1079 680 
Q 1178 516 1325 445 
Q 1472 375 1669 375 
Q 1869 375 2016 450 
Q 2163 525 2259 651 
Q 2356 778 2401 936 
Q 2447 1094 2447 1259 
z
" transform="scale(0.015625)"/>
       </defs>
       <use xlink:href="#Calibri-31"/>
       <use xlink:href="#Calibri-36" x="50.683594"/>
       <use xlink:href="#Calibri-30" x="101.367188"/>
      </g>
     </g>
    </g>
    <g id="xtick_7">
     <g id="line2d_13">
      <defs>
       <path id="mbe604a6a23" d="M 0 0 
L 0 2 
" style="stroke: #ffffff; stroke-width: 0.6"/>
      </defs>
      <g>
       <use xlink:href="#mbe604a6a23" x="126.8125" y="525.196812" style="fill: #ffffff; stroke: #ffffff; stroke-width: 0.6"/>
      </g>
     </g>
    </g>
    <g id="xtick_8">
     <g id="line2d_14">
      <g>
       <use xlink:href="#mbe604a6a23" x="196.069775" y="525.196812" style="fill: #ffffff; stroke: #ffffff; stroke-width: 0.6"/>
      </g>
     </g>
    </g>
    <g id="xtick_9">
     <g id="line2d_15">
      <g>
       <use xlink:href="#mbe604a6a23" x="222.400168" y="525.196812" style="fill: #ffffff; stroke: #ffffff; stroke-width: 0.6"/>
      </g>
     </g>
    </g>
    <g id="xtick_10">
     <g id="line2d_16">
      <g>
       <use xlink:href="#mbe604a6a23" x="245.208593" y="525.196812" style="fill: #ffffff; stroke: #ffffff; stroke-width: 0.6"/>
      </g>
     </g>
    </g>
    <g id="xtick_11">
     <g id="line2d_17">
      <g>
       <use xlink:href="#mbe604a6a23" x="265.327049" y="525.196812" style="fill: #ffffff; stroke: #ffffff; stroke-width: 0.6"/>
      </g>
     </g>
    </g>
    <g id="xtick_12">
     <g id="line2d_18">
      <g>
       <use xlink:href="#mbe604a6a23" x="470.976989" y="525.196812" style="fill: #ffffff; stroke: #ffffff; stroke-width: 0.6"/>
      </g>
     </g>
    </g>
    <g id="xtick_13">
     <g id="line2d_19">
      <g>
       <use xlink:href="#mbe604a6a23" x="558.230836" y="525.196812" style="fill: #ffffff; stroke: #ffffff; stroke-width: 0.6"/>
      </g>
     </g>
    </g>
    <g id="xtick_14">
     <g id="line2d_20">
      <g>
       <use xlink:href="#mbe604a6a23" x="589.373082" y="525.196812" style="fill: #ffffff; stroke: #ffffff; stroke-width: 0.6"/>
      </g>
     </g>
    </g>
    <g id="xtick_15">
     <g id="line2d_21">
      <g>
       <use xlink:href="#mbe604a6a23" x="615.703476" y="525.196812" style="fill: #ffffff; stroke: #ffffff; stroke-width: 0.6"/>
      </g>
     </g>
    </g>
    <g id="xtick_16">
     <g id="line2d_22">
      <g>
       <use xlink:href="#mbe604a6a23" x="658.630357" y="525.196812" style="fill: #ffffff; stroke: #ffffff; stroke-width: 0.6"/>
      </g>
     </g>
    </g>
    <g id="xtick_17">
     <g id="line2d_23">
      <g>
       <use xlink:href="#mbe604a6a23" x="795.023022" y="525.196812" style="fill: #ffffff; stroke: #ffffff; stroke-width: 0.6"/>
      </g>
     </g>
    </g>
    <g id="xtick_18">
     <g id="line2d_24">
      <g>
       <use xlink:href="#mbe604a6a23" x="864.280297" y="525.196812" style="fill: #ffffff; stroke: #ffffff; stroke-width: 0.6"/>
      </g>
     </g>
    </g>
    <g id="text_7">
     <!-- Average number of detected mergers -->
     <g style="fill: #ffffff" transform="translate(234.406017 598.861656) scale(0.35 -0.35)">
      <defs>
       <path id="Calibri-41" d="M 3566 191 
Q 3591 122 3592 80 
Q 3594 38 3569 16 
Q 3544 -6 3486 -12 
Q 3428 -19 3331 -19 
Q 3234 -19 3176 -14 
Q 3119 -9 3089 2 
Q 3059 13 3045 31 
Q 3031 50 3019 78 
L 2672 1063 
L 991 1063 
L 659 91 
Q 650 63 634 42 
Q 619 22 589 8 
Q 559 -6 504 -12 
Q 450 -19 363 -19 
Q 272 -19 214 -11 
Q 156 -3 132 19 
Q 109 41 111 83 
Q 113 125 138 194 
L 1494 3950 
Q 1506 3984 1526 4006 
Q 1547 4028 1586 4040 
Q 1625 4053 1686 4058 
Q 1747 4063 1841 4063 
Q 1941 4063 2006 4058 
Q 2072 4053 2112 4040 
Q 2153 4028 2175 4004 
Q 2197 3981 2209 3947 
L 3566 191 
z
M 1825 3506 
L 1822 3506 
L 1125 1491 
L 2531 1491 
L 1825 3506 
z
" transform="scale(0.015625)"/>
       <path id="Calibri-76" d="M 2784 2897 
Q 2784 2884 2782 2870 
Q 2781 2856 2778 2840 
Q 2775 2825 2770 2806 
Q 2766 2788 2759 2766 
L 1800 94 
Q 1788 59 1767 37 
Q 1747 16 1706 3 
Q 1666 -9 1603 -14 
Q 1541 -19 1447 -19 
Q 1353 -19 1290 -12 
Q 1228 -6 1189 6 
Q 1150 19 1128 41 
Q 1106 63 1094 94 
L 138 2766 
Q 125 2803 117 2831 
Q 109 2859 107 2873 
Q 106 2888 106 2897 
Q 106 2922 118 2940 
Q 131 2959 161 2970 
Q 191 2981 239 2984 
Q 288 2988 359 2988 
Q 450 2988 504 2983 
Q 559 2978 589 2965 
Q 619 2953 633 2934 
Q 647 2916 659 2888 
L 1453 569 
L 1466 531 
L 1475 569 
L 2259 2888 
Q 2266 2916 2281 2934 
Q 2297 2953 2326 2965 
Q 2356 2978 2407 2983 
Q 2459 2988 2544 2988 
Q 2616 2988 2662 2984 
Q 2709 2981 2736 2968 
Q 2763 2956 2773 2939 
Q 2784 2922 2784 2897 
z
" transform="scale(0.015625)"/>
       <path id="Calibri-65" d="M 2878 1606 
Q 2878 1484 2817 1432 
Q 2756 1381 2678 1381 
L 834 1381 
Q 834 1147 881 959 
Q 928 772 1037 637 
Q 1147 503 1322 431 
Q 1497 359 1750 359 
Q 1950 359 2106 392 
Q 2263 425 2377 465 
Q 2491 506 2564 539 
Q 2638 572 2675 572 
Q 2697 572 2714 561 
Q 2731 550 2740 528 
Q 2750 506 2754 467 
Q 2759 428 2759 372 
Q 2759 331 2756 301 
Q 2753 272 2748 248 
Q 2744 225 2733 206 
Q 2722 188 2705 170 
Q 2688 153 2603 114 
Q 2519 75 2384 37 
Q 2250 0 2073 -29 
Q 1897 -59 1697 -59 
Q 1350 -59 1089 37 
Q 828 134 650 325 
Q 472 516 381 803 
Q 291 1091 291 1472 
Q 291 1834 384 2123 
Q 478 2413 654 2614 
Q 831 2816 1081 2923 
Q 1331 3031 1641 3031 
Q 1972 3031 2205 2925 
Q 2438 2819 2588 2639 
Q 2738 2459 2808 2217 
Q 2878 1975 2878 1700 
L 2878 1606 
z
M 2359 1759 
Q 2369 2166 2180 2397 
Q 1991 2628 1619 2628 
Q 1428 2628 1284 2556 
Q 1141 2484 1044 2365 
Q 947 2247 894 2089 
Q 841 1931 834 1759 
L 2359 1759 
z
" transform="scale(0.015625)"/>
       <path id="Calibri-72" d="M 2122 2706 
Q 2122 2638 2119 2591 
Q 2116 2544 2106 2517 
Q 2097 2491 2083 2477 
Q 2069 2463 2044 2463 
Q 2019 2463 1983 2477 
Q 1947 2491 1901 2505 
Q 1856 2519 1800 2531 
Q 1744 2544 1678 2544 
Q 1600 2544 1525 2512 
Q 1450 2481 1367 2409 
Q 1284 2338 1193 2219 
Q 1103 2100 994 1928 
L 994 78 
Q 994 53 981 36 
Q 969 19 941 6 
Q 913 -6 863 -12 
Q 813 -19 734 -19 
Q 659 -19 609 -12 
Q 559 -6 529 6 
Q 500 19 489 36 
Q 478 53 478 78 
L 478 2891 
Q 478 2916 487 2933 
Q 497 2950 525 2964 
Q 553 2978 597 2983 
Q 641 2988 713 2988 
Q 781 2988 826 2983 
Q 872 2978 897 2964 
Q 922 2950 933 2933 
Q 944 2916 944 2891 
L 944 2481 
Q 1059 2650 1161 2756 
Q 1263 2863 1353 2923 
Q 1444 2984 1533 3007 
Q 1622 3031 1713 3031 
Q 1753 3031 1804 3026 
Q 1856 3022 1912 3009 
Q 1969 2997 2014 2981 
Q 2059 2966 2078 2950 
Q 2097 2934 2103 2920 
Q 2109 2906 2114 2884 
Q 2119 2863 2120 2820 
Q 2122 2778 2122 2706 
z
" transform="scale(0.015625)"/>
       <path id="Calibri-61" d="M 2597 75 
Q 2597 38 2572 19 
Q 2547 0 2503 -9 
Q 2459 -19 2375 -19 
Q 2294 -19 2245 -9 
Q 2197 0 2175 19 
Q 2153 38 2153 75 
L 2153 356 
Q 1969 159 1742 50 
Q 1516 -59 1263 -59 
Q 1041 -59 861 -1 
Q 681 56 554 165 
Q 428 275 358 434 
Q 288 594 288 797 
Q 288 1034 384 1209 
Q 481 1384 662 1500 
Q 844 1616 1106 1673 
Q 1369 1731 1697 1731 
L 2084 1731 
L 2084 1950 
Q 2084 2113 2050 2238 
Q 2016 2363 1939 2445 
Q 1863 2528 1741 2570 
Q 1619 2613 1441 2613 
Q 1250 2613 1098 2567 
Q 947 2522 833 2467 
Q 719 2413 642 2367 
Q 566 2322 528 2322 
Q 503 2322 484 2334 
Q 466 2347 452 2372 
Q 438 2397 431 2436 
Q 425 2475 425 2522 
Q 425 2600 436 2645 
Q 447 2691 489 2731 
Q 531 2772 634 2826 
Q 738 2881 872 2926 
Q 1006 2972 1165 3001 
Q 1325 3031 1488 3031 
Q 1791 3031 2003 2962 
Q 2216 2894 2347 2761 
Q 2478 2628 2537 2431 
Q 2597 2234 2597 1972 
L 2597 75 
z
M 2084 1359 
L 1644 1359 
Q 1431 1359 1275 1323 
Q 1119 1288 1016 1217 
Q 913 1147 864 1048 
Q 816 950 816 822 
Q 816 603 955 473 
Q 1094 344 1344 344 
Q 1547 344 1720 447 
Q 1894 550 2084 763 
L 2084 1359 
z
" transform="scale(0.015625)"/>
       <path id="Calibri-67" d="M 2828 2763 
Q 2828 2653 2798 2604 
Q 2769 2556 2722 2556 
L 2319 2556 
Q 2428 2444 2472 2308 
Q 2516 2172 2516 2025 
Q 2516 1781 2437 1593 
Q 2359 1406 2214 1276 
Q 2069 1147 1869 1078 
Q 1669 1009 1425 1009 
Q 1253 1009 1098 1054 
Q 944 1100 859 1169 
Q 803 1113 767 1041 
Q 731 969 731 875 
Q 731 766 832 694 
Q 934 622 1103 616 
L 1838 584 
Q 2047 578 2222 526 
Q 2397 475 2525 379 
Q 2653 284 2725 145 
Q 2797 6 2797 -178 
Q 2797 -372 2715 -547 
Q 2634 -722 2467 -855 
Q 2300 -988 2040 -1064 
Q 1781 -1141 1428 -1141 
Q 1088 -1141 848 -1083 
Q 609 -1025 456 -925 
Q 303 -825 234 -686 
Q 166 -547 166 -384 
Q 166 -281 191 -184 
Q 216 -88 267 0 
Q 319 88 395 167 
Q 472 247 572 325 
Q 419 403 345 522 
Q 272 641 272 778 
Q 272 969 350 1119 
Q 428 1269 544 1388 
Q 447 1503 390 1648 
Q 334 1794 334 2000 
Q 334 2241 415 2431 
Q 497 2622 640 2753 
Q 784 2884 986 2954 
Q 1188 3025 1425 3025 
Q 1553 3025 1664 3011 
Q 1775 2997 1872 2972 
L 2722 2972 
Q 2775 2972 2801 2920 
Q 2828 2869 2828 2763 
z
M 2022 2022 
Q 2022 2309 1864 2470 
Q 1706 2631 1416 2631 
Q 1266 2631 1155 2581 
Q 1044 2531 970 2443 
Q 897 2356 861 2242 
Q 825 2128 825 2003 
Q 825 1725 983 1565 
Q 1141 1406 1425 1406 
Q 1578 1406 1690 1454 
Q 1803 1503 1876 1589 
Q 1950 1675 1986 1787 
Q 2022 1900 2022 2022 
z
M 2281 -206 
Q 2281 -25 2132 73 
Q 1984 172 1731 178 
L 1003 203 
Q 903 125 839 54 
Q 775 -16 737 -80 
Q 700 -144 686 -206 
Q 672 -269 672 -334 
Q 672 -538 878 -642 
Q 1084 -747 1453 -747 
Q 1688 -747 1845 -701 
Q 2003 -656 2100 -581 
Q 2197 -506 2239 -409 
Q 2281 -313 2281 -206 
z
" transform="scale(0.015625)"/>
       <path id="Calibri-20" transform="scale(0.015625)"/>
       <path id="Calibri-6e" d="M 2900 78 
Q 2900 53 2887 36 
Q 2875 19 2847 6 
Q 2819 -6 2769 -12 
Q 2719 -19 2644 -19 
Q 2566 -19 2516 -12 
Q 2466 -6 2437 6 
Q 2409 19 2396 36 
Q 2384 53 2384 78 
L 2384 1725 
Q 2384 1966 2346 2112 
Q 2309 2259 2237 2365 
Q 2166 2472 2052 2528 
Q 1938 2584 1788 2584 
Q 1594 2584 1400 2446 
Q 1206 2309 994 2044 
L 994 78 
Q 994 53 981 36 
Q 969 19 941 6 
Q 913 -6 863 -12 
Q 813 -19 734 -19 
Q 659 -19 609 -12 
Q 559 -6 529 6 
Q 500 19 489 36 
Q 478 53 478 78 
L 478 2891 
Q 478 2916 487 2933 
Q 497 2950 525 2964 
Q 553 2978 597 2983 
Q 641 2988 713 2988 
Q 781 2988 826 2983 
Q 872 2978 897 2964 
Q 922 2950 933 2933 
Q 944 2916 944 2891 
L 944 2519 
Q 1181 2784 1417 2907 
Q 1653 3031 1894 3031 
Q 2175 3031 2367 2936 
Q 2559 2841 2678 2681 
Q 2797 2522 2848 2308 
Q 2900 2094 2900 1794 
L 2900 78 
z
" transform="scale(0.015625)"/>
       <path id="Calibri-75" d="M 2888 78 
Q 2888 53 2877 36 
Q 2866 19 2837 6 
Q 2809 -6 2764 -12 
Q 2719 -19 2653 -19 
Q 2581 -19 2536 -12 
Q 2491 -6 2464 6 
Q 2438 19 2428 36 
Q 2419 53 2419 78 
L 2419 450 
Q 2178 184 1943 62 
Q 1709 -59 1469 -59 
Q 1188 -59 995 34 
Q 803 128 684 289 
Q 566 450 514 664 
Q 463 878 463 1184 
L 463 2891 
Q 463 2916 473 2933 
Q 484 2950 515 2964 
Q 547 2978 597 2983 
Q 647 2988 722 2988 
Q 797 2988 847 2983 
Q 897 2978 926 2964 
Q 956 2950 968 2933 
Q 981 2916 981 2891 
L 981 1253 
Q 981 1006 1017 857 
Q 1053 709 1126 604 
Q 1200 500 1312 442 
Q 1425 384 1575 384 
Q 1769 384 1961 521 
Q 2153 659 2369 925 
L 2369 2891 
Q 2369 2916 2380 2933 
Q 2391 2950 2422 2964 
Q 2453 2978 2501 2983 
Q 2550 2988 2628 2988 
Q 2703 2988 2753 2983 
Q 2803 2978 2831 2964 
Q 2859 2950 2873 2933 
Q 2888 2916 2888 2891 
L 2888 78 
z
" transform="scale(0.015625)"/>
       <path id="Calibri-6d" d="M 4650 78 
Q 4650 53 4637 36 
Q 4625 19 4597 6 
Q 4569 -6 4519 -12 
Q 4469 -19 4394 -19 
Q 4316 -19 4266 -12 
Q 4216 -6 4186 6 
Q 4156 19 4143 36 
Q 4131 53 4131 78 
L 4131 1788 
Q 4131 1966 4100 2112 
Q 4069 2259 4000 2365 
Q 3931 2472 3825 2528 
Q 3719 2584 3575 2584 
Q 3397 2584 3217 2446 
Q 3038 2309 2822 2044 
L 2822 78 
Q 2822 53 2809 36 
Q 2797 19 2767 6 
Q 2738 -6 2688 -12 
Q 2638 -19 2563 -19 
Q 2491 -19 2439 -12 
Q 2388 -6 2358 6 
Q 2328 19 2317 36 
Q 2306 53 2306 78 
L 2306 1788 
Q 2306 1966 2272 2112 
Q 2238 2259 2169 2365 
Q 2100 2472 1995 2528 
Q 1891 2584 1747 2584 
Q 1569 2584 1387 2446 
Q 1206 2309 994 2044 
L 994 78 
Q 994 53 981 36 
Q 969 19 941 6 
Q 913 -6 863 -12 
Q 813 -19 734 -19 
Q 659 -19 609 -12 
Q 559 -6 529 6 
Q 500 19 489 36 
Q 478 53 478 78 
L 478 2891 
Q 478 2916 487 2933 
Q 497 2950 525 2964 
Q 553 2978 597 2983 
Q 641 2988 713 2988 
Q 781 2988 826 2983 
Q 872 2978 897 2964 
Q 922 2950 933 2933 
Q 944 2916 944 2891 
L 944 2519 
Q 1181 2784 1404 2907 
Q 1628 3031 1856 3031 
Q 2031 3031 2170 2990 
Q 2309 2950 2415 2876 
Q 2522 2803 2597 2701 
Q 2672 2600 2722 2475 
Q 2863 2628 2989 2734 
Q 3116 2841 3233 2906 
Q 3350 2972 3461 3001 
Q 3572 3031 3684 3031 
Q 3956 3031 4140 2936 
Q 4325 2841 4439 2681 
Q 4553 2522 4601 2308 
Q 4650 2094 4650 1856 
L 4650 78 
z
" transform="scale(0.015625)"/>
       <path id="Calibri-62" d="M 3066 1522 
Q 3066 1156 2986 864 
Q 2906 572 2751 365 
Q 2597 159 2372 50 
Q 2147 -59 1856 -59 
Q 1722 -59 1608 -32 
Q 1494 -6 1384 53 
Q 1275 113 1165 203 
Q 1056 294 934 422 
L 934 78 
Q 934 53 921 34 
Q 909 16 881 5 
Q 853 -6 811 -12 
Q 769 -19 703 -19 
Q 641 -19 597 -12 
Q 553 -6 525 5 
Q 497 16 487 34 
Q 478 53 478 78 
L 478 4253 
Q 478 4278 489 4297 
Q 500 4316 529 4328 
Q 559 4341 609 4347 
Q 659 4353 734 4353 
Q 813 4353 863 4347 
Q 913 4341 941 4328 
Q 969 4316 981 4297 
Q 994 4278 994 4253 
L 994 2569 
Q 1119 2697 1236 2784 
Q 1353 2872 1465 2926 
Q 1578 2981 1690 3006 
Q 1803 3031 1928 3031 
Q 2234 3031 2451 2909 
Q 2669 2788 2805 2583 
Q 2941 2378 3003 2103 
Q 3066 1828 3066 1522 
z
M 2522 1463 
Q 2522 1678 2489 1881 
Q 2456 2084 2375 2240 
Q 2294 2397 2159 2492 
Q 2025 2588 1825 2588 
Q 1725 2588 1628 2559 
Q 1531 2531 1431 2465 
Q 1331 2400 1223 2297 
Q 1116 2194 994 2038 
L 994 916 
Q 1206 656 1400 520 
Q 1594 384 1803 384 
Q 1997 384 2134 478 
Q 2272 572 2358 726 
Q 2444 881 2483 1073 
Q 2522 1266 2522 1463 
z
" transform="scale(0.015625)"/>
       <path id="Calibri-6f" d="M 3094 1516 
Q 3094 1172 3003 883 
Q 2913 594 2733 384 
Q 2553 175 2283 58 
Q 2013 -59 1656 -59 
Q 1309 -59 1051 44 
Q 794 147 622 344 
Q 450 541 365 822 
Q 281 1103 281 1459 
Q 281 1803 370 2092 
Q 459 2381 639 2590 
Q 819 2800 1087 2915 
Q 1356 3031 1716 3031 
Q 2063 3031 2320 2928 
Q 2578 2825 2750 2628 
Q 2922 2431 3008 2150 
Q 3094 1869 3094 1516 
z
M 2550 1481 
Q 2550 1709 2508 1912 
Q 2466 2116 2369 2269 
Q 2272 2422 2106 2511 
Q 1941 2600 1694 2600 
Q 1466 2600 1302 2519 
Q 1138 2438 1031 2289 
Q 925 2141 873 1937 
Q 822 1734 822 1494 
Q 822 1263 864 1059 
Q 906 856 1004 704 
Q 1103 553 1268 464 
Q 1434 375 1681 375 
Q 1906 375 2072 456 
Q 2238 538 2344 684 
Q 2450 831 2500 1034 
Q 2550 1238 2550 1481 
z
" transform="scale(0.015625)"/>
       <path id="Calibri-66" d="M 2019 4047 
Q 2019 3988 2012 3952 
Q 2006 3916 1998 3894 
Q 1991 3872 1978 3864 
Q 1966 3856 1947 3856 
Q 1925 3856 1892 3870 
Q 1859 3884 1812 3901 
Q 1766 3919 1702 3933 
Q 1638 3947 1553 3947 
Q 1438 3947 1356 3909 
Q 1275 3872 1225 3792 
Q 1175 3713 1153 3586 
Q 1131 3459 1131 3278 
L 1131 2972 
L 1759 2972 
Q 1784 2972 1801 2961 
Q 1819 2950 1833 2923 
Q 1847 2897 1855 2856 
Q 1863 2816 1863 2756 
Q 1863 2644 1834 2594 
Q 1806 2544 1759 2544 
L 1131 2544 
L 1131 78 
Q 1131 53 1118 36 
Q 1106 19 1076 6 
Q 1047 -6 997 -12 
Q 947 -19 872 -19 
Q 797 -19 747 -12 
Q 697 -6 667 6 
Q 638 19 625 36 
Q 613 53 613 78 
L 613 2544 
L 216 2544 
Q 166 2544 141 2594 
Q 116 2644 116 2756 
Q 116 2816 122 2856 
Q 128 2897 140 2923 
Q 153 2950 172 2961 
Q 191 2972 216 2972 
L 613 2972 
L 613 3263 
Q 613 3556 667 3767 
Q 722 3978 834 4112 
Q 947 4247 1117 4311 
Q 1288 4375 1519 4375 
Q 1628 4375 1731 4354 
Q 1834 4334 1890 4311 
Q 1947 4288 1965 4269 
Q 1984 4250 1996 4220 
Q 2009 4191 2014 4148 
Q 2019 4106 2019 4047 
z
" transform="scale(0.015625)"/>
       <path id="Calibri-64" d="M 2888 78 
Q 2888 53 2877 34 
Q 2866 16 2839 5 
Q 2813 -6 2769 -12 
Q 2725 -19 2663 -19 
Q 2597 -19 2553 -12 
Q 2509 -6 2481 5 
Q 2453 16 2440 34 
Q 2428 53 2428 78 
L 2428 450 
Q 2206 209 1967 75 
Q 1728 -59 1444 -59 
Q 1134 -59 915 61 
Q 697 181 561 386 
Q 425 591 362 867 
Q 300 1144 300 1450 
Q 300 1813 378 2105 
Q 456 2397 609 2603 
Q 763 2809 989 2920 
Q 1216 3031 1513 3031 
Q 1759 3031 1964 2923 
Q 2169 2816 2369 2606 
L 2369 4241 
Q 2369 4263 2380 4283 
Q 2391 4303 2422 4314 
Q 2453 4325 2501 4333 
Q 2550 4341 2625 4341 
Q 2703 4341 2753 4333 
Q 2803 4325 2831 4314 
Q 2859 4303 2873 4283 
Q 2888 4263 2888 4241 
L 2888 78 
z
M 2369 2056 
Q 2159 2316 1964 2452 
Q 1769 2588 1556 2588 
Q 1359 2588 1221 2494 
Q 1084 2400 998 2247 
Q 913 2094 873 1900 
Q 834 1706 834 1506 
Q 834 1294 867 1091 
Q 900 888 981 730 
Q 1063 572 1197 476 
Q 1331 381 1534 381 
Q 1638 381 1733 409 
Q 1828 438 1928 503 
Q 2028 569 2137 673 
Q 2247 778 2369 931 
L 2369 2056 
z
" transform="scale(0.015625)"/>
       <path id="Calibri-74" d="M 1941 284 
Q 1941 194 1928 141 
Q 1916 88 1891 63 
Q 1866 38 1816 16 
Q 1766 -6 1702 -20 
Q 1638 -34 1566 -43 
Q 1494 -53 1422 -53 
Q 1203 -53 1047 5 
Q 891 63 791 180 
Q 691 297 645 476 
Q 600 656 600 900 
L 600 2544 
L 206 2544 
Q 159 2544 131 2594 
Q 103 2644 103 2756 
Q 103 2816 111 2856 
Q 119 2897 131 2923 
Q 144 2950 164 2961 
Q 184 2972 209 2972 
L 600 2972 
L 600 3641 
Q 600 3663 611 3681 
Q 622 3700 651 3714 
Q 681 3728 731 3734 
Q 781 3741 856 3741 
Q 934 3741 984 3734 
Q 1034 3728 1062 3714 
Q 1091 3700 1103 3681 
Q 1116 3663 1116 3641 
L 1116 2972 
L 1838 2972 
Q 1863 2972 1881 2961 
Q 1900 2950 1914 2923 
Q 1928 2897 1934 2856 
Q 1941 2816 1941 2756 
Q 1941 2644 1912 2594 
Q 1884 2544 1838 2544 
L 1116 2544 
L 1116 975 
Q 1116 684 1202 536 
Q 1288 388 1509 388 
Q 1581 388 1637 402 
Q 1694 416 1737 431 
Q 1781 447 1812 461 
Q 1844 475 1869 475 
Q 1884 475 1898 467 
Q 1913 459 1920 437 
Q 1928 416 1934 378 
Q 1941 341 1941 284 
z
" transform="scale(0.015625)"/>
       <path id="Calibri-63" d="M 2500 506 
Q 2500 453 2497 414 
Q 2494 375 2486 348 
Q 2478 322 2467 301 
Q 2456 281 2417 242 
Q 2378 203 2284 145 
Q 2191 88 2073 42 
Q 1956 -3 1818 -31 
Q 1681 -59 1534 -59 
Q 1231 -59 997 41 
Q 763 141 605 333 
Q 447 525 364 804 
Q 281 1084 281 1450 
Q 281 1866 382 2164 
Q 484 2463 661 2653 
Q 838 2844 1077 2936 
Q 1316 3028 1594 3028 
Q 1728 3028 1854 3003 
Q 1981 2978 2087 2937 
Q 2194 2897 2276 2844 
Q 2359 2791 2396 2753 
Q 2434 2716 2448 2694 
Q 2463 2672 2472 2642 
Q 2481 2613 2484 2575 
Q 2488 2538 2488 2481 
Q 2488 2359 2459 2311 
Q 2431 2263 2391 2263 
Q 2344 2263 2283 2314 
Q 2222 2366 2128 2428 
Q 2034 2491 1901 2542 
Q 1769 2594 1588 2594 
Q 1216 2594 1017 2308 
Q 819 2022 819 1478 
Q 819 1206 870 1001 
Q 922 797 1022 659 
Q 1122 522 1267 455 
Q 1413 388 1600 388 
Q 1778 388 1912 444 
Q 2047 500 2145 567 
Q 2244 634 2311 689 
Q 2378 744 2416 744 
Q 2438 744 2453 731 
Q 2469 719 2480 689 
Q 2491 659 2495 614 
Q 2500 569 2500 506 
z
" transform="scale(0.015625)"/>
       <path id="Calibri-73" d="M 2244 844 
Q 2244 628 2164 459 
Q 2084 291 1937 175 
Q 1791 59 1587 0 
Q 1384 -59 1141 -59 
Q 991 -59 855 -36 
Q 719 -13 611 23 
Q 503 59 428 98 
Q 353 138 318 169 
Q 284 200 268 256 
Q 253 313 253 409 
Q 253 469 259 509 
Q 266 550 275 575 
Q 284 600 301 611 
Q 319 622 341 622 
Q 375 622 442 580 
Q 509 538 607 488 
Q 706 438 840 395 
Q 975 353 1150 353 
Q 1281 353 1387 381 
Q 1494 409 1572 464 
Q 1650 519 1692 603 
Q 1734 688 1734 803 
Q 1734 922 1673 1003 
Q 1613 1084 1513 1146 
Q 1413 1209 1288 1257 
Q 1163 1306 1030 1359 
Q 897 1413 770 1480 
Q 644 1547 544 1644 
Q 444 1741 383 1875 
Q 322 2009 322 2197 
Q 322 2363 386 2514 
Q 450 2666 578 2780 
Q 706 2894 898 2962 
Q 1091 3031 1347 3031 
Q 1459 3031 1571 3012 
Q 1684 2994 1775 2966 
Q 1866 2938 1930 2905 
Q 1994 2872 2026 2847 
Q 2059 2822 2070 2803 
Q 2081 2784 2086 2761 
Q 2091 2738 2095 2703 
Q 2100 2669 2100 2619 
Q 2100 2566 2095 2527 
Q 2091 2488 2080 2463 
Q 2069 2438 2053 2427 
Q 2038 2416 2019 2416 
Q 1991 2416 1937 2450 
Q 1884 2484 1800 2523 
Q 1716 2563 1602 2597 
Q 1488 2631 1341 2631 
Q 1209 2631 1109 2601 
Q 1009 2572 945 2517 
Q 881 2463 848 2388 
Q 816 2313 816 2225 
Q 816 2103 878 2020 
Q 941 1938 1041 1875 
Q 1141 1813 1269 1763 
Q 1397 1713 1530 1659 
Q 1663 1606 1792 1540 
Q 1922 1475 2022 1381 
Q 2122 1288 2183 1156 
Q 2244 1025 2244 844 
z
" transform="scale(0.015625)"/>
      </defs>
      <use xlink:href="#Calibri-41"/>
      <use xlink:href="#Calibri-76" x="55.986328"/>
      <use xlink:href="#Calibri-65" x="101.152344"/>
      <use xlink:href="#Calibri-72" x="150.908203"/>
      <use xlink:href="#Calibri-61" x="185.771484"/>
      <use xlink:href="#Calibri-67" x="233.671875"/>
      <use xlink:href="#Calibri-65" x="280.742188"/>
      <use xlink:href="#Calibri-20" x="330.498047"/>
      <use xlink:href="#Calibri-6e" x="353.105469"/>
      <use xlink:href="#Calibri-75" x="405.644531"/>
      <use xlink:href="#Calibri-6d" x="458.183594"/>
      <use xlink:href="#Calibri-62" x="538.066406"/>
      <use xlink:href="#Calibri-65" x="590.605469"/>
      <use xlink:href="#Calibri-72" x="640.361328"/>
      <use xlink:href="#Calibri-20" x="675.224609"/>
      <use xlink:href="#Calibri-6f" x="697.832031"/>
      <use xlink:href="#Calibri-66" x="750.566406"/>
      <use xlink:href="#Calibri-20" x="781.083984"/>
      <use xlink:href="#Calibri-64" x="803.691406"/>
      <use xlink:href="#Calibri-65" x="856.230469"/>
      <use xlink:href="#Calibri-74" x="905.986328"/>
      <use xlink:href="#Calibri-65" x="939.482422"/>
      <use xlink:href="#Calibri-63" x="989.238281"/>
      <use xlink:href="#Calibri-74" x="1031.523438"/>
      <use xlink:href="#Calibri-65" x="1065.019531"/>
      <use xlink:href="#Calibri-64" x="1114.775391"/>
      <use xlink:href="#Calibri-20" x="1167.314453"/>
      <use xlink:href="#Calibri-6d" x="1189.921875"/>
      <use xlink:href="#Calibri-65" x="1269.804688"/>
      <use xlink:href="#Calibri-72" x="1319.560547"/>
      <use xlink:href="#Calibri-67" x="1354.423828"/>
      <use xlink:href="#Calibri-65" x="1401.494141"/>
      <use xlink:href="#Calibri-72" x="1451.25"/>
      <use xlink:href="#Calibri-73" x="1486.113281"/>
     </g>
    </g>
   </g>
   <g id="matplotlib.axis_14">
    <g id="ytick_1">
     <g id="line2d_25">
      <path d="M 126.8125 525.196812 
L 875.837034 525.196812 
" clip-path="url(#p2533ed6e2d)" style="fill: none; stroke-dasharray: 2.96,1.28; stroke-dashoffset: 0; stroke: #ffffff; stroke-opacity: 0.7; stroke-width: 0.8"/>
     </g>
     <g id="line2d_26">
      <defs>
       <path id="md5b640136a" d="M 0 0 
L 8 0 
" style="stroke: #ffffff; stroke-width: 3"/>
      </defs>
      <g>
       <use xlink:href="#md5b640136a" x="126.8125" y="525.196812" style="fill: #ffffff; stroke: #ffffff; stroke-width: 3"/>
      </g>
     </g>
     <g id="text_8">
      <!-- 60 -->
      <g style="fill: #ffffff" transform="translate(87.4 535.399156) scale(0.3 -0.3)">
       <use xlink:href="#Calibri-36"/>
       <use xlink:href="#Calibri-30" x="50.683594"/>
      </g>
     </g>
    </g>
    <g id="ytick_2">
     <g id="line2d_27">
      <path d="M 126.8125 416.48641 
L 875.837034 416.48641 
" clip-path="url(#p2533ed6e2d)" style="fill: none; stroke-dasharray: 2.96,1.28; stroke-dashoffset: 0; stroke: #ffffff; stroke-opacity: 0.7; stroke-width: 0.8"/>
     </g>
     <g id="line2d_28">
      <g>
       <use xlink:href="#md5b640136a" x="126.8125" y="416.48641" style="fill: #ffffff; stroke: #ffffff; stroke-width: 3"/>
      </g>
     </g>
     <g id="text_9">
      <!-- 65 -->
      <g style="fill: #ffffff" transform="translate(87.4 426.688753) scale(0.3 -0.3)">
       <use xlink:href="#Calibri-36"/>
       <use xlink:href="#Calibri-35" x="50.683594"/>
      </g>
     </g>
    </g>
    <g id="ytick_3">
     <g id="line2d_29">
      <path d="M 126.8125 307.776007 
L 875.837034 307.776007 
" clip-path="url(#p2533ed6e2d)" style="fill: none; stroke-dasharray: 2.96,1.28; stroke-dashoffset: 0; stroke: #ffffff; stroke-opacity: 0.7; stroke-width: 0.8"/>
     </g>
     <g id="line2d_30">
      <g>
       <use xlink:href="#md5b640136a" x="126.8125" y="307.776007" style="fill: #ffffff; stroke: #ffffff; stroke-width: 3"/>
      </g>
     </g>
     <g id="text_10">
      <!-- 70 -->
      <g style="fill: #ffffff" transform="translate(87.4 317.978351) scale(0.3 -0.3)">
       <defs>
        <path id="Calibri-37" d="M 2947 3813 
Q 2947 3756 2942 3711 
Q 2938 3666 2930 3623 
Q 2922 3581 2908 3542 
Q 2894 3503 2875 3459 
L 1419 103 
Q 1403 66 1379 42 
Q 1356 19 1320 5 
Q 1284 -9 1228 -14 
Q 1172 -19 1091 -19 
Q 984 -19 925 -9 
Q 866 0 839 20 
Q 813 41 816 70 
Q 819 100 838 141 
L 2369 3572 
L 428 3572 
Q 369 3572 339 3634 
Q 309 3697 309 3809 
Q 309 3869 317 3912 
Q 325 3956 340 3986 
Q 356 4016 378 4030 
Q 400 4044 428 4044 
L 2784 4044 
Q 2828 4044 2861 4034 
Q 2894 4025 2911 3997 
Q 2928 3969 2937 3925 
Q 2947 3881 2947 3813 
z
" transform="scale(0.015625)"/>
       </defs>
       <use xlink:href="#Calibri-37"/>
       <use xlink:href="#Calibri-30" x="50.683594"/>
      </g>
     </g>
    </g>
    <g id="ytick_4">
     <g id="line2d_31">
      <path d="M 126.8125 199.065604 
L 875.837034 199.065604 
" clip-path="url(#p2533ed6e2d)" style="fill: none; stroke-dasharray: 2.96,1.28; stroke-dashoffset: 0; stroke: #ffffff; stroke-opacity: 0.7; stroke-width: 0.8"/>
     </g>
     <g id="line2d_32">
      <g>
       <use xlink:href="#md5b640136a" x="126.8125" y="199.065604" style="fill: #ffffff; stroke: #ffffff; stroke-width: 3"/>
      </g>
     </g>
     <g id="text_11">
      <!-- 75 -->
      <g style="fill: #ffffff" transform="translate(87.4 209.267948) scale(0.3 -0.3)">
       <use xlink:href="#Calibri-37"/>
       <use xlink:href="#Calibri-35" x="50.683594"/>
      </g>
     </g>
    </g>
    <g id="ytick_5">
     <g id="line2d_33">
      <path d="M 126.8125 90.355201 
L 875.837034 90.355201 
" clip-path="url(#p2533ed6e2d)" style="fill: none; stroke-dasharray: 2.96,1.28; stroke-dashoffset: 0; stroke: #ffffff; stroke-opacity: 0.7; stroke-width: 0.8"/>
     </g>
     <g id="line2d_34">
      <g>
       <use xlink:href="#md5b640136a" x="126.8125" y="90.355201" style="fill: #ffffff; stroke: #ffffff; stroke-width: 3"/>
      </g>
     </g>
     <g id="text_12">
      <!-- 80 -->
      <g style="fill: #ffffff" transform="translate(87.4 100.557545) scale(0.3 -0.3)">
       <use xlink:href="#Calibri-38"/>
       <use xlink:href="#Calibri-30" x="50.683594"/>
      </g>
     </g>
    </g>
    <g id="text_13">
     <!-- $H_0$ (km s$^{-1}$ Mpc$^{-1}$) -->
     <g style="fill: #ffffff" transform="translate(65.75 419.898406) rotate(-90) scale(0.35 -0.35)">
      <defs>
       <path id="Cmmi10-48" d="M 300 0 
Q 238 0 238 84 
Q 241 100 250 139 
Q 259 178 276 201 
Q 294 225 319 225 
Q 709 225 863 269 
Q 947 297 984 441 
L 1863 3956 
Q 1875 4019 1875 4044 
Q 1875 4113 1797 4122 
Q 1678 4147 1338 4147 
Q 1275 4147 1275 4231 
Q 1297 4313 1309 4342 
Q 1322 4372 1381 4372 
L 3103 4372 
Q 3169 4372 3169 4288 
Q 3166 4272 3156 4234 
Q 3147 4197 3131 4172 
Q 3116 4147 3084 4147 
Q 2694 4147 2541 4103 
Q 2456 4072 2419 3928 
L 2034 2388 
L 3956 2388 
L 4347 3956 
Q 4359 4019 4359 4044 
Q 4359 4113 4281 4122 
Q 4159 4147 3822 4147 
Q 3756 4147 3756 4231 
Q 3778 4313 3790 4342 
Q 3803 4372 3866 4372 
L 5588 4372 
Q 5650 4372 5650 4288 
Q 5647 4272 5637 4233 
Q 5628 4194 5611 4170 
Q 5594 4147 5569 4147 
Q 5178 4147 5025 4103 
Q 4941 4075 4903 3928 
L 4025 416 
Q 4013 353 4013 325 
Q 4013 259 4091 250 
Q 4213 225 4550 225 
Q 4616 225 4616 141 
Q 4597 66 4578 33 
Q 4559 0 4506 0 
L 2784 0 
Q 2719 0 2719 84 
Q 2731 131 2737 153 
Q 2744 175 2761 200 
Q 2778 225 2803 225 
Q 3194 225 3347 269 
Q 3431 297 3469 441 
L 3897 2163 
L 1978 2163 
L 1544 416 
Q 1528 338 1528 325 
Q 1528 259 1606 250 
Q 1728 225 2069 225 
Q 2131 225 2131 141 
Q 2109 56 2095 28 
Q 2081 0 2022 0 
L 300 0 
z
" transform="scale(0.015625)"/>
       <path id="Cmr10-30" d="M 1600 -141 
Q 816 -141 533 504 
Q 250 1150 250 2041 
Q 250 2597 351 3087 
Q 453 3578 754 3920 
Q 1056 4263 1600 4263 
Q 2022 4263 2290 4056 
Q 2559 3850 2700 3523 
Q 2841 3197 2892 2823 
Q 2944 2450 2944 2041 
Q 2944 1491 2842 1011 
Q 2741 531 2444 195 
Q 2147 -141 1600 -141 
z
M 1600 25 
Q 1956 25 2131 390 
Q 2306 756 2347 1200 
Q 2388 1644 2388 2144 
Q 2388 2625 2347 3031 
Q 2306 3438 2132 3767 
Q 1959 4097 1600 4097 
Q 1238 4097 1063 3765 
Q 888 3434 847 3029 
Q 806 2625 806 2144 
Q 806 1788 823 1472 
Q 841 1156 916 820 
Q 991 484 1158 254 
Q 1325 25 1600 25 
z
" transform="scale(0.015625)"/>
       <path id="Calibri-28" d="M 1547 4306 
Q 1250 3678 1104 3017 
Q 959 2356 959 1688 
Q 959 1016 1107 356 
Q 1256 -303 1541 -938 
Q 1556 -975 1557 -1001 
Q 1559 -1028 1537 -1045 
Q 1516 -1063 1470 -1070 
Q 1425 -1078 1347 -1078 
Q 1291 -1078 1250 -1075 
Q 1209 -1072 1179 -1062 
Q 1150 -1053 1131 -1040 
Q 1113 -1028 1103 -1013 
Q 934 -694 806 -367 
Q 678 -41 590 296 
Q 503 634 459 979 
Q 416 1325 416 1678 
Q 416 2031 464 2375 
Q 513 2719 602 3058 
Q 691 3397 819 3725 
Q 947 4053 1106 4375 
Q 1109 4388 1123 4397 
Q 1138 4406 1163 4415 
Q 1188 4425 1231 4429 
Q 1275 4434 1344 4434 
Q 1416 4434 1459 4425 
Q 1503 4416 1528 4400 
Q 1553 4384 1556 4359 
Q 1559 4334 1547 4306 
z
" transform="scale(0.015625)"/>
       <path id="Calibri-6b" d="M 2788 81 
Q 2788 56 2775 37 
Q 2763 19 2733 6 
Q 2703 -6 2650 -12 
Q 2597 -19 2516 -19 
Q 2431 -19 2376 -14 
Q 2322 -9 2284 2 
Q 2247 13 2223 33 
Q 2200 53 2181 81 
L 994 1638 
L 994 78 
Q 994 53 981 36 
Q 969 19 941 6 
Q 913 -6 863 -12 
Q 813 -19 734 -19 
Q 659 -19 609 -12 
Q 559 -6 529 6 
Q 500 19 489 36 
Q 478 53 478 78 
L 478 4253 
Q 478 4278 489 4297 
Q 500 4316 529 4328 
Q 559 4341 609 4347 
Q 659 4353 734 4353 
Q 813 4353 863 4347 
Q 913 4341 941 4328 
Q 969 4316 981 4297 
Q 994 4278 994 4253 
L 994 1709 
L 2056 2878 
Q 2081 2909 2109 2929 
Q 2138 2950 2177 2964 
Q 2216 2978 2269 2983 
Q 2322 2988 2397 2988 
Q 2475 2988 2528 2983 
Q 2581 2978 2614 2967 
Q 2647 2956 2661 2939 
Q 2675 2922 2675 2894 
Q 2675 2856 2654 2818 
Q 2634 2781 2588 2731 
L 1569 1713 
L 2713 228 
Q 2753 175 2770 142 
Q 2788 109 2788 81 
z
" transform="scale(0.015625)"/>
       <path id="Cmsy10-a1" d="M 653 1472 
Q 600 1472 565 1512 
Q 531 1553 531 1600 
Q 531 1647 565 1687 
Q 600 1728 653 1728 
L 4325 1728 
Q 4375 1728 4408 1687 
Q 4441 1647 4441 1600 
Q 4441 1553 4408 1512 
Q 4375 1472 4325 1472 
L 653 1472 
z
" transform="scale(0.015625)"/>
       <path id="Cmr10-31" d="M 594 0 
L 594 225 
Q 1394 225 1394 428 
L 1394 3788 
Q 1063 3628 556 3628 
L 556 3853 
Q 1341 3853 1741 4263 
L 1831 4263 
Q 1853 4263 1873 4245 
Q 1894 4228 1894 4206 
L 1894 428 
Q 1894 225 2694 225 
L 2694 0 
L 594 0 
z
" transform="scale(0.015625)"/>
       <path id="Calibri-4d" d="M 4934 81 
Q 4934 56 4921 37 
Q 4909 19 4878 8 
Q 4847 -3 4798 -11 
Q 4750 -19 4672 -19 
Q 4600 -19 4548 -11 
Q 4497 -3 4467 8 
Q 4438 19 4425 37 
Q 4413 56 4413 81 
L 4413 3603 
L 4406 3603 
L 2966 66 
Q 2956 44 2939 28 
Q 2922 13 2889 2 
Q 2856 -9 2811 -14 
Q 2766 -19 2703 -19 
Q 2638 -19 2591 -12 
Q 2544 -6 2512 5 
Q 2481 16 2464 31 
Q 2447 47 2441 66 
L 1063 3603 
L 1059 3603 
L 1059 81 
Q 1059 56 1046 37 
Q 1034 19 1003 8 
Q 972 -3 922 -11 
Q 872 -19 794 -19 
Q 719 -19 669 -11 
Q 619 -3 589 8 
Q 559 19 548 37 
Q 538 56 538 81 
L 538 3800 
Q 538 3931 606 3987 
Q 675 4044 759 4044 
L 1084 4044 
Q 1184 4044 1259 4025 
Q 1334 4006 1390 3965 
Q 1447 3925 1484 3862 
Q 1522 3800 1550 3716 
L 2722 788 
L 2738 788 
L 3956 3706 
Q 3991 3800 4031 3865 
Q 4072 3931 4120 3970 
Q 4169 4009 4228 4026 
Q 4288 4044 4366 4044 
L 4706 4044 
Q 4753 4044 4795 4030 
Q 4838 4016 4867 3986 
Q 4897 3956 4915 3911 
Q 4934 3866 4934 3800 
L 4934 81 
z
" transform="scale(0.015625)"/>
       <path id="Calibri-70" d="M 3066 1528 
Q 3066 1159 2986 865 
Q 2906 572 2751 367 
Q 2597 163 2369 52 
Q 2141 -59 1847 -59 
Q 1722 -59 1615 -34 
Q 1509 -9 1407 44 
Q 1306 97 1206 178 
Q 1106 259 994 369 
L 994 -1038 
Q 994 -1063 981 -1081 
Q 969 -1100 941 -1112 
Q 913 -1125 863 -1131 
Q 813 -1138 734 -1138 
Q 659 -1138 609 -1131 
Q 559 -1125 529 -1112 
Q 500 -1100 489 -1081 
Q 478 -1063 478 -1038 
L 478 2891 
Q 478 2919 487 2936 
Q 497 2953 525 2965 
Q 553 2978 597 2983 
Q 641 2988 703 2988 
Q 769 2988 811 2983 
Q 853 2978 881 2965 
Q 909 2953 920 2936 
Q 931 2919 931 2891 
L 931 2513 
Q 1059 2644 1178 2741 
Q 1297 2838 1417 2902 
Q 1538 2966 1664 2998 
Q 1791 3031 1931 3031 
Q 2238 3031 2453 2912 
Q 2669 2794 2805 2587 
Q 2941 2381 3003 2107 
Q 3066 1834 3066 1528 
z
M 2522 1469 
Q 2522 1684 2489 1886 
Q 2456 2088 2376 2244 
Q 2297 2400 2162 2494 
Q 2028 2588 1828 2588 
Q 1728 2588 1631 2558 
Q 1534 2528 1434 2464 
Q 1334 2400 1225 2295 
Q 1116 2191 994 2038 
L 994 919 
Q 1206 659 1397 521 
Q 1588 384 1797 384 
Q 1991 384 2130 478 
Q 2269 572 2355 728 
Q 2441 884 2481 1078 
Q 2522 1272 2522 1469 
z
" transform="scale(0.015625)"/>
       <path id="Calibri-29" d="M 1522 1678 
Q 1522 1325 1478 979 
Q 1434 634 1346 296 
Q 1259 -41 1132 -367 
Q 1006 -694 838 -1013 
Q 828 -1028 809 -1040 
Q 791 -1053 761 -1062 
Q 731 -1072 690 -1075 
Q 650 -1078 594 -1078 
Q 513 -1078 467 -1070 
Q 422 -1063 401 -1045 
Q 381 -1028 382 -1001 
Q 384 -975 400 -938 
Q 688 -306 834 355 
Q 981 1016 981 1688 
Q 981 2356 834 3017 
Q 688 3678 394 4306 
Q 381 4334 384 4359 
Q 388 4384 413 4400 
Q 438 4416 481 4425 
Q 525 4434 597 4434 
Q 663 4434 706 4429 
Q 750 4425 776 4415 
Q 803 4406 815 4397 
Q 828 4388 834 4375 
Q 1156 3734 1339 3057 
Q 1522 2381 1522 1678 
z
" transform="scale(0.015625)"/>
      </defs>
      <use xlink:href="#Cmmi10-48" transform="translate(0 0.109375)"/>
      <use xlink:href="#Cmr10-30" transform="translate(83.105469 -16.896875) scale(0.7)"/>
      <use xlink:href="#Calibri-20" transform="translate(124.482812 0.109375)"/>
      <use xlink:href="#Calibri-28" transform="translate(145.965234 0.109375)"/>
      <use xlink:href="#Calibri-6b" transform="translate(176.2875 0.109375)"/>
      <use xlink:href="#Calibri-6d" transform="translate(221.746484 0.109375)"/>
      <use xlink:href="#Calibri-20" transform="translate(301.629297 0.109375)"/>
      <use xlink:href="#Calibri-73" transform="translate(324.236719 0.109375)"/>
      <use xlink:href="#Cmsy10-a1" transform="translate(367.812188 38.373438) scale(0.7)"/>
      <use xlink:href="#Cmr10-31" transform="translate(422.19207 38.373438) scale(0.7)"/>
      <use xlink:href="#Calibri-20" transform="translate(463.569414 0.109375)"/>
      <use xlink:href="#Calibri-4d" transform="translate(484.676836 0.109375)"/>
      <use xlink:href="#Calibri-70" transform="translate(570.174883 0.109375)"/>
      <use xlink:href="#Calibri-63" transform="translate(622.713945 0.109375)"/>
      <use xlink:href="#Cmsy10-a1" transform="translate(669.463242 38.373438) scale(0.7)"/>
      <use xlink:href="#Cmr10-31" transform="translate(723.843125 38.373438) scale(0.7)"/>
      <use xlink:href="#Calibri-29" transform="translate(765.220469 0.109375)"/>
     </g>
    </g>
   </g>
   <g id="LineCollection_1">
    <path d="M 164.927529 432.119238 
L 164.927529 159.625241 
" clip-path="url(#p2533ed6e2d)" style="fill: none; stroke: #ffffff; stroke-width: 1.5"/>
   </g>
   <g id="LineCollection_2">
    <path d="M 164.927529 432.119238 
L 185.045985 432.119238 
" clip-path="url(#p2533ed6e2d)" style="fill: none; stroke: #ffffff; stroke-width: 1.5"/>
    <path d="M 164.927529 295.872239 
L 185.045985 295.872239 
" clip-path="url(#p2533ed6e2d)" style="fill: none; stroke: #ffffff; stroke-width: 1.5"/>
    <path d="M 164.927529 159.625241 
L 185.045985 159.625241 
" clip-path="url(#p2533ed6e2d)" style="fill: none; stroke: #ffffff; stroke-width: 1.5"/>
   </g>
   <g id="LineCollection_3">
    <path d="M 283.323622 383.922662 
L 283.323622 217.592832 
" clip-path="url(#p2533ed6e2d)" style="fill: none; stroke: #ffffff; stroke-width: 1.5"/>
   </g>
   <g id="LineCollection_4">
    <path d="M 283.323622 383.922662 
L 303.442078 383.922662 
" clip-path="url(#p2533ed6e2d)" style="fill: none; stroke: #ffffff; stroke-width: 1.5"/>
    <path d="M 283.323622 300.757747 
L 303.442078 300.757747 
" clip-path="url(#p2533ed6e2d)" style="fill: none; stroke: #ffffff; stroke-width: 1.5"/>
    <path d="M 283.323622 217.592832 
L 303.442078 217.592832 
" clip-path="url(#p2533ed6e2d)" style="fill: none; stroke: #ffffff; stroke-width: 1.5"/>
   </g>
   <g id="LineCollection_5">
    <path d="M 401.719715 362.865066 
L 401.719715 247.909609 
" clip-path="url(#p2533ed6e2d)" style="fill: none; stroke: #ffffff; stroke-width: 1.5"/>
   </g>
   <g id="LineCollection_6">
    <path d="M 401.719715 362.865066 
L 421.838171 362.865066 
" clip-path="url(#p2533ed6e2d)" style="fill: none; stroke: #ffffff; stroke-width: 1.5"/>
    <path d="M 401.719715 305.387338 
L 421.838171 305.387338 
" clip-path="url(#p2533ed6e2d)" style="fill: none; stroke: #ffffff; stroke-width: 1.5"/>
    <path d="M 401.719715 247.909609 
L 421.838171 247.909609 
" clip-path="url(#p2533ed6e2d)" style="fill: none; stroke: #ffffff; stroke-width: 1.5"/>
   </g>
   <g id="LineCollection_7">
    <path d="M 520.115807 345.802879 
L 520.115807 268.112481 
" clip-path="url(#p2533ed6e2d)" style="fill: none; stroke: #ffffff; stroke-width: 1.5"/>
   </g>
   <g id="LineCollection_8">
    <path d="M 520.115807 345.802879 
L 540.234264 345.802879 
" clip-path="url(#p2533ed6e2d)" style="fill: none; stroke: #ffffff; stroke-width: 1.5"/>
    <path d="M 520.115807 306.95768 
L 540.234264 306.95768 
" clip-path="url(#p2533ed6e2d)" style="fill: none; stroke: #ffffff; stroke-width: 1.5"/>
    <path d="M 520.115807 268.112481 
L 540.234264 268.112481 
" clip-path="url(#p2533ed6e2d)" style="fill: none; stroke: #ffffff; stroke-width: 1.5"/>
   </g>
   <g id="LineCollection_9">
    <path d="M 638.5119 332.361937 
L 638.5119 280.989744 
" clip-path="url(#p2533ed6e2d)" style="fill: none; stroke: #ffffff; stroke-width: 1.5"/>
   </g>
   <g id="LineCollection_10">
    <path d="M 638.5119 332.361937 
L 658.630357 332.361937 
" clip-path="url(#p2533ed6e2d)" style="fill: none; stroke: #ffffff; stroke-width: 1.5"/>
    <path d="M 638.5119 306.67584 
L 658.630357 306.67584 
" clip-path="url(#p2533ed6e2d)" style="fill: none; stroke: #ffffff; stroke-width: 1.5"/>
    <path d="M 638.5119 280.989744 
L 658.630357 280.989744 
" clip-path="url(#p2533ed6e2d)" style="fill: none; stroke: #ffffff; stroke-width: 1.5"/>
   </g>
   <g id="LineCollection_11">
    <path d="M 756.907993 328.455561 
L 756.907993 286.458391 
" clip-path="url(#p2533ed6e2d)" style="fill: none; stroke: #ffffff; stroke-width: 1.5"/>
   </g>
   <g id="LineCollection_12">
    <path d="M 756.907993 328.455561 
L 777.02645 328.455561 
" clip-path="url(#p2533ed6e2d)" style="fill: none; stroke: #ffffff; stroke-width: 1.5"/>
    <path d="M 756.907993 307.456976 
L 777.02645 307.456976 
" clip-path="url(#p2533ed6e2d)" style="fill: none; stroke: #ffffff; stroke-width: 1.5"/>
    <path d="M 756.907993 286.458391 
L 777.02645 286.458391 
" clip-path="url(#p2533ed6e2d)" style="fill: none; stroke: #ffffff; stroke-width: 1.5"/>
   </g>
   <g id="line2d_35">
    <path d="M 46.531436 129.874388 
L 66.97255 140.207095 
L 85.226811 148.926047 
L 101.717238 156.411831 
L 116.754862 162.93017 
L 130.575068 168.672968 
L 143.360298 173.782743 
L 155.254826 178.367851 
L 166.374714 182.512341 
L 186.653215 189.731605 
L 204.777715 195.831183 
L 221.162191 201.07348 
L 236.111672 205.642163 
L 256.336542 211.513286 
L 274.418198 216.475913 
L 290.76766 220.742512 
L 310.385221 225.59964 
L 327.980018 229.724918 
L 347.695751 234.101934 
L 368.694896 238.494263 
L 387.392765 242.184362 
L 406.898069 245.824518 
L 429.091131 249.721215 
L 450.778367 253.292199 
L 473.620867 256.816155 
L 496.903881 260.173607 
L 520.126493 263.301993 
L 545.31583 266.463311 
L 571.333759 269.492883 
L 598.256954 272.394171 
L 625.948064 275.14901 
L 654.778179 277.789501 
L 684.695933 280.303903 
L 715.849731 282.69837 
L 748.718776 284.998786 
L 783.100937 287.17961 
L 819.174229 289.243598 
L 857.248432 291.198135 
L 875.304086 292.051577 
L 875.304086 292.051577 
" clip-path="url(#p2533ed6e2d)" style="fill: none; stroke-dasharray: 15,15; stroke-dashoffset: 0; stroke: #ff0000; stroke-width: 3"/>
   </g>
   <g id="line2d_36">
    <path d="M 46.531436 485.677626 
L 66.97255 475.344918 
L 85.226811 466.625966 
L 101.717238 459.140183 
L 116.754862 452.621844 
L 130.575068 446.879046 
L 143.360298 441.769271 
L 155.254826 437.184163 
L 166.374714 433.039673 
L 186.653215 425.820409 
L 204.777715 419.720831 
L 221.162191 414.478534 
L 236.111672 409.90985 
L 256.336542 404.038728 
L 274.418198 399.0761 
L 290.76766 394.809501 
L 310.385221 389.952374 
L 327.980018 385.827095 
L 347.695751 381.45008 
L 368.694896 377.057751 
L 387.392765 373.367651 
L 406.898069 369.727496 
L 429.091131 365.830799 
L 450.778367 362.259815 
L 473.620867 358.735859 
L 496.903881 355.378407 
L 520.126493 352.25002 
L 545.31583 349.088703 
L 571.333759 346.059131 
L 598.256954 343.157842 
L 625.948064 340.403004 
L 654.778179 337.762512 
L 684.695933 335.24811 
L 715.849731 332.853643 
L 748.718776 330.553228 
L 783.100937 328.372404 
L 819.174229 326.308416 
L 857.248432 324.353878 
L 875.304086 323.500437 
L 875.304086 323.500437 
" clip-path="url(#p2533ed6e2d)" style="fill: none; stroke-dasharray: 15,15; stroke-dashoffset: 0; stroke: #ff0000; stroke-width: 3"/>
   </g>
   <g id="line2d_37"/>
   <g id="line2d_38"/>
   <g id="LineCollection_13">
    <path d="M 126.8125 307.776007 
L 875.837034 307.776007 
" clip-path="url(#p2533ed6e2d)" style="fill: none; stroke: #0000ff; stroke-width: 1.5"/>
   </g>
   <g id="patch_9">
    <path d="M 126.8125 525.196812 
L 126.8125 36 
" style="fill: none; stroke: #ffffff; stroke-width: 3; stroke-linejoin: miter; stroke-linecap: square"/>
   </g>
   <g id="patch_10">
    <path d="M 875.837034 525.196812 
L 875.837034 36 
" style="fill: none; stroke: #ffffff; stroke-width: 3; stroke-linejoin: miter; stroke-linecap: square"/>
   </g>
   <g id="patch_11">
    <path d="M 126.8125 525.196812 
L 875.837034 525.196812 
" style="fill: none; stroke: #ffffff; stroke-width: 3; stroke-linejoin: miter; stroke-linecap: square"/>
   </g>
   <g id="patch_12">
    <path d="M 126.8125 36 
L 875.837034 36 
" style="fill: none; stroke: #ffffff; stroke-width: 3; stroke-linejoin: miter; stroke-linecap: square"/>
   </g>
   <g id="legend_1">
    <g id="patch_13">
     <path d="M 388.57889 175.421092 
L 867.65889 175.421092 
Q 873.25889 175.421092 873.25889 169.821092 
L 873.25889 43.589217 
Q 873.25889 37.989217 867.65889 37.989217 
L 388.57889 37.989217 
Q 382.97889 37.989217 382.97889 43.589217 
L 382.97889 169.821092 
Q 382.97889 175.421092 388.57889 175.421092 
z
" style="stroke: #cccccc; stroke-linejoin: miter"/>
    </g>
    <g id="line2d_39">
     <path d="M 394.17889 69.069217 
L 422.17889 69.069217 
L 450.17889 69.069217 
" style="fill: none; stroke-dasharray: 15,15; stroke-dashoffset: 0; stroke: #ff0000; stroke-width: 3"/>
    </g>
    <g id="text_14">
     <!-- $\sigma = \alpha/\sqrt{N}$ fit, $\alpha=18.5\%\pm0.7\%$ -->
     <g style="fill: #ffffff" transform="translate(472.57889 78.869217) scale(0.28 -0.28)">
      <defs>
       <path id="Cmmi10-be" d="M 1197 -72 
Q 913 -72 692 64 
Q 472 200 351 431 
Q 231 663 231 941 
Q 231 1238 365 1566 
Q 500 1894 733 2166 
Q 966 2438 1259 2598 
Q 1553 2759 1863 2759 
L 3475 2759 
Q 3541 2759 3587 2715 
Q 3634 2672 3634 2597 
Q 3634 2503 3567 2433 
Q 3500 2363 3406 2363 
L 2625 2363 
Q 2809 2088 2809 1697 
Q 2809 1375 2684 1062 
Q 2559 750 2337 492 
Q 2116 234 1820 81 
Q 1525 -72 1197 -72 
z
M 1203 97 
Q 1553 97 1823 370 
Q 2094 644 2237 1039 
Q 2381 1434 2381 1772 
Q 2381 2047 2229 2205 
Q 2078 2363 1806 2363 
Q 1434 2363 1173 2113 
Q 913 1863 783 1484 
Q 653 1106 653 756 
Q 653 481 798 289 
Q 944 97 1203 97 
z
" transform="scale(0.015625)"/>
       <path id="Cmr10-3d" d="M 481 850 
Q 428 850 393 890 
Q 359 931 359 978 
Q 359 1031 393 1068 
Q 428 1106 481 1106 
L 4500 1106 
Q 4547 1106 4581 1068 
Q 4616 1031 4616 978 
Q 4616 931 4581 890 
Q 4547 850 4500 850 
L 481 850 
z
M 481 2094 
Q 428 2094 393 2131 
Q 359 2169 359 2222 
Q 359 2269 393 2309 
Q 428 2350 481 2350 
L 4500 2350 
Q 4547 2350 4581 2309 
Q 4616 2269 4616 2222 
Q 4616 2169 4581 2131 
Q 4547 2094 4500 2094 
L 481 2094 
z
" transform="scale(0.015625)"/>
       <path id="Cmmi10-ae" d="M 1288 -72 
Q 984 -72 748 72 
Q 513 216 384 459 
Q 256 703 256 1013 
Q 256 1447 498 1872 
Q 741 2297 1142 2562 
Q 1544 2828 1984 2828 
Q 2309 2828 2556 2658 
Q 2803 2488 2931 2205 
Q 3059 1922 3059 1600 
L 3066 1172 
Q 3284 1475 3436 1801 
Q 3588 2128 3669 2478 
Q 3681 2516 3719 2516 
L 3794 2516 
Q 3853 2516 3853 2456 
Q 3853 2450 3847 2438 
Q 3772 2144 3659 1873 
Q 3547 1603 3395 1350 
Q 3244 1097 3066 891 
Q 3066 97 3250 97 
Q 3369 97 3445 167 
Q 3522 238 3580 341 
Q 3638 444 3653 447 
L 3731 447 
Q 3781 447 3781 384 
Q 3781 225 3598 76 
Q 3416 -72 3238 -72 
Q 3006 -72 2853 78 
Q 2700 228 2644 469 
Q 2344 213 1994 70 
Q 1644 -72 1288 -72 
z
M 1300 97 
Q 1984 97 2613 659 
Q 2609 697 2603 751 
Q 2597 806 2597 813 
L 2597 1503 
Q 2597 2663 1972 2663 
Q 1597 2663 1315 2342 
Q 1034 2022 892 1576 
Q 750 1131 750 763 
Q 750 484 892 290 
Q 1034 97 1300 97 
z
" transform="scale(0.015625)"/>
       <path id="Cmmi10-3d" d="M 359 -1472 
Q 359 -1453 366 -1447 
L 2591 4722 
Q 2603 4759 2634 4779 
Q 2666 4800 2706 4800 
Q 2763 4800 2798 4765 
Q 2834 4731 2834 4672 
L 2834 4647 
L 609 -1522 
Q 572 -1600 488 -1600 
Q 434 -1600 396 -1562 
Q 359 -1525 359 -1472 
z
" transform="scale(0.015625)"/>
       <path id="Cmex10-70" d="M 2713 -7425 
L 1269 -4063 
L 819 -4409 
L 703 -4294 
L 1619 -3584 
L 2969 -6725 
L 6291 197 
Q 6322 256 6400 256 
Q 6453 256 6490 218 
Q 6528 181 6528 128 
Q 6528 97 6522 84 
L 2950 -7366 
Q 2925 -7425 2853 -7425 
L 2713 -7425 
z
" transform="scale(0.015625)"/>
       <path id="Cmmi10-4e" d="M 300 0 
Q 238 0 238 84 
Q 241 100 250 139 
Q 259 178 276 201 
Q 294 225 319 225 
Q 931 225 1031 616 
L 1900 4116 
Q 1722 4147 1338 4147 
Q 1275 4147 1275 4231 
Q 1278 4247 1287 4286 
Q 1297 4325 1314 4348 
Q 1331 4372 1356 4372 
L 2463 4372 
Q 2509 4372 2522 4331 
L 3944 947 
L 4653 3781 
Q 4666 3850 4666 3878 
Q 4666 4147 4172 4147 
Q 4109 4147 4109 4231 
Q 4131 4313 4143 4342 
Q 4156 4372 4219 4372 
L 5588 4372 
Q 5650 4372 5650 4288 
Q 5647 4272 5637 4233 
Q 5628 4194 5611 4170 
Q 5594 4147 5569 4147 
Q 4956 4147 4856 3756 
L 3938 56 
Q 3916 0 3872 0 
L 3794 0 
Q 3750 0 3738 44 
L 2106 3916 
L 2094 3956 
Q 2081 3969 2081 3975 
L 1234 588 
Q 1228 572 1225 548 
Q 1222 525 1216 494 
Q 1216 328 1359 276 
Q 1503 225 1716 225 
Q 1778 225 1778 141 
Q 1756 53 1740 26 
Q 1725 0 1672 0 
L 300 0 
z
" transform="scale(0.015625)"/>
       <path id="Calibri-69" d="M 994 78 
Q 994 53 981 36 
Q 969 19 941 6 
Q 913 -6 863 -12 
Q 813 -19 734 -19 
Q 659 -19 609 -12 
Q 559 -6 529 6 
Q 500 19 489 36 
Q 478 53 478 78 
L 478 2891 
Q 478 2913 489 2931 
Q 500 2950 529 2962 
Q 559 2975 609 2981 
Q 659 2988 734 2988 
Q 813 2988 863 2981 
Q 913 2975 941 2962 
Q 969 2950 981 2931 
Q 994 2913 994 2891 
L 994 78 
z
M 1053 3841 
Q 1053 3659 984 3593 
Q 916 3528 731 3528 
Q 550 3528 483 3592 
Q 416 3656 416 3834 
Q 416 4016 484 4081 
Q 553 4147 738 4147 
Q 919 4147 986 4083 
Q 1053 4019 1053 3841 
z
" transform="scale(0.015625)"/>
       <path id="Calibri-2c" d="M 1159 447 
Q 1159 350 1150 269 
Q 1141 188 1119 116 
Q 1097 44 1061 -26 
Q 1025 -97 972 -175 
L 544 -819 
Q 528 -841 508 -856 
Q 488 -872 458 -884 
Q 428 -897 389 -901 
Q 350 -906 291 -906 
Q 238 -906 202 -901 
Q 166 -897 150 -886 
Q 134 -875 132 -856 
Q 131 -838 144 -813 
L 559 47 
L 559 447 
Q 559 531 576 581 
Q 594 631 631 656 
Q 669 681 725 690 
Q 781 700 863 700 
Q 941 700 997 690 
Q 1053 681 1089 656 
Q 1125 631 1142 581 
Q 1159 531 1159 447 
z
" transform="scale(0.015625)"/>
       <path id="Cmr10-38" d="M 269 972 
Q 269 1356 522 1651 
Q 775 1947 1172 2144 
L 934 2297 
Q 716 2441 578 2680 
Q 441 2919 441 3181 
Q 441 3488 602 3734 
Q 763 3981 1030 4122 
Q 1297 4263 1600 4263 
Q 1884 4263 2148 4147 
Q 2413 4031 2583 3815 
Q 2753 3600 2753 3303 
Q 2753 3088 2651 2903 
Q 2550 2719 2373 2572 
Q 2197 2425 1997 2322 
L 2363 2088 
Q 2616 1922 2770 1653 
Q 2925 1384 2925 1088 
Q 2925 741 2739 456 
Q 2553 172 2247 15 
Q 1941 -141 1600 -141 
Q 1269 -141 961 -6 
Q 653 128 461 383 
Q 269 638 269 972 
z
M 616 972 
Q 616 719 755 509 
Q 894 300 1122 181 
Q 1350 63 1600 63 
Q 1972 63 2275 280 
Q 2578 497 2578 856 
Q 2578 978 2529 1098 
Q 2481 1219 2395 1317 
Q 2309 1416 2203 1478 
L 1344 2034 
Q 1144 1928 976 1765 
Q 809 1603 712 1400 
Q 616 1197 616 972 
z
M 1056 2925 
L 1831 2425 
Q 2100 2581 2272 2803 
Q 2444 3025 2444 3303 
Q 2444 3519 2323 3698 
Q 2203 3878 2009 3978 
Q 1816 4078 1594 4078 
Q 1400 4078 1203 4003 
Q 1006 3928 878 3779 
Q 750 3631 750 3431 
Q 750 3131 1056 2925 
z
" transform="scale(0.015625)"/>
       <path id="Cmmi10-3a" d="M 538 353 
Q 538 497 644 600 
Q 750 703 891 703 
Q 978 703 1062 656 
Q 1147 609 1194 525 
Q 1241 441 1241 353 
Q 1241 213 1137 106 
Q 1034 0 891 0 
Q 750 0 644 106 
Q 538 213 538 353 
z
" transform="scale(0.015625)"/>
       <path id="Cmr10-35" d="M 556 728 
Q 622 541 758 387 
Q 894 234 1080 148 
Q 1266 63 1466 63 
Q 1928 63 2103 422 
Q 2278 781 2278 1294 
Q 2278 1516 2270 1667 
Q 2263 1819 2228 1959 
Q 2169 2184 2020 2353 
Q 1872 2522 1656 2522 
Q 1441 2522 1286 2456 
Q 1131 2391 1034 2303 
Q 938 2216 863 2119 
Q 788 2022 769 2016 
L 697 2016 
Q 681 2016 657 2036 
Q 634 2056 634 2075 
L 634 4213 
Q 634 4228 654 4245 
Q 675 4263 697 4263 
L 716 4263 
Q 1147 4056 1631 4056 
Q 2106 4056 2547 4263 
L 2566 4263 
Q 2588 4263 2606 4247 
Q 2625 4231 2625 4213 
L 2625 4153 
Q 2625 4122 2613 4122 
Q 2394 3831 2064 3668 
Q 1734 3506 1381 3506 
Q 1125 3506 856 3578 
L 856 2369 
Q 1069 2541 1236 2614 
Q 1403 2688 1663 2688 
Q 2016 2688 2295 2484 
Q 2575 2281 2725 1954 
Q 2875 1628 2875 1288 
Q 2875 903 2686 575 
Q 2497 247 2172 53 
Q 1847 -141 1466 -141 
Q 1150 -141 886 21 
Q 622 184 470 459 
Q 319 734 319 1044 
Q 319 1188 412 1278 
Q 506 1369 647 1369 
Q 788 1369 883 1276 
Q 978 1184 978 1044 
Q 978 906 883 811 
Q 788 716 647 716 
Q 625 716 597 720 
Q 569 725 556 728 
z
" transform="scale(0.015625)"/>
       <path id="Cmr10-25" d="M 891 -231 
Q 891 -194 909 -166 
L 3809 4153 
Q 3425 3938 2963 3938 
Q 2463 3938 2003 4197 
Q 2131 3891 2131 3513 
Q 2131 3306 2082 3086 
Q 2034 2866 1934 2670 
Q 1834 2475 1676 2348 
Q 1519 2222 1306 2222 
Q 1006 2222 790 2422 
Q 575 2622 467 2922 
Q 359 3222 359 3513 
Q 359 3797 467 4098 
Q 575 4400 790 4600 
Q 1006 4800 1306 4800 
Q 1544 4800 1741 4609 
Q 2256 4103 2963 4103 
Q 3341 4103 3669 4270 
Q 3997 4438 4206 4750 
Q 4238 4800 4306 4800 
Q 4363 4800 4398 4765 
Q 4434 4731 4434 4672 
Q 4434 4638 4416 4609 
L 1113 -319 
Q 1084 -359 1019 -359 
Q 966 -359 928 -318 
Q 891 -278 891 -231 
z
M 1306 2388 
Q 1622 2388 1784 2764 
Q 1947 3141 1947 3513 
Q 1947 3722 1880 3989 
Q 1813 4256 1669 4445 
Q 1525 4634 1306 4634 
Q 988 4634 884 4279 
Q 781 3925 781 3506 
Q 781 3103 887 2745 
Q 994 2388 1306 2388 
z
M 4141 -359 
Q 3841 -359 3625 -159 
Q 3409 41 3301 342 
Q 3194 644 3194 934 
Q 3194 1219 3301 1520 
Q 3409 1822 3625 2022 
Q 3841 2222 4141 2222 
Q 4419 2222 4606 2011 
Q 4794 1800 4880 1503 
Q 4966 1206 4966 934 
Q 4966 728 4917 509 
Q 4869 291 4770 92 
Q 4672 -106 4514 -232 
Q 4356 -359 4141 -359 
z
M 4141 -191 
Q 4356 -191 4503 1 
Q 4650 194 4715 459 
Q 4781 725 4781 934 
Q 4781 1303 4618 1678 
Q 4456 2053 4141 2053 
Q 3822 2053 3719 1698 
Q 3616 1344 3616 928 
Q 3616 522 3722 165 
Q 3828 -191 4141 -191 
z
" transform="scale(0.015625)"/>
       <path id="Cmsy10-a7" d="M 481 0 
Q 428 0 393 37 
Q 359 75 359 128 
Q 359 175 393 215 
Q 428 256 481 256 
L 2363 256 
L 2363 2003 
L 481 2003 
Q 428 2003 393 2043 
Q 359 2084 359 2131 
Q 359 2178 393 2218 
Q 428 2259 481 2259 
L 2363 2259 
L 2363 4147 
Q 2363 4197 2400 4230 
Q 2438 4263 2491 4263 
Q 2534 4263 2576 4230 
Q 2619 4197 2619 4147 
L 2619 2259 
L 4500 2259 
Q 4547 2259 4581 2218 
Q 4616 2178 4616 2131 
Q 4616 2084 4581 2043 
Q 4547 2003 4500 2003 
L 2619 2003 
L 2619 256 
L 4500 256 
Q 4547 256 4581 215 
Q 4616 175 4616 128 
Q 4616 75 4581 37 
Q 4547 0 4500 0 
L 481 0 
z
" transform="scale(0.015625)"/>
       <path id="Cmr10-37" d="M 1113 166 
Q 1113 522 1175 862 
Q 1238 1203 1358 1536 
Q 1478 1869 1648 2189 
Q 1819 2509 2022 2791 
L 2606 3603 
L 1875 3603 
Q 738 3603 703 3572 
Q 619 3469 544 2981 
L 359 2981 
L 569 4325 
L 756 4325 
L 756 4306 
Q 756 4191 1147 4156 
Q 1538 4122 1913 4122 
L 3103 4122 
L 3103 3956 
Q 3103 3950 3101 3947 
Q 3100 3944 3097 3938 
L 2216 2700 
Q 1891 2219 1809 1631 
Q 1728 1044 1728 166 
Q 1728 41 1637 -50 
Q 1547 -141 1422 -141 
Q 1294 -141 1203 -50 
Q 1113 41 1113 166 
z
" transform="scale(0.015625)"/>
      </defs>
      <use xlink:href="#Cmmi10-be" transform="translate(0 0.4375)"/>
      <use xlink:href="#Cmr10-3d" transform="translate(74.638672 0.4375)"/>
      <use xlink:href="#Cmmi10-ae" transform="translate(169.882812 0.4375)"/>
      <use xlink:href="#Cmmi10-3d" transform="translate(233.798828 0.4375)"/>
      <use xlink:href="#Cmex10-70" transform="translate(283.798828 96.671875) scale(0.829579)"/>
      <use xlink:href="#Cmmi10-4e" transform="translate(379.251953 0.4375)"/>
      <use xlink:href="#Calibri-20" transform="translate(472.074219 0.4375)"/>
      <use xlink:href="#Calibri-66" transform="translate(494.681641 0.4375)"/>
      <use xlink:href="#Calibri-69" transform="translate(525.199219 0.4375)"/>
      <use xlink:href="#Calibri-74" transform="translate(548.148438 0.4375)"/>
      <use xlink:href="#Calibri-2c" transform="translate(581.644531 0.4375)"/>
      <use xlink:href="#Calibri-20" transform="translate(606.595703 0.4375)"/>
      <use xlink:href="#Cmmi10-ae" transform="translate(629.203125 0.4375)"/>
      <use xlink:href="#Cmr10-3d" transform="translate(710.677734 0.4375)"/>
      <use xlink:href="#Cmr10-31" transform="translate(805.921875 0.4375)"/>
      <use xlink:href="#Cmr10-38" transform="translate(855.921875 0.4375)"/>
      <use xlink:href="#Cmmi10-3a" transform="translate(905.921875 0.4375)"/>
      <use xlink:href="#Cmr10-35" transform="translate(933.607422 0.4375)"/>
      <use xlink:href="#Cmr10-25" transform="translate(983.607422 0.4375)"/>
      <use xlink:href="#Cmsy10-a7" transform="translate(1084.466797 0.4375)"/>
      <use xlink:href="#Cmr10-30" transform="translate(1179.710938 0.4375)"/>
      <use xlink:href="#Cmmi10-3a" transform="translate(1229.710938 0.4375)"/>
      <use xlink:href="#Cmr10-37" transform="translate(1257.396484 0.4375)"/>
      <use xlink:href="#Cmr10-25" transform="translate(1307.396484 0.4375)"/>
      <path d="M 366.751953 93.5 
L 366.751953 99.75 
L 472.074219 99.75 
L 472.074219 93.5 
L 366.751953 93.5 
z
"/>
     </g>
    </g>
    <g id="line2d_40">
     <path d="M 394.17889 109.669217 
L 422.17889 109.669217 
L 450.17889 109.669217 
" style="fill: none; stroke: #40e0d0; stroke-width: 1.5; stroke-linecap: square"/>
    </g>
    <g id="text_15">
     <!-- Average posteriors -->
     <g style="fill: #ffffff" transform="translate(472.57889 119.469217) scale(0.28 -0.28)">
      <use xlink:href="#Calibri-41"/>
      <use xlink:href="#Calibri-76" x="55.986328"/>
      <use xlink:href="#Calibri-65" x="101.152344"/>
      <use xlink:href="#Calibri-72" x="150.908203"/>
      <use xlink:href="#Calibri-61" x="185.771484"/>
      <use xlink:href="#Calibri-67" x="233.671875"/>
      <use xlink:href="#Calibri-65" x="280.742188"/>
      <use xlink:href="#Calibri-20" x="330.498047"/>
      <use xlink:href="#Calibri-70" x="353.105469"/>
      <use xlink:href="#Calibri-6f" x="405.644531"/>
      <use xlink:href="#Calibri-73" x="458.378906"/>
      <use xlink:href="#Calibri-74" x="497.490234"/>
      <use xlink:href="#Calibri-65" x="530.986328"/>
      <use xlink:href="#Calibri-72" x="580.742188"/>
      <use xlink:href="#Calibri-69" x="615.605469"/>
      <use xlink:href="#Calibri-6f" x="638.554688"/>
      <use xlink:href="#Calibri-72" x="691.289062"/>
      <use xlink:href="#Calibri-73" x="726.152344"/>
     </g>
    </g>
    <g id="line2d_41">
     <path d="M 394.17889 148.261092 
L 422.17889 148.261092 
L 450.17889 148.261092 
" style="fill: none; stroke: #ffffff; stroke-width: 1.5; stroke-linecap: square"/>
    </g>
    <g id="text_16">
     <!-- $\mu\pm 1\sigma$ -->
     <g style="fill: #ffffff" transform="translate(472.57889 158.061092) scale(0.28 -0.28)">
      <defs>
       <path id="Cmmi10-b9" d="M 178 -1203 
Q 178 -1166 184 -1153 
L 1125 2625 
Q 1153 2716 1226 2772 
Q 1300 2828 1394 2828 
Q 1475 2828 1531 2779 
Q 1588 2731 1588 2650 
Q 1588 2631 1586 2620 
Q 1584 2609 1581 2597 
L 1203 1100 
Q 1141 834 1141 641 
Q 1141 403 1253 250 
Q 1366 97 1594 97 
Q 2059 97 2413 678 
Q 2416 684 2417 687 
Q 2419 691 2419 697 
L 2881 2553 
Q 2903 2638 2981 2698 
Q 3059 2759 3150 2759 
Q 3225 2759 3283 2709 
Q 3341 2659 3341 2578 
Q 3341 2541 3334 2528 
L 2875 684 
Q 2828 503 2828 372 
Q 2828 97 3016 97 
Q 3216 97 3317 344 
Q 3419 591 3494 941 
Q 3506 978 3547 978 
L 3622 978 
Q 3647 978 3664 958 
Q 3681 938 3681 916 
Q 3569 469 3436 198 
Q 3303 -72 3003 -72 
Q 2791 -72 2627 50 
Q 2463 172 2413 378 
Q 2253 178 2039 53 
Q 1825 -72 1588 -72 
Q 1188 -72 959 116 
L 634 -1178 
Q 616 -1269 541 -1325 
Q 466 -1381 372 -1381 
Q 294 -1381 236 -1332 
Q 178 -1284 178 -1203 
z
" transform="scale(0.015625)"/>
      </defs>
      <use xlink:href="#Cmmi10-b9" transform="translate(0 0.390625)"/>
      <use xlink:href="#Cmsy10-a7" transform="translate(77.763672 0.390625)"/>
      <use xlink:href="#Cmr10-31" transform="translate(173.007812 0.390625)"/>
      <use xlink:href="#Cmmi10-be" transform="translate(223.007812 0.390625)"/>
     </g>
    </g>
   </g>
  </g>
 </g>
 <defs>
  <clipPath id="p188634934c">
   <rect x="164.927529" y="36" width="87.253847" height="489.196812"/>
  </clipPath>
  <clipPath id="p55f3d7d43b">
   <rect x="283.323622" y="36" width="87.253847" height="489.196812"/>
  </clipPath>
  <clipPath id="p5eb5075bfb">
   <rect x="401.719715" y="36" width="87.253847" height="489.196812"/>
  </clipPath>
  <clipPath id="p38eb19d975">
   <rect x="520.115807" y="36" width="87.253847" height="489.196812"/>
  </clipPath>
  <clipPath id="p601ec56fb2">
   <rect x="638.5119" y="36" width="87.253847" height="489.196812"/>
  </clipPath>
  <clipPath id="p60825b6010">
   <rect x="756.907993" y="36" width="87.253847" height="489.196812"/>
  </clipPath>
  <clipPath id="p2533ed6e2d">
   <rect x="126.8125" y="36" width="749.024534" height="489.196812"/>
  </clipPath>
 </defs>
</svg>
