<?xml version="1.0" encoding="utf-8" standalone="no"?>
<!DOCTYPE svg PUBLIC "-//W3C//DTD SVG 1.1//EN"
  "http://www.w3.org/Graphics/SVG/1.1/DTD/svg11.dtd">
<svg xmlns:xlink="http://www.w3.org/1999/xlink" width="911.477019pt" height="639.612756pt" viewBox="0 0 911.477019 639.612756" xmlns="http://www.w3.org/2000/svg" version="1.1">
 <metadata>
  <rdf:RDF xmlns:dc="http://purl.org/dc/elements/1.1/" xmlns:cc="http://creativecommons.org/ns#" xmlns:rdf="http://www.w3.org/1999/02/22-rdf-syntax-ns#">
   <cc:Work>
    <dc:type rdf:resource="http://purl.org/dc/dcmitype/StillImage"/>
    <dc:date>2024-03-21T12:16:37.178994</dc:date>
    <dc:format>image/svg+xml</dc:format>
    <dc:creator>
     <cc:Agent>
      <dc:title>Matplotlib v3.8.0, https://matplotlib.org/</dc:title>
     </cc:Agent>
    </dc:creator>
   </cc:Work>
  </rdf:RDF>
 </metadata>
 <defs>
  <style type="text/css">*{stroke-linejoin: round; stroke-linecap: butt}</style>
 </defs>
 <g id="figure_1">
  <g id="patch_1">
   <path d="M 0 639.612756 
L 911.477019 639.612756 
L 911.477019 0 
L 0 0 
z
" style="fill: #ffffff"/>
" style="fill: #ffffff"/>
  </g>
  <g id="axes_1">
   <g id="patch_2">
    <path d="M 130.815625 519.331506 
L 871.346017 519.331506 
L 871.346017 38.052302 
L 130.815625 38.052302 
z
" style="fill: #ffffff"/>
   </g>
   <g id="axes_2">
    <g id="patch_3">
     <path d="M 168.498419 519.331506 
L 254.762784 519.331506 
L 254.762784 38.052302 
L 168.498419 38.052302 
z
" style="fill: #ffffff"/>
    </g>
    <g id="matplotlib.axis_1"/>
    <g id="matplotlib.axis_2"/>
    <g id="line2d_1">
     <path d="M 179.674741 640.612756 
L 180.931437 631.119418 
L 182.572643 620.37058 
L 184.461629 609.621742 
L 186.619233 598.872905 
L 189.06339 588.124067 
L 191.807567 577.375229 
L 194.85901 566.626392 
L 198.216892 555.877554 
L 201.870486 545.128717 
L 205.797497 534.379879 
L 209.962733 523.631041 
L 216.546397 507.507785 
L 230.025964 475.261272 
L 234.279379 464.512434 
L 238.243003 453.763597 
L 241.813497 443.014759 
L 243.420502 437.64034 
L 244.893435 432.265922 
L 246.221888 426.891503 
L 247.39645 421.517084 
L 248.408846 416.142665 
L 249.252056 410.768246 
L 249.920416 405.393827 
L 250.409702 400.019409 
L 250.717188 394.64499 
L 250.841676 389.270571 
L 250.78351 383.896152 
L 250.544555 378.521733 
L 250.128153 373.147315 
L 249.53906 367.772896 
L 248.783358 362.398477 
L 247.868347 357.024058 
L 246.802418 351.649639 
L 245.594921 346.275221 
L 244.256016 340.900802 
L 241.227751 330.151964 
L 237.809254 319.403126 
L 234.095346 308.654289 
L 228.174 292.531032 
L 216.087193 260.28452 
L 210.360387 244.161263 
L 206.764101 233.412425 
L 203.377726 222.663588 
L 200.218584 211.91475 
L 197.295883 201.165913 
L 194.612044 190.417075 
L 192.164011 179.668237 
L 189.944488 168.9194 
L 187.943057 158.170562 
L 186.14716 147.421725 
L 184.542916 136.672887 
L 183.115803 125.924049 
L 181.851191 115.175212 
L 180.227774 99.051955 
L 178.892249 82.928699 
L 177.803313 66.805442 
L 176.924604 50.682186 
L 176.026483 29.184511 
L 175.385262 7.686835 
L 175.188917 -1 
L 175.188917 -1 
" clip-path="url(#p04817483a6)" style="fill: none; stroke: #40e0d0; stroke-width: 3.5; stroke-linecap: square"/>
    </g>
    <g id="line2d_2">
     <path d="M 172.740573 640.612756 
L 173.13071 598.872905 
L 173.560902 572.000811 
L 174.072209 550.503135 
L 174.797021 529.00546 
L 175.523103 512.882204 
L 176.441032 496.758947 
L 177.582594 480.635691 
L 178.975816 464.512434 
L 180.638481 448.389178 
L 182.568154 432.265922 
L 184.729689 416.142665 
L 192.222558 362.398477 
L 193.402686 351.649639 
L 194.35405 340.900802 
L 195.039018 330.151964 
L 195.433656 319.403126 
L 195.527957 308.654289 
L 195.3244 297.905451 
L 194.835918 287.156614 
L 194.084306 276.407776 
L 193.099458 265.658938 
L 191.919035 254.910101 
L 189.880763 238.786844 
L 182.709953 185.042656 
L 180.901025 168.9194 
L 179.336332 152.796143 
L 178.0143 136.672887 
L 176.921772 120.54963 
L 176.039773 104.426374 
L 175.344649 88.303118 
L 174.660001 66.805442 
L 174.09292 39.933348 
L 173.670267 7.686835 
L 173.584835 -1 
L 173.584835 -1 
" clip-path="url(#p04817483a6)" style="fill: none; stroke: #40e0d0; stroke-width: 3.5; stroke-linecap: square"/>
    </g>
   </g>
   <g id="axes_3">
    <g id="patch_4">
     <path d="M 285.551868 519.331506 
L 371.816233 519.331506 
L 371.816233 38.052302 
L 285.551868 38.052302 
z
" style="fill: #ffffff"/>
    </g>
    <g id="matplotlib.axis_3"/>
    <g id="matplotlib.axis_4"/>
    <g id="line2d_3">
     <path d="M 289.47594 640.612756 
L 289.593432 561.251973 
L 289.842685 534.379879 
L 290.159807 518.256623 
L 290.696299 502.133366 
L 291.228538 491.384528 
L 291.945466 480.635691 
L 292.891176 469.886853 
L 294.113316 459.138016 
L 295.661232 448.389178 
L 297.583564 437.64034 
L 299.925325 426.891503 
L 301.265752 421.517084 
L 302.724564 416.142665 
L 304.304832 410.768246 
L 306.00872 405.393827 
L 307.837366 400.019409 
L 309.790761 394.64499 
L 311.867625 389.270571 
L 316.37959 378.521733 
L 321.333334 367.772896 
L 326.661926 357.024058 
L 332.269255 346.275221 
L 346.609423 319.403126 
L 352.019463 308.654289 
L 354.555513 303.27987 
L 356.943921 297.905451 
L 359.15853 292.531032 
L 361.173773 287.156614 
L 362.965146 281.782195 
L 364.50969 276.407776 
L 365.786484 271.033357 
L 366.777122 265.658938 
L 367.466174 260.28452 
L 367.841602 254.910101 
L 367.895125 249.535682 
L 367.622515 244.161263 
L 367.023802 238.786844 
L 366.103398 233.412425 
L 364.870105 228.038007 
L 363.337024 222.663588 
L 361.521349 217.289169 
L 359.444061 211.91475 
L 357.129516 206.540331 
L 354.604951 201.165913 
L 351.899915 195.791494 
L 346.074404 185.042656 
L 336.782933 168.9194 
L 330.581863 158.170562 
L 324.62755 147.421725 
L 319.087676 136.672887 
L 316.511765 131.298468 
L 314.079318 125.924049 
L 311.797007 120.54963 
L 309.668587 115.175212 
L 307.695145 109.800793 
L 305.875385 104.426374 
L 304.205954 99.051955 
L 302.681769 93.677536 
L 301.296361 88.303118 
L 300.042198 82.928699 
L 298.910996 77.55428 
L 296.982261 66.805442 
L 295.438855 56.056605 
L 294.212168 45.307767 
L 293.240419 34.558929 
L 292.47078 23.810092 
L 291.602876 7.686835 
L 291.246699 -1 
L 291.246699 -1 
" clip-path="url(#p64818a1946)" style="fill: none; stroke: #40e0d0; stroke-width: 3.5; stroke-linecap: square"/>
    </g>
    <g id="line2d_4">
     <path d="M 289.496994 640.612756 
L 289.633962 539.754298 
L 289.850277 512.882204 
L 290.236634 491.384528 
L 290.749314 475.261272 
L 291.549979 459.138016 
L 292.293496 448.389178 
L 293.240117 437.64034 
L 294.416619 426.891503 
L 295.842056 416.142665 
L 297.522178 405.393827 
L 299.442774 394.64499 
L 301.562712 383.896152 
L 308.216752 351.649639 
L 310.092544 340.900802 
L 310.884075 335.526383 
L 311.557081 330.151964 
L 312.099202 324.777545 
L 312.501432 319.403126 
L 312.758425 314.028708 
L 312.868548 308.654289 
L 312.833698 303.27987 
L 312.658902 297.905451 
L 312.351768 292.531032 
L 311.921867 287.156614 
L 310.738176 276.407776 
L 309.201893 265.658938 
L 307.408316 254.910101 
L 304.435134 238.786844 
L 299.434148 211.91475 
L 297.635959 201.165913 
L 296.035901 190.417075 
L 294.662194 179.668237 
L 293.52195 168.9194 
L 292.604196 158.170562 
L 291.885251 147.421725 
L 291.11276 131.298468 
L 290.614703 115.175212 
L 290.227453 93.677536 
L 289.991172 66.805442 
L 289.811058 13.061254 
L 289.778837 -1 
L 289.778837 -1 
" clip-path="url(#p64818a1946)" style="fill: none; stroke: #40e0d0; stroke-width: 3.5; stroke-linecap: square"/>
    </g>
   </g>
   <g id="axes_4">
    <g id="patch_5">
     <path d="M 402.605317 519.331506 
L 488.869682 519.331506 
L 488.869682 38.052302 
L 402.605317 38.052302 
z
" style="fill: #ffffff"/>
    </g>
    <g id="matplotlib.axis_5"/>
    <g id="matplotlib.axis_6"/>
    <g id="line2d_5">
     <path d="M 406.526425 640.612756 
L 406.636537 432.265922 
L 406.843624 421.517084 
L 407.047443 416.142665 
L 407.363411 410.768246 
L 407.841066 405.393827 
L 408.544829 400.019409 
L 409.554848 394.64499 
L 410.965961 389.270571 
L 412.883913 383.896152 
L 415.418122 378.521733 
L 418.670627 373.147315 
L 422.7215 367.772896 
L 427.611798 362.398477 
L 433.326071 357.024058 
L 439.777193 351.649639 
L 446.796722 346.275221 
L 461.464816 335.526383 
L 468.414243 330.151964 
L 474.58567 324.777545 
L 479.599303 319.403126 
L 483.131219 314.028708 
L 484.948574 308.654289 
L 484.935381 303.27987 
L 483.104828 297.905451 
L 479.596323 292.531032 
L 474.657975 287.156614 
L 468.61756 281.782195 
L 461.846697 276.407776 
L 447.599702 265.658938 
L 440.773306 260.28452 
L 434.473624 254.910101 
L 428.854398 249.535682 
L 423.996656 244.161263 
L 419.91816 238.786844 
L 416.586933 233.412425 
L 413.936263 228.038007 
L 411.879069 222.663588 
L 410.320164 217.289169 
L 409.165655 211.91475 
L 408.329323 206.540331 
L 407.736253 201.165913 
L 407.324253 195.791494 
L 406.856248 185.042656 
L 406.654207 174.293819 
L 406.542409 152.796143 
L 406.526425 56.056605 
L 406.526425 -1 
L 406.526425 -1 
" clip-path="url(#p27896c5b4c)" style="fill: none; stroke: #40e0d0; stroke-width: 3.5; stroke-linecap: square"/>
    </g>
    <g id="line2d_6">
     <path d="M 406.526425 640.612756 
L 406.625812 469.886853 
L 406.844231 448.389178 
L 407.213867 432.265922 
L 407.624095 421.517084 
L 408.217435 410.768246 
L 409.041292 400.019409 
L 410.13487 389.270571 
L 411.511419 378.521733 
L 413.135266 367.772896 
L 417.422069 340.900802 
L 418.116333 335.526383 
L 418.693775 330.151964 
L 419.134508 324.777545 
L 419.425592 319.403126 
L 419.561944 314.028708 
L 419.546238 308.654289 
L 419.387843 303.27987 
L 419.101038 297.905451 
L 418.211516 287.156614 
L 417.017481 276.407776 
L 414.923903 260.28452 
L 412.121292 238.786844 
L 410.914607 228.038007 
L 409.904642 217.289169 
L 409.095437 206.540331 
L 408.464803 195.791494 
L 407.781302 179.668237 
L 407.321801 163.544981 
L 406.935865 142.047306 
L 406.683688 115.175212 
L 406.552993 72.179861 
L 406.529176 -1 
L 406.529176 -1 
" clip-path="url(#p27896c5b4c)" style="fill: none; stroke: #40e0d0; stroke-width: 3.5; stroke-linecap: square"/>
    </g>
   </g>
   <g id="axes_5">
    <g id="patch_6">
     <path d="M 519.658766 519.331506 
L 605.923131 519.331506 
L 605.923131 38.052302 
L 519.658766 38.052302 
z
" style="fill: #ffffff"/>
    </g>
    <g id="matplotlib.axis_7"/>
    <g id="matplotlib.axis_8"/>
    <g id="line2d_7">
     <path d="M 523.579874 640.612756 
L 523.663082 410.768246 
L 523.918928 394.64499 
L 524.374365 383.896152 
L 524.764673 378.521733 
L 525.315778 373.147315 
L 526.078282 367.772896 
L 527.11168 362.398477 
L 528.482995 357.024058 
L 530.264 351.649639 
L 532.526801 346.275221 
L 535.337747 340.900802 
L 538.749846 335.526383 
L 542.794174 330.151964 
L 547.471088 324.777545 
L 552.742263 319.403126 
L 558.524808 314.028708 
L 564.68862 308.654289 
L 577.41815 297.905451 
L 583.52631 292.531032 
L 589.127243 287.156614 
L 593.971327 281.782195 
L 597.833632 276.407776 
L 600.5318 271.033357 
L 601.940678 265.658938 
L 602.002024 260.28452 
L 600.728209 254.910101 
L 598.19966 249.535682 
L 594.556536 244.161263 
L 589.985837 238.786844 
L 584.705606 233.412425 
L 578.948056 228.038007 
L 561.022173 211.91475 
L 555.445756 206.540331 
L 550.291651 201.165913 
L 545.637114 195.791494 
L 541.523983 190.417075 
L 537.963187 185.042656 
L 534.940441 179.668237 
L 532.422426 174.293819 
L 530.362842 168.9194 
L 528.707911 163.544981 
L 527.40102 158.170562 
L 526.386386 152.796143 
L 525.611712 147.421725 
L 525.029902 142.047306 
L 524.599976 136.672887 
L 524.063563 125.924049 
L 523.79651 115.175212 
L 523.638236 99.051955 
L 523.581539 61.431024 
L 523.579875 -1 
L 523.579875 -1 
" clip-path="url(#pd2fe4e1a9d)" style="fill: none; stroke: #40e0d0; stroke-width: 3.5; stroke-linecap: square"/>
    </g>
    <g id="line2d_8">
     <path d="M 523.579874 640.612756 
L 523.679824 432.265922 
L 523.909052 416.142665 
L 524.249853 405.393827 
L 524.86387 394.64499 
L 525.319412 389.270571 
L 525.902913 383.896152 
L 526.637022 378.521733 
L 527.542977 373.147315 
L 528.638153 367.772896 
L 529.933248 362.398477 
L 531.429297 357.024058 
L 533.114606 351.649639 
L 536.923302 340.900802 
L 540.892016 330.151964 
L 542.694078 324.777545 
L 544.212701 319.403126 
L 545.326934 314.028708 
L 545.938306 308.654289 
L 545.989084 303.27987 
L 545.474105 297.905451 
L 544.442217 292.531032 
L 542.986782 287.156614 
L 541.228335 281.782195 
L 533.511538 260.28452 
L 531.829339 254.910101 
L 530.332601 249.535682 
L 529.03264 244.161263 
L 527.928765 238.786844 
L 527.011168 233.412425 
L 526.263315 228.038007 
L 525.664275 222.663588 
L 524.820962 211.91475 
L 524.309498 201.165913 
L 523.895785 185.042656 
L 523.668039 163.544981 
L 523.584751 125.924049 
L 523.579874 -1 
L 523.579874 -1 
" clip-path="url(#pd2fe4e1a9d)" style="fill: none; stroke: #40e0d0; stroke-width: 3.5; stroke-linecap: square"/>
    </g>
   </g>
   <g id="axes_6">
    <g id="patch_7">
     <path d="M 636.712216 519.331506 
L 722.97658 519.331506 
L 722.97658 38.052302 
L 636.712216 38.052302 
z
" style="fill: #ffffff"/>
    </g>
    <g id="matplotlib.axis_9"/>
    <g id="matplotlib.axis_10"/>
    <g id="line2d_9">
     <path d="M 640.633323 640.612756 
L 640.67846 389.270571 
L 640.791175 383.896152 
L 641.127047 378.521733 
L 642.012758 373.147315 
L 644.072104 367.772896 
L 648.274176 362.398477 
L 655.751684 357.024058 
L 667.248425 351.649639 
L 682.290559 346.275221 
L 698.564595 340.900802 
L 712.175183 335.526383 
L 719.055473 330.151964 
L 716.911066 324.777545 
L 706.448944 319.403126 
L 691.002627 314.028708 
L 674.822198 308.654289 
L 661.216113 303.27987 
L 651.62555 297.905451 
L 645.842077 292.531032 
L 642.824095 287.156614 
L 641.45154 281.782195 
L 640.904832 276.407776 
L 640.713422 271.033357 
L 640.634347 254.910101 
L 640.633323 -1 
L 640.633323 -1 
" clip-path="url(#p705e7dbaef)" style="fill: none; stroke: #40e0d0; stroke-width: 3.5; stroke-linecap: square"/>
    </g>
    <g id="line2d_10">
     <path d="M 640.633323 640.612756 
L 640.703505 383.896152 
L 640.879855 373.147315 
L 641.074697 367.772896 
L 641.395691 362.398477 
L 641.897319 357.024058 
L 642.635252 351.649639 
L 643.650521 346.275221 
L 644.949833 340.900802 
L 646.488329 335.526383 
L 649.8126 324.777545 
L 651.253472 319.403126 
L 652.302979 314.028708 
L 652.827847 308.654289 
L 652.775593 303.27987 
L 652.184336 297.905451 
L 651.16502 292.531032 
L 649.8651 287.156614 
L 645.622517 271.033357 
L 644.403838 265.658938 
L 643.370123 260.28452 
L 642.537858 254.910101 
L 641.902075 249.535682 
L 641.441143 244.161263 
L 640.916811 233.412425 
L 640.71404 222.663588 
L 640.636737 201.165913 
L 640.633323 -1 
L 640.633323 -1 
" clip-path="url(#p705e7dbaef)" style="fill: none; stroke: #40e0d0; stroke-width: 3.5; stroke-linecap: square"/>
    </g>
   </g>
   <g id="axes_7">
    <g id="patch_8">
     <path d="M 753.765665 519.331506 
L 840.030029 519.331506 
L 840.030029 38.052302 
L 753.765665 38.052302 
z
" style="fill: #ffffff"/>
    </g>
    <g id="matplotlib.axis_11"/>
    <g id="matplotlib.axis_12"/>
    <g id="line2d_11">
     <path d="M 757.686772 640.612756 
L 757.796799 367.772896 
L 758.08347 362.398477 
L 758.935606 357.024058 
L 761.114312 351.649639 
L 765.877099 346.275221 
L 774.705612 340.900802 
L 788.405179 335.526383 
L 823.042744 324.777545 
L 834.612659 319.403126 
L 836.108922 314.028708 
L 826.905579 308.654289 
L 810.57164 303.27987 
L 792.659277 297.905451 
L 777.705663 292.531032 
L 767.608013 287.156614 
L 761.945354 281.782195 
L 759.270803 276.407776 
L 758.197695 271.033357 
L 757.829794 265.658938 
L 757.694128 254.910101 
L 757.686772 152.796143 
L 757.686772 -1 
L 757.686772 -1 
" clip-path="url(#p8c42563852)" style="fill: none; stroke: #40e0d0; stroke-width: 3.5; stroke-linecap: square"/>
    </g>
    <g id="line2d_12">
     <path d="M 757.686772 640.612756 
L 757.795769 367.772896 
L 757.937523 362.398477 
L 758.221924 357.024058 
L 758.741635 351.649639 
L 759.603122 346.275221 
L 760.884053 340.900802 
L 762.577346 335.526383 
L 768.400253 319.403126 
L 769.786119 314.028708 
L 770.598266 308.654289 
L 770.752026 303.27987 
L 770.210334 297.905451 
L 769.010068 292.531032 
L 767.287807 287.156614 
L 763.236473 276.407776 
L 761.417486 271.033357 
L 759.974668 265.658938 
L 758.957337 260.28452 
L 758.321525 254.910101 
L 757.97044 249.535682 
L 757.726638 238.786844 
L 757.686807 211.91475 
L 757.686772 -1 
L 757.686772 -1 
" clip-path="url(#p8c42563852)" style="fill: none; stroke: #40e0d0; stroke-width: 3.5; stroke-linecap: square"/>
    </g>
   </g>
   <g id="matplotlib.axis_13">
    <g id="xtick_1">
     <g id="line2d_13">
      <defs>
       <path id="me0e21f1a70" d="M 0 0 
L 0 -8 
" style="stroke: #000000; stroke-width: 3"/>
" style="stroke: #000000; stroke-width: 3"/>
      </defs>
      <g>
       <use xlink:href="#me0e21f1a70" x="168.498419" y="519.331506" style="stroke: #000000; stroke-width: 3"/>
      </g>
     </g>
     <g id="text_1">
      <!-- 5 -->
      <g transform="translate(160.157013 549.804944) scale(0.3 -0.3)">
       <defs>
        <path id="ArialMT-35" d="M 266 1200 
L 856 1250 
Q 922 819 1161 601 
Q 1400 384 1738 384 
Q 2144 384 2425 690 
Q 2706 997 2706 1503 
Q 2706 1984 2436 2262 
Q 2166 2541 1728 2541 
Q 1456 2541 1237 2417 
Q 1019 2294 894 2097 
L 366 2166 
L 809 4519 
L 3088 4519 
L 3088 3981 
L 1259 3981 
L 1013 2750 
Q 1425 3038 1878 3038 
Q 2478 3038 2890 2622 
Q 3303 2206 3303 1553 
Q 3303 931 2941 478 
Q 2500 -78 1738 -78 
Q 1113 -78 717 272 
Q 322 622 266 1200 
z
" transform="scale(0.015625)"/>
       </defs>
       <use xlink:href="#ArialMT-35"/>
      </g>
     </g>
    </g>
    <g id="xtick_2">
     <g id="line2d_14">
      <g>
       <use xlink:href="#me0e21f1a70" x="285.551868" y="519.331506" style="stroke: #000000; stroke-width: 3"/>
      </g>
     </g>
     <g id="text_2">
      <!-- 10 -->
      <g transform="translate(268.869056 549.804944) scale(0.3 -0.3)">
       <defs>
        <path id="ArialMT-31" d="M 2384 0 
L 1822 0 
L 1822 3584 
Q 1619 3391 1289 3197 
Q 959 3003 697 2906 
L 697 3450 
Q 1169 3672 1522 3987 
Q 1875 4303 2022 4600 
L 2384 4600 
L 2384 0 
z
" transform="scale(0.015625)"/>
        <path id="ArialMT-30" d="M 266 2259 
Q 266 3072 433 3567 
Q 600 4063 929 4331 
Q 1259 4600 1759 4600 
Q 2128 4600 2406 4451 
Q 2684 4303 2865 4023 
Q 3047 3744 3150 3342 
Q 3253 2941 3253 2259 
Q 3253 1453 3087 958 
Q 2922 463 2592 192 
Q 2263 -78 1759 -78 
Q 1097 -78 719 397 
Q 266 969 266 2259 
z
M 844 2259 
Q 844 1131 1108 757 
Q 1372 384 1759 384 
Q 2147 384 2411 759 
Q 2675 1134 2675 2259 
Q 2675 3391 2411 3762 
Q 2147 4134 1753 4134 
Q 1366 4134 1134 3806 
Q 844 3388 844 2259 
z
" transform="scale(0.015625)"/>
       </defs>
       <use xlink:href="#ArialMT-31"/>
       <use xlink:href="#ArialMT-30" x="55.615234"/>
      </g>
     </g>
    </g>
    <g id="xtick_3">
     <g id="line2d_15">
      <g>
       <use xlink:href="#me0e21f1a70" x="402.605317" y="519.331506" style="stroke: #000000; stroke-width: 3"/>
      </g>
     </g>
     <g id="text_3">
      <!-- 20 -->
      <g transform="translate(385.922505 549.804944) scale(0.3 -0.3)">
       <defs>
        <path id="ArialMT-32" d="M 3222 541 
L 3222 0 
L 194 0 
Q 188 203 259 391 
Q 375 700 629 1000 
Q 884 1300 1366 1694 
Q 2113 2306 2375 2664 
Q 2638 3022 2638 3341 
Q 2638 3675 2398 3904 
Q 2159 4134 1775 4134 
Q 1369 4134 1125 3890 
Q 881 3647 878 3216 
L 300 3275 
Q 359 3922 746 4261 
Q 1134 4600 1788 4600 
Q 2447 4600 2831 4234 
Q 3216 3869 3216 3328 
Q 3216 3053 3103 2787 
Q 2991 2522 2730 2228 
Q 2469 1934 1863 1422 
Q 1356 997 1212 845 
Q 1069 694 975 541 
L 3222 541 
z
" transform="scale(0.015625)"/>
       </defs>
       <use xlink:href="#ArialMT-32"/>
       <use xlink:href="#ArialMT-30" x="55.615234"/>
      </g>
     </g>
    </g>
    <g id="xtick_4">
     <g id="line2d_16">
      <g>
       <use xlink:href="#me0e21f1a70" x="519.658766" y="519.331506" style="stroke: #000000; stroke-width: 3"/>
      </g>
     </g>
     <g id="text_4">
      <!-- 40 -->
      <g transform="translate(502.975954 549.804944) scale(0.3 -0.3)">
       <defs>
        <path id="ArialMT-34" d="M 2069 0 
L 2069 1097 
L 81 1097 
L 81 1613 
L 2172 4581 
L 2631 4581 
L 2631 1613 
L 3250 1613 
L 3250 1097 
L 2631 1097 
L 2631 0 
L 2069 0 
z
M 2069 1613 
L 2069 3678 
L 634 1613 
L 2069 1613 
z
" transform="scale(0.015625)"/>
       </defs>
       <use xlink:href="#ArialMT-34"/>
       <use xlink:href="#ArialMT-30" x="55.615234"/>
      </g>
     </g>
    </g>
    <g id="xtick_5">
     <g id="line2d_17">
      <g>
       <use xlink:href="#me0e21f1a70" x="636.712216" y="519.331506" style="stroke: #000000; stroke-width: 3"/>
      </g>
     </g>
     <g id="text_5">
      <!-- 80 -->
      <g transform="translate(620.029403 549.804944) scale(0.3 -0.3)">
       <defs>
        <path id="ArialMT-38" d="M 1131 2484 
Q 781 2613 612 2850 
Q 444 3088 444 3419 
Q 444 3919 803 4259 
Q 1163 4600 1759 4600 
Q 2359 4600 2725 4251 
Q 3091 3903 3091 3403 
Q 3091 3084 2923 2848 
Q 2756 2613 2416 2484 
Q 2838 2347 3058 2040 
Q 3278 1734 3278 1309 
Q 3278 722 2862 322 
Q 2447 -78 1769 -78 
Q 1091 -78 675 323 
Q 259 725 259 1325 
Q 259 1772 486 2073 
Q 713 2375 1131 2484 
z
M 1019 3438 
Q 1019 3113 1228 2906 
Q 1438 2700 1772 2700 
Q 2097 2700 2305 2904 
Q 2513 3109 2513 3406 
Q 2513 3716 2298 3927 
Q 2084 4138 1766 4138 
Q 1444 4138 1231 3931 
Q 1019 3725 1019 3438 
z
M 838 1322 
Q 838 1081 952 856 
Q 1066 631 1291 507 
Q 1516 384 1775 384 
Q 2178 384 2440 643 
Q 2703 903 2703 1303 
Q 2703 1709 2433 1975 
Q 2163 2241 1756 2241 
Q 1359 2241 1098 1978 
Q 838 1716 838 1322 
z
" transform="scale(0.015625)"/>
       </defs>
       <use xlink:href="#ArialMT-38"/>
       <use xlink:href="#ArialMT-30" x="55.615234"/>
      </g>
     </g>
    </g>
    <g id="xtick_6">
     <g id="line2d_18">
      <g>
       <use xlink:href="#me0e21f1a70" x="753.765665" y="519.331506" style="stroke: #000000; stroke-width: 3"/>
      </g>
     </g>
     <g id="text_6">
      <!-- 160 -->
      <g transform="translate(728.741446 549.804944) scale(0.3 -0.3)">
       <defs>
        <path id="ArialMT-36" d="M 3184 3459 
L 2625 3416 
Q 2550 3747 2413 3897 
Q 2184 4138 1850 4138 
Q 1581 4138 1378 3988 
Q 1113 3794 959 3422 
Q 806 3050 800 2363 
Q 1003 2672 1297 2822 
Q 1591 2972 1913 2972 
Q 2475 2972 2870 2558 
Q 3266 2144 3266 1488 
Q 3266 1056 3080 686 
Q 2894 316 2569 119 
Q 2244 -78 1831 -78 
Q 1128 -78 684 439 
Q 241 956 241 2144 
Q 241 3472 731 4075 
Q 1159 4600 1884 4600 
Q 2425 4600 2770 4297 
Q 3116 3994 3184 3459 
z
M 888 1484 
Q 888 1194 1011 928 
Q 1134 663 1356 523 
Q 1578 384 1822 384 
Q 2178 384 2434 671 
Q 2691 959 2691 1453 
Q 2691 1928 2437 2201 
Q 2184 2475 1800 2475 
Q 1419 2475 1153 2201 
Q 888 1928 888 1484 
z
" transform="scale(0.015625)"/>
       </defs>
       <use xlink:href="#ArialMT-31"/>
       <use xlink:href="#ArialMT-36" x="55.615234"/>
       <use xlink:href="#ArialMT-30" x="111.230469"/>
      </g>
     </g>
    </g>
    <g id="xtick_7">
     <g id="line2d_19">
      <defs>
       <path id="m77619923be" d="M 0 0 
L 0 2 
" style="stroke: #000000; stroke-width: 0.6"/>
" style="stroke: #000000; stroke-width: 0.6"/>
      </defs>
      <g>
       <use xlink:href="#m77619923be" x="130.815625" y="519.331506" style="stroke: #000000; stroke-width: 0.6"/>
      </g>
     </g>
    </g>
    <g id="xtick_8">
     <g id="line2d_20">
      <g>
       <use xlink:href="#m77619923be" x="199.287503" y="519.331506" style="stroke: #000000; stroke-width: 0.6"/>
      </g>
     </g>
    </g>
    <g id="xtick_9">
     <g id="line2d_21">
      <g>
       <use xlink:href="#m77619923be" x="225.319303" y="519.331506" style="stroke: #000000; stroke-width: 0.6"/>
      </g>
     </g>
    </g>
    <g id="xtick_10">
     <g id="line2d_22">
      <g>
       <use xlink:href="#m77619923be" x="247.869074" y="519.331506" style="stroke: #000000; stroke-width: 0.6"/>
      </g>
     </g>
    </g>
    <g id="xtick_11">
     <g id="line2d_23">
      <g>
       <use xlink:href="#m77619923be" x="267.759382" y="519.331506" style="stroke: #000000; stroke-width: 0.6"/>
      </g>
     </g>
    </g>
    <g id="xtick_12">
     <g id="line2d_24">
      <g>
       <use xlink:href="#m77619923be" x="471.077196" y="519.331506" style="stroke: #000000; stroke-width: 0.6"/>
      </g>
     </g>
    </g>
    <g id="xtick_13">
     <g id="line2d_25">
      <g>
       <use xlink:href="#m77619923be" x="557.34156" y="519.331506" style="stroke: #000000; stroke-width: 0.6"/>
      </g>
     </g>
    </g>
    <g id="xtick_14">
     <g id="line2d_26">
      <g>
       <use xlink:href="#m77619923be" x="588.130645" y="519.331506" style="stroke: #000000; stroke-width: 0.6"/>
      </g>
     </g>
    </g>
    <g id="xtick_15">
     <g id="line2d_27">
      <g>
       <use xlink:href="#m77619923be" x="614.162445" y="519.331506" style="stroke: #000000; stroke-width: 0.6"/>
      </g>
     </g>
    </g>
    <g id="xtick_16">
     <g id="line2d_28">
      <g>
       <use xlink:href="#m77619923be" x="656.602523" y="519.331506" style="stroke: #000000; stroke-width: 0.6"/>
      </g>
     </g>
    </g>
    <g id="xtick_17">
     <g id="line2d_29">
      <g>
       <use xlink:href="#m77619923be" x="791.448459" y="519.331506" style="stroke: #000000; stroke-width: 0.6"/>
      </g>
     </g>
    </g>
    <g id="xtick_18">
     <g id="line2d_30">
      <g>
       <use xlink:href="#m77619923be" x="859.920337" y="519.331506" style="stroke: #000000; stroke-width: 0.6"/>
      </g>
     </g>
    </g>
    <g id="text_7">
     <!-- Average number of detected mergers -->
     <g transform="translate(211.532384 596.24635) scale(0.35 -0.35)">
      <defs>
       <path id="ArialMT-41" d="M -9 0 
L 1750 4581 
L 2403 4581 
L 4278 0 
L 3588 0 
L 3053 1388 
L 1138 1388 
L 634 0 
L -9 0 
z
M 1313 1881 
L 2866 1881 
L 2388 3150 
Q 2169 3728 2063 4100 
Q 1975 3659 1816 3225 
L 1313 1881 
z
" transform="scale(0.015625)"/>
       <path id="ArialMT-76" d="M 1344 0 
L 81 3319 
L 675 3319 
L 1388 1331 
Q 1503 1009 1600 663 
Q 1675 925 1809 1294 
L 2547 3319 
L 3125 3319 
L 1869 0 
L 1344 0 
z
" transform="scale(0.015625)"/>
       <path id="ArialMT-65" d="M 2694 1069 
L 3275 997 
Q 3138 488 2766 206 
Q 2394 -75 1816 -75 
Q 1088 -75 661 373 
Q 234 822 234 1631 
Q 234 2469 665 2931 
Q 1097 3394 1784 3394 
Q 2450 3394 2872 2941 
Q 3294 2488 3294 1666 
Q 3294 1616 3291 1516 
L 816 1516 
Q 847 969 1125 678 
Q 1403 388 1819 388 
Q 2128 388 2347 550 
Q 2566 713 2694 1069 
z
M 847 1978 
L 2700 1978 
Q 2663 2397 2488 2606 
Q 2219 2931 1791 2931 
Q 1403 2931 1139 2672 
Q 875 2413 847 1978 
z
" transform="scale(0.015625)"/>
       <path id="ArialMT-72" d="M 416 0 
L 416 3319 
L 922 3319 
L 922 2816 
Q 1116 3169 1280 3281 
Q 1444 3394 1641 3394 
Q 1925 3394 2219 3213 
L 2025 2691 
Q 1819 2813 1613 2813 
Q 1428 2813 1281 2702 
Q 1134 2591 1072 2394 
Q 978 2094 978 1738 
L 978 0 
L 416 0 
z
" transform="scale(0.015625)"/>
       <path id="ArialMT-61" d="M 2588 409 
Q 2275 144 1986 34 
Q 1697 -75 1366 -75 
Q 819 -75 525 192 
Q 231 459 231 875 
Q 231 1119 342 1320 
Q 453 1522 633 1644 
Q 813 1766 1038 1828 
Q 1203 1872 1538 1913 
Q 2219 1994 2541 2106 
Q 2544 2222 2544 2253 
Q 2544 2597 2384 2738 
Q 2169 2928 1744 2928 
Q 1347 2928 1158 2789 
Q 969 2650 878 2297 
L 328 2372 
Q 403 2725 575 2942 
Q 747 3159 1072 3276 
Q 1397 3394 1825 3394 
Q 2250 3394 2515 3294 
Q 2781 3194 2906 3042 
Q 3031 2891 3081 2659 
Q 3109 2516 3109 2141 
L 3109 1391 
Q 3109 606 3145 398 
Q 3181 191 3288 0 
L 2700 0 
Q 2613 175 2588 409 
z
M 2541 1666 
Q 2234 1541 1622 1453 
Q 1275 1403 1131 1340 
Q 988 1278 909 1158 
Q 831 1038 831 891 
Q 831 666 1001 516 
Q 1172 366 1500 366 
Q 1825 366 2078 508 
Q 2331 650 2450 897 
Q 2541 1088 2541 1459 
L 2541 1666 
z
" transform="scale(0.015625)"/>
       <path id="ArialMT-67" d="M 319 -275 
L 866 -356 
Q 900 -609 1056 -725 
Q 1266 -881 1628 -881 
Q 2019 -881 2231 -725 
Q 2444 -569 2519 -288 
Q 2563 -116 2559 434 
Q 2191 0 1641 0 
Q 956 0 581 494 
Q 206 988 206 1678 
Q 206 2153 378 2554 
Q 550 2956 876 3175 
Q 1203 3394 1644 3394 
Q 2231 3394 2613 2919 
L 2613 3319 
L 3131 3319 
L 3131 450 
Q 3131 -325 2973 -648 
Q 2816 -972 2473 -1159 
Q 2131 -1347 1631 -1347 
Q 1038 -1347 672 -1080 
Q 306 -813 319 -275 
z
M 784 1719 
Q 784 1066 1043 766 
Q 1303 466 1694 466 
Q 2081 466 2343 764 
Q 2606 1063 2606 1700 
Q 2606 2309 2336 2618 
Q 2066 2928 1684 2928 
Q 1309 2928 1046 2623 
Q 784 2319 784 1719 
z
" transform="scale(0.015625)"/>
       <path id="ArialMT-20" transform="scale(0.015625)"/>
       <path id="ArialMT-6e" d="M 422 0 
L 422 3319 
L 928 3319 
L 928 2847 
Q 1294 3394 1984 3394 
Q 2284 3394 2536 3286 
Q 2788 3178 2913 3003 
Q 3038 2828 3088 2588 
Q 3119 2431 3119 2041 
L 3119 0 
L 2556 0 
L 2556 2019 
Q 2556 2363 2490 2533 
Q 2425 2703 2258 2804 
Q 2091 2906 1866 2906 
Q 1506 2906 1245 2678 
Q 984 2450 984 1813 
L 984 0 
L 422 0 
z
" transform="scale(0.015625)"/>
       <path id="ArialMT-75" d="M 2597 0 
L 2597 488 
Q 2209 -75 1544 -75 
Q 1250 -75 995 37 
Q 741 150 617 320 
Q 494 491 444 738 
Q 409 903 409 1263 
L 409 3319 
L 972 3319 
L 972 1478 
Q 972 1038 1006 884 
Q 1059 663 1231 536 
Q 1403 409 1656 409 
Q 1909 409 2131 539 
Q 2353 669 2445 892 
Q 2538 1116 2538 1541 
L 2538 3319 
L 3100 3319 
L 3100 0 
L 2597 0 
z
" transform="scale(0.015625)"/>
       <path id="ArialMT-6d" d="M 422 0 
L 422 3319 
L 925 3319 
L 925 2853 
Q 1081 3097 1340 3245 
Q 1600 3394 1931 3394 
Q 2300 3394 2536 3241 
Q 2772 3088 2869 2813 
Q 3263 3394 3894 3394 
Q 4388 3394 4653 3120 
Q 4919 2847 4919 2278 
L 4919 0 
L 4359 0 
L 4359 2091 
Q 4359 2428 4304 2576 
Q 4250 2725 4106 2815 
Q 3963 2906 3769 2906 
Q 3419 2906 3187 2673 
Q 2956 2441 2956 1928 
L 2956 0 
L 2394 0 
L 2394 2156 
Q 2394 2531 2256 2718 
Q 2119 2906 1806 2906 
Q 1569 2906 1367 2781 
Q 1166 2656 1075 2415 
Q 984 2175 984 1722 
L 984 0 
L 422 0 
z
" transform="scale(0.015625)"/>
       <path id="ArialMT-62" d="M 941 0 
L 419 0 
L 419 4581 
L 981 4581 
L 981 2947 
Q 1338 3394 1891 3394 
Q 2197 3394 2470 3270 
Q 2744 3147 2920 2923 
Q 3097 2700 3197 2384 
Q 3297 2069 3297 1709 
Q 3297 856 2875 390 
Q 2453 -75 1863 -75 
Q 1275 -75 941 416 
L 941 0 
z
M 934 1684 
Q 934 1088 1097 822 
Q 1363 388 1816 388 
Q 2184 388 2453 708 
Q 2722 1028 2722 1663 
Q 2722 2313 2464 2622 
Q 2206 2931 1841 2931 
Q 1472 2931 1203 2611 
Q 934 2291 934 1684 
z
" transform="scale(0.015625)"/>
       <path id="ArialMT-6f" d="M 213 1659 
Q 213 2581 725 3025 
Q 1153 3394 1769 3394 
Q 2453 3394 2887 2945 
Q 3322 2497 3322 1706 
Q 3322 1066 3130 698 
Q 2938 331 2570 128 
Q 2203 -75 1769 -75 
Q 1072 -75 642 372 
Q 213 819 213 1659 
z
M 791 1659 
Q 791 1022 1069 705 
Q 1347 388 1769 388 
Q 2188 388 2466 706 
Q 2744 1025 2744 1678 
Q 2744 2294 2464 2611 
Q 2184 2928 1769 2928 
Q 1347 2928 1069 2612 
Q 791 2297 791 1659 
z
" transform="scale(0.015625)"/>
       <path id="ArialMT-66" d="M 556 0 
L 556 2881 
L 59 2881 
L 59 3319 
L 556 3319 
L 556 3672 
Q 556 4006 616 4169 
Q 697 4388 901 4523 
Q 1106 4659 1475 4659 
Q 1713 4659 2000 4603 
L 1916 4113 
Q 1741 4144 1584 4144 
Q 1328 4144 1222 4034 
Q 1116 3925 1116 3625 
L 1116 3319 
L 1763 3319 
L 1763 2881 
L 1116 2881 
L 1116 0 
L 556 0 
z
" transform="scale(0.015625)"/>
       <path id="ArialMT-64" d="M 2575 0 
L 2575 419 
Q 2259 -75 1647 -75 
Q 1250 -75 917 144 
Q 584 363 401 755 
Q 219 1147 219 1656 
Q 219 2153 384 2558 
Q 550 2963 881 3178 
Q 1213 3394 1622 3394 
Q 1922 3394 2156 3267 
Q 2391 3141 2538 2938 
L 2538 4581 
L 3097 4581 
L 3097 0 
L 2575 0 
z
M 797 1656 
Q 797 1019 1065 703 
Q 1334 388 1700 388 
Q 2069 388 2326 689 
Q 2584 991 2584 1609 
Q 2584 2291 2321 2609 
Q 2059 2928 1675 2928 
Q 1300 2928 1048 2622 
Q 797 2316 797 1656 
z
" transform="scale(0.015625)"/>
       <path id="ArialMT-74" d="M 1650 503 
L 1731 6 
Q 1494 -44 1306 -44 
Q 1000 -44 831 53 
Q 663 150 594 308 
Q 525 466 525 972 
L 525 2881 
L 113 2881 
L 113 3319 
L 525 3319 
L 525 4141 
L 1084 4478 
L 1084 3319 
L 1650 3319 
L 1650 2881 
L 1084 2881 
L 1084 941 
Q 1084 700 1114 631 
Q 1144 563 1211 522 
Q 1278 481 1403 481 
Q 1497 481 1650 503 
z
" transform="scale(0.015625)"/>
       <path id="ArialMT-63" d="M 2588 1216 
L 3141 1144 
Q 3050 572 2676 248 
Q 2303 -75 1759 -75 
Q 1078 -75 664 370 
Q 250 816 250 1647 
Q 250 2184 428 2587 
Q 606 2991 970 3192 
Q 1334 3394 1763 3394 
Q 2303 3394 2647 3120 
Q 2991 2847 3088 2344 
L 2541 2259 
Q 2463 2594 2264 2762 
Q 2066 2931 1784 2931 
Q 1359 2931 1093 2626 
Q 828 2322 828 1663 
Q 828 994 1084 691 
Q 1341 388 1753 388 
Q 2084 388 2306 591 
Q 2528 794 2588 1216 
z
" transform="scale(0.015625)"/>
       <path id="ArialMT-73" d="M 197 991 
L 753 1078 
Q 800 744 1014 566 
Q 1228 388 1613 388 
Q 2000 388 2187 545 
Q 2375 703 2375 916 
Q 2375 1106 2209 1216 
Q 2094 1291 1634 1406 
Q 1016 1563 777 1677 
Q 538 1791 414 1992 
Q 291 2194 291 2438 
Q 291 2659 392 2848 
Q 494 3038 669 3163 
Q 800 3259 1026 3326 
Q 1253 3394 1513 3394 
Q 1903 3394 2198 3281 
Q 2494 3169 2634 2976 
Q 2775 2784 2828 2463 
L 2278 2388 
Q 2241 2644 2061 2787 
Q 1881 2931 1553 2931 
Q 1166 2931 1000 2803 
Q 834 2675 834 2503 
Q 834 2394 903 2306 
Q 972 2216 1119 2156 
Q 1203 2125 1616 2013 
Q 2213 1853 2448 1751 
Q 2684 1650 2818 1456 
Q 2953 1263 2953 975 
Q 2953 694 2789 445 
Q 2625 197 2315 61 
Q 2006 -75 1616 -75 
Q 969 -75 630 194 
Q 291 463 197 991 
z
" transform="scale(0.015625)"/>
      </defs>
      <use xlink:href="#ArialMT-41"/>
      <use xlink:href="#ArialMT-76" x="64.949219"/>
      <use xlink:href="#ArialMT-65" x="114.949219"/>
      <use xlink:href="#ArialMT-72" x="170.564453"/>
      <use xlink:href="#ArialMT-61" x="203.865234"/>
      <use xlink:href="#ArialMT-67" x="259.480469"/>
      <use xlink:href="#ArialMT-65" x="315.095703"/>
      <use xlink:href="#ArialMT-20" x="370.710938"/>
      <use xlink:href="#ArialMT-6e" x="398.494141"/>
      <use xlink:href="#ArialMT-75" x="454.109375"/>
      <use xlink:href="#ArialMT-6d" x="509.724609"/>
      <use xlink:href="#ArialMT-62" x="593.025391"/>
      <use xlink:href="#ArialMT-65" x="648.640625"/>
      <use xlink:href="#ArialMT-72" x="704.255859"/>
      <use xlink:href="#ArialMT-20" x="737.556641"/>
      <use xlink:href="#ArialMT-6f" x="765.339844"/>
      <use xlink:href="#ArialMT-66" x="820.955078"/>
      <use xlink:href="#ArialMT-20" x="848.738281"/>
      <use xlink:href="#ArialMT-64" x="876.521484"/>
      <use xlink:href="#ArialMT-65" x="932.136719"/>
      <use xlink:href="#ArialMT-74" x="987.751953"/>
      <use xlink:href="#ArialMT-65" x="1015.535156"/>
      <use xlink:href="#ArialMT-63" x="1071.150391"/>
      <use xlink:href="#ArialMT-74" x="1121.150391"/>
      <use xlink:href="#ArialMT-65" x="1148.933594"/>
      <use xlink:href="#ArialMT-64" x="1204.548828"/>
      <use xlink:href="#ArialMT-20" x="1260.164062"/>
      <use xlink:href="#ArialMT-6d" x="1287.947266"/>
      <use xlink:href="#ArialMT-65" x="1371.248047"/>
      <use xlink:href="#ArialMT-72" x="1426.863281"/>
      <use xlink:href="#ArialMT-67" x="1460.164062"/>
      <use xlink:href="#ArialMT-65" x="1515.779297"/>
      <use xlink:href="#ArialMT-72" x="1571.394531"/>
      <use xlink:href="#ArialMT-73" x="1604.695312"/>
     </g>
    </g>
   </g>
   <g id="matplotlib.axis_2">
    <g id="ytick_1">
     <g id="line2d_31">
      <path d="M 130.815625 519.331506 
L 871.346017 519.331506 
" clip-path="url(#pcbe3260755)" style="fill: none; stroke-dasharray: 2.96,1.28; stroke-dashoffset: 0; stroke: #b0b0b0; stroke-opacity: 0.7; stroke-width: 0.8"/>
     </g>
     <g id="line2d_32">
      <defs>
       <path id="md3e94fef79" d="M 0 0 
L 8 0 
" style="stroke: #000000; stroke-width: 3"/>
" style="stroke: #000000; stroke-width: 3"/>
      </defs>
      <g>
       <use xlink:href="#md3e94fef79" x="130.815625" y="519.331506" style="stroke: #000000; stroke-width: 3"/>
      </g>
     </g>
     <g id="text_8">
      <!-- 60 -->
      <g transform="translate(88.45 530.068225) scale(0.3 -0.3)">
       <use xlink:href="#ArialMT-36"/>
       <use xlink:href="#ArialMT-30" x="55.615234"/>
      </g>
     </g>
    </g>
    <g id="ytick_2">
     <g id="line2d_33">
      <path d="M 130.815625 412.380572 
L 871.346017 412.380572 
" clip-path="url(#pcbe3260755)" style="fill: none; stroke-dasharray: 2.96,1.28; stroke-dashoffset: 0; stroke: #b0b0b0; stroke-opacity: 0.7; stroke-width: 0.8"/>
     </g>
     <g id="line2d_34">
      <g>
       <use xlink:href="#md3e94fef79" x="130.815625" y="412.380572" style="stroke: #000000; stroke-width: 3"/>
      </g>
     </g>
     <g id="text_9">
      <!-- 65 -->
      <g transform="translate(88.45 423.117291) scale(0.3 -0.3)">
       <use xlink:href="#ArialMT-36"/>
       <use xlink:href="#ArialMT-35" x="55.615234"/>
      </g>
     </g>
    </g>
    <g id="ytick_3">
     <g id="line2d_35">
      <path d="M 130.815625 305.429638 
L 871.346017 305.429638 
" clip-path="url(#pcbe3260755)" style="fill: none; stroke-dasharray: 2.96,1.28; stroke-dashoffset: 0; stroke: #b0b0b0; stroke-opacity: 0.7; stroke-width: 0.8"/>
     </g>
     <g id="line2d_36">
      <g>
       <use xlink:href="#md3e94fef79" x="130.815625" y="305.429638" style="stroke: #000000; stroke-width: 3"/>
      </g>
     </g>
     <g id="text_10">
      <!-- 70 -->
      <g transform="translate(88.45 316.166356) scale(0.3 -0.3)">
       <defs>
        <path id="ArialMT-37" d="M 303 3981 
L 303 4522 
L 3269 4522 
L 3269 4084 
Q 2831 3619 2401 2847 
Q 1972 2075 1738 1259 
Q 1569 684 1522 0 
L 944 0 
Q 953 541 1156 1306 
Q 1359 2072 1739 2783 
Q 2119 3494 2547 3981 
L 303 3981 
z
" transform="scale(0.015625)"/>
       </defs>
       <use xlink:href="#ArialMT-37"/>
       <use xlink:href="#ArialMT-30" x="55.615234"/>
      </g>
     </g>
    </g>
    <g id="ytick_4">
     <g id="line2d_37">
      <path d="M 130.815625 198.478703 
L 871.346017 198.478703 
" clip-path="url(#pcbe3260755)" style="fill: none; stroke-dasharray: 2.96,1.28; stroke-dashoffset: 0; stroke: #b0b0b0; stroke-opacity: 0.7; stroke-width: 0.8"/>
     </g>
     <g id="line2d_38">
      <g>
       <use xlink:href="#md3e94fef79" x="130.815625" y="198.478703" style="stroke: #000000; stroke-width: 3"/>
      </g>
     </g>
     <g id="text_11">
      <!-- 75 -->
      <g transform="translate(88.45 209.215422) scale(0.3 -0.3)">
       <use xlink:href="#ArialMT-37"/>
       <use xlink:href="#ArialMT-35" x="55.615234"/>
      </g>
     </g>
    </g>
    <g id="ytick_5">
     <g id="line2d_39">
      <path d="M 130.815625 91.527769 
L 871.346017 91.527769 
" clip-path="url(#pcbe3260755)" style="fill: none; stroke-dasharray: 2.96,1.28; stroke-dashoffset: 0; stroke: #b0b0b0; stroke-opacity: 0.7; stroke-width: 0.8"/>
     </g>
     <g id="line2d_40">
      <g>
       <use xlink:href="#md3e94fef79" x="130.815625" y="91.527769" style="stroke: #000000; stroke-width: 3"/>
      </g>
     </g>
     <g id="text_12">
      <!-- 80 -->
      <g transform="translate(88.45 102.264488) scale(0.3 -0.3)">
       <use xlink:href="#ArialMT-38"/>
       <use xlink:href="#ArialMT-30" x="55.615234"/>
      </g>
     </g>
    </g>
    <g id="text_13">
     <!-- $H_0$ (km s$^{-1}$ Mpc$^{-1}$) -->
     <g transform="translate(65.75 427.091904) rotate(-90) scale(0.35 -0.35)">
      <defs>
       <path id="Cmmi10-48" d="M 300 0 
Q 238 0 238 84 
Q 241 100 250 139 
Q 259 178 276 201 
Q 294 225 319 225 
Q 709 225 863 269 
Q 947 297 984 441 
L 1863 3956 
Q 1875 4019 1875 4044 
Q 1875 4113 1797 4122 
Q 1678 4147 1338 4147 
Q 1275 4147 1275 4231 
Q 1297 4313 1309 4342 
Q 1322 4372 1381 4372 
L 3103 4372 
Q 3169 4372 3169 4288 
Q 3166 4272 3156 4234 
Q 3147 4197 3131 4172 
Q 3116 4147 3084 4147 
Q 2694 4147 2541 4103 
Q 2456 4072 2419 3928 
L 2034 2388 
L 3956 2388 
L 4347 3956 
Q 4359 4019 4359 4044 
Q 4359 4113 4281 4122 
Q 4159 4147 3822 4147 
Q 3756 4147 3756 4231 
Q 3778 4313 3790 4342 
Q 3803 4372 3866 4372 
L 5588 4372 
Q 5650 4372 5650 4288 
Q 5647 4272 5637 4233 
Q 5628 4194 5611 4170 
Q 5594 4147 5569 4147 
Q 5178 4147 5025 4103 
Q 4941 4075 4903 3928 
L 4025 416 
Q 4013 353 4013 325 
Q 4013 259 4091 250 
Q 4213 225 4550 225 
Q 4616 225 4616 141 
Q 4597 66 4578 33 
Q 4559 0 4506 0 
L 2784 0 
Q 2719 0 2719 84 
Q 2731 131 2737 153 
Q 2744 175 2761 200 
Q 2778 225 2803 225 
Q 3194 225 3347 269 
Q 3431 297 3469 441 
L 3897 2163 
L 1978 2163 
L 1544 416 
Q 1528 338 1528 325 
Q 1528 259 1606 250 
Q 1728 225 2069 225 
Q 2131 225 2131 141 
Q 2109 56 2095 28 
Q 2081 0 2022 0 
L 300 0 
z
" transform="scale(0.015625)"/>
       <path id="Cmr10-30" d="M 1600 -141 
Q 816 -141 533 504 
Q 250 1150 250 2041 
Q 250 2597 351 3087 
Q 453 3578 754 3920 
Q 1056 4263 1600 4263 
Q 2022 4263 2290 4056 
Q 2559 3850 2700 3523 
Q 2841 3197 2892 2823 
Q 2944 2450 2944 2041 
Q 2944 1491 2842 1011 
Q 2741 531 2444 195 
Q 2147 -141 1600 -141 
z
M 1600 25 
Q 1956 25 2131 390 
Q 2306 756 2347 1200 
Q 2388 1644 2388 2144 
Q 2388 2625 2347 3031 
Q 2306 3438 2132 3767 
Q 1959 4097 1600 4097 
Q 1238 4097 1063 3765 
Q 888 3434 847 3029 
Q 806 2625 806 2144 
Q 806 1788 823 1472 
Q 841 1156 916 820 
Q 991 484 1158 254 
Q 1325 25 1600 25 
z
" transform="scale(0.015625)"/>
       <path id="ArialMT-28" d="M 1497 -1347 
Q 1031 -759 709 28 
Q 388 816 388 1659 
Q 388 2403 628 3084 
Q 909 3875 1497 4659 
L 1900 4659 
Q 1522 4009 1400 3731 
Q 1209 3300 1100 2831 
Q 966 2247 966 1656 
Q 966 153 1900 -1347 
L 1497 -1347 
z
" transform="scale(0.015625)"/>
       <path id="ArialMT-6b" d="M 425 0 
L 425 4581 
L 988 4581 
L 988 1969 
L 2319 3319 
L 3047 3319 
L 1778 2088 
L 3175 0 
L 2481 0 
L 1384 1697 
L 988 1316 
L 988 0 
L 425 0 
z
" transform="scale(0.015625)"/>
       <path id="Cmsy10-a1" d="M 653 1472 
Q 600 1472 565 1512 
Q 531 1553 531 1600 
Q 531 1647 565 1687 
Q 600 1728 653 1728 
L 4325 1728 
Q 4375 1728 4408 1687 
Q 4441 1647 4441 1600 
Q 4441 1553 4408 1512 
Q 4375 1472 4325 1472 
L 653 1472 
z
" transform="scale(0.015625)"/>
       <path id="Cmr10-31" d="M 594 0 
L 594 225 
Q 1394 225 1394 428 
L 1394 3788 
Q 1063 3628 556 3628 
L 556 3853 
Q 1341 3853 1741 4263 
L 1831 4263 
Q 1853 4263 1873 4245 
Q 1894 4228 1894 4206 
L 1894 428 
Q 1894 225 2694 225 
L 2694 0 
L 594 0 
z
" transform="scale(0.015625)"/>
       <path id="ArialMT-4d" d="M 475 0 
L 475 4581 
L 1388 4581 
L 2472 1338 
Q 2622 884 2691 659 
Q 2769 909 2934 1394 
L 4031 4581 
L 4847 4581 
L 4847 0 
L 4263 0 
L 4263 3834 
L 2931 0 
L 2384 0 
L 1059 3900 
L 1059 0 
L 475 0 
z
" transform="scale(0.015625)"/>
       <path id="ArialMT-70" d="M 422 -1272 
L 422 3319 
L 934 3319 
L 934 2888 
Q 1116 3141 1344 3267 
Q 1572 3394 1897 3394 
Q 2322 3394 2647 3175 
Q 2972 2956 3137 2557 
Q 3303 2159 3303 1684 
Q 3303 1175 3120 767 
Q 2938 359 2589 142 
Q 2241 -75 1856 -75 
Q 1575 -75 1351 44 
Q 1128 163 984 344 
L 984 -1272 
L 422 -1272 
z
M 931 1641 
Q 931 1000 1190 694 
Q 1450 388 1819 388 
Q 2194 388 2461 705 
Q 2728 1022 2728 1688 
Q 2728 2322 2467 2637 
Q 2206 2953 1844 2953 
Q 1484 2953 1207 2617 
Q 931 2281 931 1641 
z
" transform="scale(0.015625)"/>
       <path id="ArialMT-29" d="M 791 -1347 
L 388 -1347 
Q 1322 153 1322 1656 
Q 1322 2244 1188 2822 
Q 1081 3291 891 3722 
Q 769 4003 388 4659 
L 791 4659 
Q 1378 3875 1659 3084 
Q 1900 2403 1900 1659 
Q 1900 816 1576 28 
Q 1253 -759 791 -1347 
z
" transform="scale(0.015625)"/>
      </defs>
      <use xlink:href="#Cmmi10-48" transform="translate(0 0.109375)"/>
      <use xlink:href="#Cmr10-30" transform="translate(83.105469 -16.896875) scale(0.7)"/>
      <use xlink:href="#ArialMT-20" transform="translate(124.482812 0.109375)"/>
      <use xlink:href="#ArialMT-28" transform="translate(152.266016 0.109375)"/>
      <use xlink:href="#ArialMT-6b" transform="translate(185.566797 0.109375)"/>
      <use xlink:href="#ArialMT-6d" transform="translate(235.566797 0.109375)"/>
      <use xlink:href="#ArialMT-20" transform="translate(318.867578 0.109375)"/>
      <use xlink:href="#ArialMT-73" transform="translate(346.650781 0.109375)"/>
      <use xlink:href="#Cmsy10-a1" transform="translate(401.114922 38.373438) scale(0.7)"/>
      <use xlink:href="#Cmr10-31" transform="translate(455.494805 38.373438) scale(0.7)"/>
      <use xlink:href="#ArialMT-20" transform="translate(496.872148 0.109375)"/>
      <use xlink:href="#ArialMT-4d" transform="translate(524.655352 0.109375)"/>
      <use xlink:href="#ArialMT-70" transform="translate(607.956133 0.109375)"/>
      <use xlink:href="#ArialMT-63" transform="translate(663.571367 0.109375)"/>
      <use xlink:href="#Cmsy10-a1" transform="translate(718.035508 38.373438) scale(0.7)"/>
      <use xlink:href="#Cmr10-31" transform="translate(772.415391 38.373438) scale(0.7)"/>
      <use xlink:href="#ArialMT-29" transform="translate(813.792734 0.109375)"/>
     </g>
    </g>
   </g>
   <g id="LineCollection_1">
    <path d="M 168.498419 427.760384 
L 168.498419 159.676679 
" clip-path="url(#pcbe3260755)" style="fill: none; stroke: #1f77b4; stroke-width: 1.5"/>
   </g>
   <g id="LineCollection_2">
    <path d="M 168.498419 427.760384 
L 188.388726 427.760384 
" clip-path="url(#pcbe3260755)" style="fill: none; stroke: #1f77b4; stroke-width: 1.5"/>
    <path d="M 168.498419 293.718532 
L 188.388726 293.718532 
" clip-path="url(#pcbe3260755)" style="fill: none; stroke: #1f77b4; stroke-width: 1.5"/>
    <path d="M 168.498419 159.676679 
L 188.388726 159.676679 
" clip-path="url(#pcbe3260755)" style="fill: none; stroke: #1f77b4; stroke-width: 1.5"/>
   </g>
   <g id="LineCollection_3">
    <path d="M 285.551868 380.343866 
L 285.551868 216.70607 
" clip-path="url(#pcbe3260755)" style="fill: none; stroke: #1f77b4; stroke-width: 1.5"/>
   </g>
   <g id="LineCollection_4">
    <path d="M 285.551868 380.343866 
L 305.442176 380.343866 
" clip-path="url(#pcbe3260755)" style="fill: none; stroke: #1f77b4; stroke-width: 1.5"/>
    <path d="M 285.551868 298.524968 
L 305.442176 298.524968 
" clip-path="url(#pcbe3260755)" style="fill: none; stroke: #1f77b4; stroke-width: 1.5"/>
    <path d="M 285.551868 216.70607 
L 305.442176 216.70607 
" clip-path="url(#pcbe3260755)" style="fill: none; stroke: #1f77b4; stroke-width: 1.5"/>
   </g>
   <g id="LineCollection_5">
    <path d="M 402.605317 359.627085 
L 402.605317 246.532172 
" clip-path="url(#pcbe3260755)" style="fill: none; stroke: #1f77b4; stroke-width: 1.5"/>
   </g>
   <g id="LineCollection_6">
    <path d="M 402.605317 359.627085 
L 422.495625 359.627085 
" clip-path="url(#pcbe3260755)" style="fill: none; stroke: #1f77b4; stroke-width: 1.5"/>
    <path d="M 402.605317 303.079629 
L 422.495625 303.079629 
" clip-path="url(#pcbe3260755)" style="fill: none; stroke: #1f77b4; stroke-width: 1.5"/>
    <path d="M 402.605317 246.532172 
L 422.495625 246.532172 
" clip-path="url(#pcbe3260755)" style="fill: none; stroke: #1f77b4; stroke-width: 1.5"/>
   </g>
   <g id="LineCollection_7">
    <path d="M 519.658766 342.841048 
L 519.658766 266.408063 
" clip-path="url(#pcbe3260755)" style="fill: none; stroke: #1f77b4; stroke-width: 1.5"/>
   </g>
   <g id="LineCollection_8">
    <path d="M 519.658766 342.841048 
L 539.549074 342.841048 
" clip-path="url(#pcbe3260755)" style="fill: none; stroke: #1f77b4; stroke-width: 1.5"/>
    <path d="M 519.658766 304.624555 
L 539.549074 304.624555 
" clip-path="url(#pcbe3260755)" style="fill: none; stroke: #1f77b4; stroke-width: 1.5"/>
    <path d="M 519.658766 266.408063 
L 539.549074 266.408063 
" clip-path="url(#pcbe3260755)" style="fill: none; stroke: #1f77b4; stroke-width: 1.5"/>
   </g>
   <g id="LineCollection_9">
    <path d="M 636.712216 329.617647 
L 636.712216 279.076908 
" clip-path="url(#pcbe3260755)" style="fill: none; stroke: #1f77b4; stroke-width: 1.5"/>
   </g>
   <g id="LineCollection_10">
    <path d="M 636.712216 329.617647 
L 656.602523 329.617647 
" clip-path="url(#pcbe3260755)" style="fill: none; stroke: #1f77b4; stroke-width: 1.5"/>
    <path d="M 636.712216 304.347277 
L 656.602523 304.347277 
" clip-path="url(#pcbe3260755)" style="fill: none; stroke: #1f77b4; stroke-width: 1.5"/>
    <path d="M 636.712216 279.076908 
L 656.602523 279.076908 
" clip-path="url(#pcbe3260755)" style="fill: none; stroke: #1f77b4; stroke-width: 1.5"/>
   </g>
   <g id="LineCollection_11">
    <path d="M 753.765665 325.774495 
L 753.765665 284.457046 
" clip-path="url(#pcbe3260755)" style="fill: none; stroke: #1f77b4; stroke-width: 1.5"/>
   </g>
   <g id="LineCollection_12">
    <path d="M 753.765665 325.774495 
L 773.655972 325.774495 
" clip-path="url(#pcbe3260755)" style="fill: none; stroke: #1f77b4; stroke-width: 1.5"/>
    <path d="M 753.765665 305.11577 
L 773.655972 305.11577 
" clip-path="url(#pcbe3260755)" style="fill: none; stroke: #1f77b4; stroke-width: 1.5"/>
    <path d="M 753.765665 284.457046 
L 773.655972 284.457046 
" clip-path="url(#pcbe3260755)" style="fill: none; stroke: #1f77b4; stroke-width: 1.5"/>
   </g>
   <g id="line2d_41">
    <path d="M 51.44497 130.407341 
L 71.654276 140.572814 
L 89.701529 149.150651 
L 106.00495 156.515278 
L 120.872043 162.928118 
L 134.535525 168.577969 
L 147.175767 173.605043 
L 158.935407 178.115941 
L 169.929193 182.193353 
L 189.97773 189.295774 
L 207.896693 195.296631 
L 224.095365 200.454082 
L 238.875315 204.948821 
L 258.870829 210.724921 
L 276.747434 215.607228 
L 292.911489 219.804773 
L 312.306582 224.583288 
L 329.701849 228.641799 
L 349.194 232.947973 
L 369.955009 237.269212 
L 391.334239 241.450044 
L 412.853088 245.399252 
L 434.17792 249.072327 
L 455.087552 252.455574 
L 477.177932 255.809493 
L 499.756573 259.01821 
L 523.64716 262.18773 
L 548.010946 265.197205 
L 573.252312 268.094368 
L 599.442276 270.880078 
L 627.154794 273.60174 
L 655.816532 276.191291 
L 685.918611 278.684454 
L 717.385921 281.063716 
L 750.183347 283.318567 
L 784.763281 285.470369 
L 821.051861 287.503679 
L 859.370057 289.426308 
L 870.819114 289.959706 
L 870.819114 289.959706 
" clip-path="url(#pcbe3260755)" style="fill: none; stroke-dasharray: 15,15; stroke-dashoffset: 0; stroke: #ff0000; stroke-width: 3"/>
   </g>
   <g id="line2d_42">
    <path d="M 51.44497 480.451934 
L 71.654276 470.286461 
L 89.701529 461.708624 
L 106.00495 454.343997 
L 120.872043 447.931157 
L 134.535525 442.281306 
L 147.175767 437.254232 
L 158.935407 432.743334 
L 169.929193 428.665922 
L 189.97773 421.563501 
L 207.896693 415.562644 
L 224.095365 410.405193 
L 238.875315 405.910454 
L 258.870829 400.134355 
L 276.747434 395.252047 
L 292.911489 391.054503 
L 312.306582 386.275988 
L 329.701849 382.217476 
L 349.194 377.911302 
L 369.955009 373.590063 
L 391.334239 369.409231 
L 412.853088 365.460023 
L 434.17792 361.786948 
L 455.087552 358.403701 
L 477.177932 355.049782 
L 499.756573 351.841066 
L 523.64716 348.671546 
L 548.010946 345.66207 
L 573.252312 342.764907 
L 599.442276 339.979198 
L 627.154794 337.257535 
L 655.816532 334.667984 
L 685.918611 332.174821 
L 717.385921 329.79556 
L 750.183347 327.540708 
L 784.763281 325.388906 
L 821.051861 323.355596 
L 859.370057 321.432967 
L 870.819114 320.899569 
L 870.819114 320.899569 
" clip-path="url(#pcbe3260755)" style="fill: none; stroke-dasharray: 15,15; stroke-dashoffset: 0; stroke: #ff0000; stroke-width: 3"/>
   </g>
   <g id="line2d_43"/>
   <g id="line2d_44"/>
   <g id="LineCollection_13">
    <path d="M 130.815625 305.429638 
L 871.346017 305.429638 
" clip-path="url(#pcbe3260755)" style="fill: none; stroke: #0000ff; stroke-width: 1.5"/>
   </g>
   <g id="patch_9">
    <path d="M 130.815625 519.331506 
L 130.815625 38.052302 
" style="fill: none; stroke: #000000; stroke-width: 3; stroke-linejoin: miter; stroke-linecap: square"/>
   </g>
   <g id="patch_10">
    <path d="M 871.346017 519.331506 
L 871.346017 38.052302 
" style="fill: none; stroke: #000000; stroke-width: 3; stroke-linejoin: miter; stroke-linecap: square"/>
   </g>
   <g id="patch_11">
    <path d="M 130.815625 519.331506 
L 871.346017 519.331506 
" style="fill: none; stroke: #000000; stroke-width: 3; stroke-linejoin: miter; stroke-linecap: square"/>
   </g>
   <g id="patch_12">
    <path d="M 130.815625 38.052302 
L 871.346017 38.052302 
" style="fill: none; stroke: #000000; stroke-width: 3; stroke-linejoin: miter; stroke-linecap: square"/>
   </g>
   <g id="legend_1">
    <g id="patch_13">
     <path d="M 389.677019 175.216875 
L 869.877019 175.216875 
Q 875.477019 175.216875 875.477019 169.616875 
L 875.477019 41.6 
Q 875.477019 36 869.877019 36 
L 389.677019 36 
Q 384.077019 36 384.077019 41.6 
L 384.077019 169.616875 
Q 384.077019 175.216875 389.677019 175.216875 
z
" style="fill: #ffffff; stroke: #cccccc; stroke-linejoin: miter"/>
    </g>
    <g id="line2d_45">
     <path d="M 395.277019 67.08 
L 423.277019 67.08 
L 451.277019 67.08 
" style="fill: none; stroke-dasharray: 15,15; stroke-dashoffset: 0; stroke: #ff0000; stroke-width: 3"/>
    </g>
    <g id="text_14">
     <!-- $\sigma = \alpha/\sqrt{N}$ fit, $\alpha=18.5\%\pm0.7\%$ -->
     <g transform="translate(473.677019 76.88) scale(0.28 -0.28)">
      <defs>
       <path id="DejaVuSans-302" d="M -1831 5119 
L -1369 5119 
L -603 3944 
L -1038 3944 
L -1600 4709 
L -2163 3944 
L -2597 3944 
L -1831 5119 
z
M -1600 3584 
L -1600 3584 
z
" transform="scale(0.015625)"/>
       <path id="DejaVuSans-Oblique-3c3" d="M 2219 3044 
Q 1744 3044 1422 2700 
Q 1081 2341 969 1747 
Q 844 1119 1044 756 
Q 1241 397 1706 397 
Q 2166 397 2503 759 
Q 2844 1122 2966 1747 
Q 3075 2319 2881 2700 
Q 2700 3044 2219 3044 
z
M 2309 3503 
L 4219 3500 
L 4106 2925 
L 3463 2925 
Q 3706 2438 3575 1747 
Q 3406 888 2884 400 
Q 2359 -91 1609 -91 
Q 856 -91 525 400 
Q 194 888 363 1747 
Q 528 2609 1050 3097 
Q 1484 3503 2309 3503 
z
" transform="scale(0.015625)"/>
       <path id="DejaVuSans-Oblique-48" d="M 1081 4666 
L 1716 4666 
L 1344 2753 
L 3634 2753 
L 4006 4666 
L 4641 4666 
L 3731 0 
L 3097 0 
L 3531 2222 
L 1241 2222 
L 806 0 
L 172 0 
L 1081 4666 
z
" transform="scale(0.015625)"/>
       <path id="DejaVuSans-28" d="M 1984 4856 
Q 1566 4138 1362 3434 
Q 1159 2731 1159 2009 
Q 1159 1288 1364 580 
Q 1569 -128 1984 -844 
L 1484 -844 
Q 1016 -109 783 600 
Q 550 1309 550 2009 
Q 550 2706 781 3412 
Q 1013 4119 1484 4856 
L 1984 4856 
z
" transform="scale(0.015625)"/>
       <path id="DejaVuSans-6b" d="M 581 4863 
L 1159 4863 
L 1159 1991 
L 2875 3500 
L 3609 3500 
L 1753 1863 
L 3688 0 
L 2938 0 
L 1159 1709 
L 1159 0 
L 581 0 
L 581 4863 
z
" transform="scale(0.015625)"/>
       <path id="DejaVuSans-2212" d="M 678 2272 
L 4684 2272 
L 4684 1741 
L 678 1741 
L 678 2272 
z
" transform="scale(0.015625)"/>
       <path id="ArialMT-69" d="M 425 3934 
L 425 4581 
L 988 4581 
L 988 3934 
L 425 3934 
z
M 425 0 
L 425 3319 
L 988 3319 
L 988 0 
L 425 0 
z
" transform="scale(0.015625)"/>
       <path id="ArialMT-2c" d="M 569 0 
L 569 641 
L 1209 641 
L 1209 0 
Q 1209 -353 1084 -570 
Q 959 -788 688 -906 
L 531 -666 
Q 709 -588 793 -436 
Q 878 -284 888 0 
L 569 0 
z
" transform="scale(0.015625)"/>
       <path id="Cmr10-38" d="M 269 972 
Q 269 1356 522 1651 
Q 775 1947 1172 2144 
L 934 2297 
Q 716 2441 578 2680 
Q 441 2919 441 3181 
Q 441 3488 602 3734 
Q 763 3981 1030 4122 
Q 1297 4263 1600 4263 
Q 1884 4263 2148 4147 
Q 2413 4031 2583 3815 
Q 2753 3600 2753 3303 
Q 2753 3088 2651 2903 
Q 2550 2719 2373 2572 
Q 2197 2425 1997 2322 
L 2363 2088 
Q 2616 1922 2770 1653 
Q 2925 1384 2925 1088 
Q 2925 741 2739 456 
Q 2553 172 2247 15 
Q 1941 -141 1600 -141 
Q 1269 -141 961 -6 
Q 653 128 461 383 
Q 269 638 269 972 
z
M 3116 1747 
Q 3116 2381 2855 2742 
Q 2594 3103 2138 3103 
Q 1681 3103 1420 2742 
Q 1159 2381 1159 1747 
Q 1159 1113 1420 752 
Q 1681 391 2138 391 
Q 2594 391 2855 752 
Q 3116 1113 3116 1747 
z
" transform="scale(0.015625)"/>
       <path id="DejaVuSans-29" d="M 513 4856 
L 1013 4856 
Q 1481 4119 1714 3412 
Q 1947 2706 1947 2009 
Q 1947 1309 1714 600 
Q 1481 -109 1013 -844 
L 513 -844 
Q 928 -128 1133 580 
Q 1338 1288 1338 2009 
Q 1338 2731 1133 3434 
Q 928 4138 513 4856 
z
" transform="scale(0.015625)"/>
      </defs>
      <use xlink:href="#DejaVuSans-302" transform="translate(64.422852 12.015625)"/>
      <use xlink:href="#DejaVuSans-Oblique-3c3" transform="translate(0 0.78125)"/>
      <use xlink:href="#DejaVuSans-Oblique-48" transform="translate(64.335938 -15.625) scale(0.7)"/>
      <use xlink:href="#DejaVuSans-30" transform="translate(116.972656 -27.109375) scale(0.49)"/>
      <use xlink:href="#DejaVuSans-20" transform="translate(152.796387 0.78125)"/>
      <use xlink:href="#DejaVuSans-28" transform="translate(184.583496 0.78125)"/>
      <use xlink:href="#DejaVuSans-6b" transform="translate(223.597168 0.78125)"/>
      <use xlink:href="#DejaVuSans-6d" transform="translate(281.507324 0.78125)"/>
      <use xlink:href="#DejaVuSans-20" transform="translate(378.919434 0.78125)"/>
      <use xlink:href="#DejaVuSans-73" transform="translate(410.706543 0.78125)"/>
      <use xlink:href="#DejaVuSans-2212" transform="translate(463.763184 39.0625) scale(0.7)"/>
      <use xlink:href="#DejaVuSans-31" transform="translate(522.415527 39.0625) scale(0.7)"/>
      <use xlink:href="#DejaVuSans-20" transform="translate(569.686035 0.78125)"/>
      <use xlink:href="#DejaVuSans-4d" transform="translate(601.473145 0.78125)"/>
      <use xlink:href="#DejaVuSans-70" transform="translate(687.752441 0.78125)"/>
      <use xlink:href="#DejaVuSans-63" transform="translate(751.229004 0.78125)"/>
      <use xlink:href="#DejaVuSans-2212" transform="translate(807.166504 39.0625) scale(0.7)"/>
      <use xlink:href="#DejaVuSans-31" transform="translate(865.818848 39.0625) scale(0.7)"/>
      <use xlink:href="#DejaVuSans-29" transform="translate(913.089355 0.78125)"/>
     </g>
    </g>
   </g>
   <g id="line2d_60">
    <path d="M 185.586364 122.860169 
L 299.31085 171.564529 
L 356.754059 196.165518 
L 395.490513 212.755034 
L 424.75589 225.288407 
L 448.283436 235.364462 
L 467.958449 243.790606 
L 484.866853 251.031905 
L 499.691644 257.380863 
L 512.890465 263.033472 
L 524.784995 268.127498 
L 535.609986 272.763477 
L 545.542012 277.017028 
L 554.717236 280.946467 
L 563.24287 284.597708 
L 571.204843 288.007553 
L 578.673088 291.20595 
L 585.705278 294.2176 
L 592.349537 297.063112 
L 598.646437 299.759862 
L 604.630501 302.322634 
L 610.331346 304.764114 
L 615.774574 307.095265 
L 620.982465 309.325629 
L 625.974529 311.463561 
L 630.767944 313.516419 
L 635.377916 315.490715 
L 639.817971 317.392241 
L 644.100191 319.226171 
L 648.235411 320.997146 
L 652.233392 322.709346 
L 656.10295 324.366548 
L 659.85208 325.972173 
L 663.488051 327.529337 
L 667.017495 329.040879 
L 670.446478 330.509397 
L 673.780559 331.937271 
L 677.024851 333.326692 
L 680.184064 334.679676 
L 683.262545 335.998086 
L 686.264319 337.283644 
L 689.193116 338.537949 
L 692.052399 339.762483 
L 694.845392 340.958628 
L 697.575099 342.12767 
L 700.244325 343.270809 
L 702.855692 344.38917 
L 705.411655 345.483802 
L 707.914517 346.555693 
L 710.366438 347.605769 
L 712.769452 348.634898 
L 715.12547 349.643902 
L 717.436297 350.633551 
L 719.703633 351.604574 
L 721.929085 352.55766 
L 724.114173 353.49346 
L 726.260334 354.412588 
L 728.368932 355.315629 
L 730.441258 356.203137 
L 732.47854 357.075636 
L 734.481943 357.933626 
L 736.452575 358.777581 
L 738.391491 359.607953 
L 740.299696 360.425173 
L 742.178148 361.229651 
L 744.027761 362.021777 
L 745.849406 362.801926 
L 747.643916 363.570455 
L 749.412089 364.327703 
L 751.154686 365.073999 
L 752.872436 365.809653 
L 754.566039 366.534966 
L 756.236163 367.250224 
L 757.883451 367.955702 
L 759.508518 368.651663 
L 761.111957 369.338362 
L 762.694335 370.016041 
L 764.256199 370.684935 
L 765.798073 371.345268 
L 767.320464 371.997256 
L 768.823856 372.641108 
L 770.308719 373.277025 
L 771.775503 373.905199 
L 773.224644 374.525818 
L 774.656562 375.139059 
L 776.071659 375.745098 
L 777.470328 376.344101 
L 778.852945 376.936229 
L 780.219875 377.521639 
L 781.571469 378.100481 
L 782.908067 378.672901 
L 784.23 379.23904 
L 785.537585 379.799035 
L 786.83113 380.353016 
L 788.110934 380.901113 
L 789.377286 381.443449 
L 790.630465 381.980143 
L 791.870742 382.511312 
L 793.098381 383.037068 
L 794.313636 383.557521 
" clip-path="url(#p9bfb985682)" style="fill: none; stroke-dasharray: 5.55,2.4; stroke-dashoffset: 0; stroke: #ff0000; stroke-width: 1.5"/>
   </g>
   <g id="LineCollection_1">
    <path d="M 198.279737 159.68159 
L 198.279737 56.16 
" clip-path="url(#p9bfb985682)" style="fill: none; stroke: #1e90ff; stroke-width: 1.5"/>
    <path d="M 281.787072 215.282284 
L 281.787072 96.97949 
" clip-path="url(#p9bfb985682)" style="fill: none; stroke: #1e90ff; stroke-width: 1.5"/>
    <path d="M 365.294407 242.747312 
L 365.294407 155.517092 
" clip-path="url(#p9bfb985682)" style="fill: none; stroke: #1e90ff; stroke-width: 1.5"/>
    <path d="M 448.801743 267.568022 
L 448.801743 208.847719 
" clip-path="url(#p9bfb985682)" style="fill: none; stroke: #1e90ff; stroke-width: 1.5"/>
    <path d="M 532.309078 312.8479 
L 532.309078 247.164424 
" clip-path="url(#p9bfb985682)" style="fill: none; stroke: #1e90ff; stroke-width: 1.5"/>
    <path d="M 615.816413 356.640383 
L 615.816413 284.450089 
" clip-path="url(#p9bfb985682)" style="fill: none; stroke: #1e90ff; stroke-width: 1.5"/>
    <path d="M 699.323748 405.603926 
L 699.323748 313.652157 
" clip-path="url(#p9bfb985682)" style="fill: none; stroke: #1e90ff; stroke-width: 1.5"/>
    <path d="M 782.831084 459.36 
L 782.831084 352.665401 
" clip-path="url(#p9bfb985682)" style="fill: none; stroke: #1e90ff; stroke-width: 1.5"/>
   </g>
   <g id="line2d_61">
    <defs>
     <path id="mea70e5c1a7" d="M 5 0 
L -5 -0 
" style="stroke: #1e90ff"/>
    </defs>
    <g clip-path="url(#p9bfb985682)">
     <use xlink:href="#mea70e5c1a7" x="198.279737" y="159.68159" style="fill: #1e90ff; stroke: #1e90ff"/>
     <use xlink:href="#mea70e5c1a7" x="281.787072" y="215.282284" style="fill: #1e90ff; stroke: #1e90ff"/>
     <use xlink:href="#mea70e5c1a7" x="365.294407" y="242.747312" style="fill: #1e90ff; stroke: #1e90ff"/>
     <use xlink:href="#mea70e5c1a7" x="448.801743" y="267.568022" style="fill: #1e90ff; stroke: #1e90ff"/>
     <use xlink:href="#mea70e5c1a7" x="532.309078" y="312.8479" style="fill: #1e90ff; stroke: #1e90ff"/>
     <use xlink:href="#mea70e5c1a7" x="615.816413" y="356.640383" style="fill: #1e90ff; stroke: #1e90ff"/>
     <use xlink:href="#mea70e5c1a7" x="699.323748" y="405.603926" style="fill: #1e90ff; stroke: #1e90ff"/>
     <use xlink:href="#mea70e5c1a7" x="782.831084" y="459.36" style="fill: #1e90ff; stroke: #1e90ff"/>
    </g>
   </g>
   <g id="line2d_62">
    <g clip-path="url(#p9bfb985682)">
     <use xlink:href="#mea70e5c1a7" x="198.279737" y="56.16" style="fill: #1e90ff; stroke: #1e90ff"/>
     <use xlink:href="#mea70e5c1a7" x="281.787072" y="96.97949" style="fill: #1e90ff; stroke: #1e90ff"/>
     <use xlink:href="#mea70e5c1a7" x="365.294407" y="155.517092" style="fill: #1e90ff; stroke: #1e90ff"/>
     <use xlink:href="#mea70e5c1a7" x="448.801743" y="208.847719" style="fill: #1e90ff; stroke: #1e90ff"/>
     <use xlink:href="#mea70e5c1a7" x="532.309078" y="247.164424" style="fill: #1e90ff; stroke: #1e90ff"/>
     <use xlink:href="#mea70e5c1a7" x="615.816413" y="284.450089" style="fill: #1e90ff; stroke: #1e90ff"/>
     <use xlink:href="#mea70e5c1a7" x="699.323748" y="313.652157" style="fill: #1e90ff; stroke: #1e90ff"/>
     <use xlink:href="#mea70e5c1a7" x="782.831084" y="352.665401" style="fill: #1e90ff; stroke: #1e90ff"/>
    </g>
   </g>
   <g id="line2d_63">
    <defs>
     <path id="m111cc5dc39" d="M -0 4.242641 
L 2.545584 0 
L 0 -4.242641 
L -2.545584 -0 
z
" style="stroke: #000000; stroke-linejoin: miter"/>
    </defs>
    <g clip-path="url(#p9bfb985682)">
     <use xlink:href="#m111cc5dc39" x="198.279737" y="95.449601" style="stroke: #000000; stroke-linejoin: miter"/>
     <use xlink:href="#m111cc5dc39" x="281.787072" y="140.031896" style="stroke: #000000; stroke-linejoin: miter"/>
     <use xlink:href="#m111cc5dc39" x="365.294407" y="190.176992" style="stroke: #000000; stroke-linejoin: miter"/>
     <use xlink:href="#m111cc5dc39" x="448.801743" y="234.086238" style="stroke: #000000; stroke-linejoin: miter"/>
     <use xlink:href="#m111cc5dc39" x="532.309078" y="274.865957" style="stroke: #000000; stroke-linejoin: miter"/>
     <use xlink:href="#m111cc5dc39" x="615.816413" y="314.35708" style="stroke: #000000; stroke-linejoin: miter"/>
     <use xlink:href="#m111cc5dc39" x="699.323748" y="349.707915" style="stroke: #000000; stroke-linejoin: miter"/>
     <use xlink:href="#m111cc5dc39" x="782.831084" y="392.796829" style="stroke: #000000; stroke-linejoin: miter"/>
    </g>
   </g>
   <g id="patch_3">
    <path d="M 155.15 479.52 
L 155.15 36 
" style="fill: none; stroke: #000000; stroke-width: 3; stroke-linejoin: miter; stroke-linecap: square"/>
   </g>
   <g id="patch_4">
    <path d="M 824.75 479.52 
L 824.75 36 
" style="fill: none; stroke: #000000; stroke-width: 3; stroke-linejoin: miter; stroke-linecap: square"/>
   </g>
   <g id="patch_5">
    <path d="M 155.15 479.52 
L 824.75 479.52 
" style="fill: none; stroke: #000000; stroke-width: 3; stroke-linejoin: miter; stroke-linecap: square"/>
   </g>
   <g id="patch_6">
    <path d="M 155.15 36 
L 824.75 36 
" style="fill: none; stroke: #000000; stroke-width: 3; stroke-linejoin: miter; stroke-linecap: square"/>
   </g>
   <g id="legend_1">
    <g id="patch_7">
     <path d="M 650.87 162 
L 805.15 162 
Q 810.75 162 810.75 156.4 
L 810.75 55.6 
Q 810.75 50 805.15 50 
L 650.87 50 
Q 645.27 50 645.27 55.6 
L 645.27 156.4 
Q 645.27 162 650.87 162 
z
" style="fill: #ffffff; stroke: #cccccc; stroke-linejoin: miter"/>
    </g>
    <g id="line2d_64">
     <path d="M 656.47 74.92 
L 684.47 74.92 
L 712.47 74.92 
" style="fill: none; stroke-dasharray: 5.55,2.4; stroke-dashoffset: 0; stroke: #ff0000; stroke-width: 1.5"/>
    </g>
    <g id="text_13">
     <!-- $\frac{\alpha}{\sqrt{N}}$ -->
     <g transform="translate(734.87 84.72) scale(0.28 -0.28)">
      <defs>
       <path id="DejaVuSans-Oblique-3b1" d="M 2619 1628 
L 2622 2350 
Q 2625 3088 2069 3091 
Q 1653 3094 1394 2747 
Q 1069 2319 959 1747 
Q 825 1059 994 731 
Q 1169 397 1547 397 
Q 1966 397 2319 1063 
L 2619 1628 
z
M 2166 3578 
Q 3141 3594 3128 2584 
Q 3128 2584 3616 3500 
L 4128 3500 
L 3119 1603 
L 3109 919 
Q 3109 766 3194 638 
Q 3291 488 3391 488 
L 3669 488 
L 3575 0 
L 3228 0 
Q 2934 0 2722 263 
Q 2622 394 2619 669 
Q 2416 334 2066 50 
Q 1900 -81 1453 -78 
Q 722 -72 456 397 
Q 184 884 353 1747 
Q 534 2675 1009 3097 
Q 1544 3569 2166 3578 
z
" transform="scale(0.015625)"/>
       <path id="STIXSizeOneSym-Regular-221a" d="M 6970 9933 
L 3373 -1888 
L 3104 -1888 
L 1626 2918 
Q 1555 3149 1465 3251 
Q 1376 3354 1229 3354 
Q 1011 3354 794 3181 
L 717 3309 
L 1766 4115 
L 1926 4115 
L 3379 -602 
L 3405 -602 
L 6605 9933 
L 6970 9933 
z
" transform="scale(0.015625)"/>
       <path id="DejaVuSans-Oblique-4e" d="M 1081 4666 
L 1931 4666 
L 3219 666 
L 4000 4666 
L 4616 4666 
L 3706 0 
L 2853 0 
L 1569 4025 
L 788 0 
L 172 0 
L 1081 4666 
z
" transform="scale(0.015625)"/>
      </defs>
      <use xlink:href="#Cmmi10-be" transform="translate(0 0.4375)"/>
      <use xlink:href="#Cmr10-3d" transform="translate(74.638672 0.4375)"/>
      <use xlink:href="#Cmmi10-ae" transform="translate(169.882812 0.4375)"/>
      <use xlink:href="#Cmmi10-3d" transform="translate(233.798828 0.4375)"/>
      <use xlink:href="#Cmex10-70" transform="translate(283.798828 96.671875) scale(0.829579)"/>
      <use xlink:href="#Cmmi10-4e" transform="translate(379.251953 0.4375)"/>
      <use xlink:href="#ArialMT-20" transform="translate(472.074219 0.4375)"/>
      <use xlink:href="#ArialMT-66" transform="translate(499.857422 0.4375)"/>
      <use xlink:href="#ArialMT-69" transform="translate(527.640625 0.4375)"/>
      <use xlink:href="#ArialMT-74" transform="translate(549.857422 0.4375)"/>
      <use xlink:href="#ArialMT-2c" transform="translate(577.640625 0.4375)"/>
      <use xlink:href="#ArialMT-20" transform="translate(605.423828 0.4375)"/>
      <use xlink:href="#Cmmi10-ae" transform="translate(633.207031 0.4375)"/>
      <use xlink:href="#Cmr10-3d" transform="translate(714.681641 0.4375)"/>
      <use xlink:href="#Cmr10-31" transform="translate(809.925781 0.4375)"/>
      <use xlink:href="#Cmr10-38" transform="translate(859.925781 0.4375)"/>
      <use xlink:href="#Cmmi10-3a" transform="translate(909.925781 0.4375)"/>
      <use xlink:href="#Cmr10-35" transform="translate(937.611328 0.4375)"/>
      <use xlink:href="#Cmr10-25" transform="translate(987.611328 0.4375)"/>
      <use xlink:href="#Cmsy10-a7" transform="translate(1088.470703 0.4375)"/>
      <use xlink:href="#Cmr10-30" transform="translate(1183.714844 0.4375)"/>
      <use xlink:href="#Cmmi10-3a" transform="translate(1233.714844 0.4375)"/>
      <use xlink:href="#Cmr10-37" transform="translate(1261.400391 0.4375)"/>
      <use xlink:href="#Cmr10-25" transform="translate(1311.400391 0.4375)"/>
      <path d="M 366.751953 93.5 
L 366.751953 99.75 
L 472.074219 99.75 
L 472.074219 93.5 
L 366.751953 93.5 
z
"/>
     </g>
    </g>
    <g id="line2d_46">
     <path d="M 395.277019 108.121875 
L 423.277019 108.121875 
L 451.277019 108.121875 
" style="fill: none; stroke: #40e0d0; stroke-width: 1.5; stroke-linecap: square"/>
    </g>
    <g id="text_15">
     <!-- Average posteriors -->
     <g transform="translate(473.677019 117.921875) scale(0.28 -0.28)">
      <use xlink:href="#ArialMT-41"/>
      <use xlink:href="#ArialMT-76" x="64.949219"/>
      <use xlink:href="#ArialMT-65" x="114.949219"/>
      <use xlink:href="#ArialMT-72" x="170.564453"/>
      <use xlink:href="#ArialMT-61" x="203.865234"/>
      <use xlink:href="#ArialMT-67" x="259.480469"/>
      <use xlink:href="#ArialMT-65" x="315.095703"/>
      <use xlink:href="#ArialMT-20" x="370.710938"/>
      <use xlink:href="#ArialMT-70" x="398.494141"/>
      <use xlink:href="#ArialMT-6f" x="454.109375"/>
      <use xlink:href="#ArialMT-73" x="509.724609"/>
      <use xlink:href="#ArialMT-74" x="559.724609"/>
      <use xlink:href="#ArialMT-65" x="587.507812"/>
      <use xlink:href="#ArialMT-72" x="643.123047"/>
      <use xlink:href="#ArialMT-69" x="676.423828"/>
      <use xlink:href="#ArialMT-6f" x="698.640625"/>
      <use xlink:href="#ArialMT-72" x="754.255859"/>
      <use xlink:href="#ArialMT-73" x="787.556641"/>
     </g>
    </g>
    <g id="line2d_47">
     <path d="M 395.277019 148.056875 
L 423.277019 148.056875 
L 451.277019 148.056875 
" style="fill: none; stroke: #ffffff; stroke-width: 1.5; stroke-linecap: square"/>
    </g>
    <g id="text_16">
     <!-- $\mu\pm 1\sigma$ -->
     <g transform="translate(473.677019 157.856875) scale(0.28 -0.28)">
      <defs>
       <path id="DejaVuSans-27e8" d="M 572 2006 
L 1453 4856 
L 1984 4856 
L 1103 2006 
L 1984 -844 
L 1453 -844 
L 572 2006 
z
" transform="scale(0.015625)"/>
       <path id="DejaVuSans-27e9" d="M 1925 2006 
L 1044 -844 
L 513 -844 
L 1394 2006 
L 513 4856 
L 1044 4856 
L 1925 2006 
z
" transform="scale(0.015625)"/>
      </defs>
      <use xlink:href="#DejaVuSans-27e8" transform="translate(0 0.78125)"/>
      <use xlink:href="#DejaVuSans-302" transform="translate(103.436523 12.015625)"/>
      <use xlink:href="#DejaVuSans-Oblique-3c3" transform="translate(39.013672 0.78125)"/>
      <use xlink:href="#DejaVuSans-Oblique-48" transform="translate(103.349609 -15.625) scale(0.7)"/>
      <use xlink:href="#DejaVuSans-30" transform="translate(155.986328 -27.109375) scale(0.49)"/>
      <use xlink:href="#DejaVuSans-27e9" transform="translate(191.810059 0.78125)"/>
     </g>
    </g>
   </g>
  </g>
 </g>
 <defs>
  <clipPath id="p04817483a6">
   <rect x="168.498419" y="38.052302" width="86.264365" height="481.279205"/>
  </clipPath>
  <clipPath id="p64818a1946">
   <rect x="285.551868" y="38.052302" width="86.264365" height="481.279205"/>
  </clipPath>
  <clipPath id="p27896c5b4c">
   <rect x="402.605317" y="38.052302" width="86.264365" height="481.279205"/>
  </clipPath>
  <clipPath id="pd2fe4e1a9d">
   <rect x="519.658766" y="38.052302" width="86.264365" height="481.279205"/>
  </clipPath>
  <clipPath id="p705e7dbaef">
   <rect x="636.712216" y="38.052302" width="86.264365" height="481.279205"/>
  </clipPath>
  <clipPath id="p8c42563852">
   <rect x="753.765665" y="38.052302" width="86.264365" height="481.279205"/>
  </clipPath>
  <clipPath id="pcbe3260755">
   <rect x="130.815625" y="38.052302" width="740.530392" height="481.279205"/>
  </clipPath>
 </defs>
</svg>
