<?xml version="1.0" encoding="utf-8" standalone="no"?>
<!DOCTYPE svg PUBLIC "-//W3C//DTD SVG 1.1//EN"
  "http://www.w3.org/Graphics/SVG/1.1/DTD/svg11.dtd">
<svg xmlns:xlink="http://www.w3.org/1999/xlink" width="868.296875pt" height="785.678125pt" viewBox="0 0 868.296875 785.678125" xmlns="http://www.w3.org/2000/svg" version="1.1">
 <metadata>
  <rdf:RDF xmlns:dc="http://purl.org/dc/elements/1.1/" xmlns:cc="http://creativecommons.org/ns#" xmlns:rdf="http://www.w3.org/1999/02/22-rdf-syntax-ns#">
   <cc:Work>
    <dc:type rdf:resource="http://purl.org/dc/dcmitype/StillImage"/>
    <dc:date>2024-03-21T20:03:17.852260</dc:date>
    <dc:format>image/svg+xml</dc:format>
    <dc:creator>
     <cc:Agent>
      <dc:title>Matplotlib v3.8.0, https://matplotlib.org/</dc:title>
     </cc:Agent>
    </dc:creator>
   </cc:Work>
  </rdf:RDF>
 </metadata>
 <defs>
  <style type="text/css">*{stroke-linejoin: round; stroke-linecap: butt}</style>
 </defs>
 <g id="figure_1">
  <g id="patch_1">
   <path d="M 0 785.678125 
L 868.296875 785.678125 
L 868.296875 0 
L 0 0 
z
" style="fill: #ffffff"/>
  </g>
  <g id="axes_1">
   <g id="patch_2">
    <path d="M 143.609375 281.19375 
L 813.209375 281.19375 
L 813.209375 96.39375 
L 143.609375 96.39375 
z
" style="fill: #ffffff"/>
   </g>
   <g id="matplotlib.axis_1">
    <g id="xtick_1">
     <g id="line2d_1">
      <defs>
       <path id="m70fd20c97a" d="M 0 0 
L 0 -8 
" style="stroke: #000000; stroke-width: 3"/>
      </defs>
      <g>
       <use xlink:href="#m70fd20c97a" x="143.609375" y="281.19375" style="stroke: #000000; stroke-width: 3"/>
      </g>
     </g>
    </g>
    <g id="xtick_2">
     <g id="line2d_2">
      <g>
       <use xlink:href="#m70fd20c97a" x="311.009375" y="281.19375" style="stroke: #000000; stroke-width: 3"/>
      </g>
     </g>
    </g>
    <g id="xtick_3">
     <g id="line2d_3">
      <g>
       <use xlink:href="#m70fd20c97a" x="478.409375" y="281.19375" style="stroke: #000000; stroke-width: 3"/>
      </g>
     </g>
    </g>
    <g id="xtick_4">
     <g id="line2d_4">
      <g>
       <use xlink:href="#m70fd20c97a" x="645.809375" y="281.19375" style="stroke: #000000; stroke-width: 3"/>
      </g>
     </g>
    </g>
    <g id="xtick_5">
     <g id="line2d_5">
      <g>
       <use xlink:href="#m70fd20c97a" x="813.209375" y="281.19375" style="stroke: #000000; stroke-width: 3"/>
      </g>
     </g>
    </g>
   </g>
   <g id="matplotlib.axis_2">
    <g id="ytick_1">
     <g id="line2d_6">
      <defs>
       <path id="ma78712c597" d="M 0 0 
L 8 0 
" style="stroke: #000000; stroke-width: 3"/>
      </defs>
      <g>
       <use xlink:href="#ma78712c597" x="143.609375" y="281.19375" style="stroke: #000000; stroke-width: 3"/>
      </g>
     </g>
     <g id="text_1">
      <!-- 0.0 -->
      <g transform="translate(86.9 292.591406) scale(0.3 -0.3)">
       <defs>
        <path id="DejaVuSans-30" d="M 2034 4250 
Q 1547 4250 1301 3770 
Q 1056 3291 1056 2328 
Q 1056 1369 1301 889 
Q 1547 409 2034 409 
Q 2525 409 2770 889 
Q 3016 1369 3016 2328 
Q 3016 3291 2770 3770 
Q 2525 4250 2034 4250 
z
M 2034 4750 
Q 2819 4750 3233 4129 
Q 3647 3509 3647 2328 
Q 3647 1150 3233 529 
Q 2819 -91 2034 -91 
Q 1250 -91 836 529 
Q 422 1150 422 2328 
Q 422 3509 836 4129 
Q 1250 4750 2034 4750 
z
" transform="scale(0.015625)"/>
        <path id="DejaVuSans-2e" d="M 684 794 
L 1344 794 
L 1344 0 
L 684 0 
L 684 794 
z
" transform="scale(0.015625)"/>
       </defs>
       <use xlink:href="#DejaVuSans-30"/>
       <use xlink:href="#DejaVuSans-2e" x="63.623047"/>
       <use xlink:href="#DejaVuSans-30" x="95.410156"/>
      </g>
     </g>
    </g>
    <g id="ytick_2">
     <g id="line2d_7">
      <g>
       <use xlink:href="#ma78712c597" x="143.609375" y="205.765179" style="stroke: #000000; stroke-width: 3"/>
      </g>
     </g>
     <g id="text_2">
      <!-- 0.2 -->
      <g transform="translate(86.9 217.162835) scale(0.3 -0.3)">
       <defs>
        <path id="DejaVuSans-32" d="M 1228 531 
L 3431 531 
L 3431 0 
L 469 0 
L 469 531 
Q 828 903 1448 1529 
Q 2069 2156 2228 2338 
Q 2531 2678 2651 2914 
Q 2772 3150 2772 3378 
Q 2772 3750 2511 3984 
Q 2250 4219 1831 4219 
Q 1534 4219 1204 4116 
Q 875 4013 500 3803 
L 500 4441 
Q 881 4594 1212 4672 
Q 1544 4750 1819 4750 
Q 2544 4750 2975 4387 
Q 3406 4025 3406 3419 
Q 3406 3131 3298 2873 
Q 3191 2616 2906 2266 
Q 2828 2175 2409 1742 
Q 1991 1309 1228 531 
z
" transform="scale(0.015625)"/>
       </defs>
       <use xlink:href="#DejaVuSans-30"/>
       <use xlink:href="#DejaVuSans-2e" x="63.623047"/>
       <use xlink:href="#DejaVuSans-32" x="95.410156"/>
      </g>
     </g>
    </g>
    <g id="ytick_3">
     <g id="line2d_8">
      <g>
       <use xlink:href="#ma78712c597" x="143.609375" y="130.336607" style="stroke: #000000; stroke-width: 3"/>
      </g>
     </g>
     <g id="text_3">
      <!-- 0.4 -->
      <g transform="translate(86.9 141.734263) scale(0.3 -0.3)">
       <defs>
        <path id="DejaVuSans-34" d="M 2419 4116 
L 825 1625 
L 2419 1625 
L 2419 4116 
z
M 2253 4666 
L 3047 4666 
L 3047 1625 
L 3713 1625 
L 3713 1100 
L 3047 1100 
L 3047 0 
L 2419 0 
L 2419 1100 
L 313 1100 
L 313 1709 
L 2253 4666 
z
" transform="scale(0.015625)"/>
       </defs>
       <use xlink:href="#DejaVuSans-30"/>
       <use xlink:href="#DejaVuSans-2e" x="63.623047"/>
       <use xlink:href="#DejaVuSans-34" x="95.410156"/>
      </g>
     </g>
    </g>
   </g>
   <g id="patch_3">
    <path d="M 420.050858 281.19375 
L 420.050858 280.254987 
L 426.776059 280.254987 
L 426.776059 274.622407 
L 433.501259 274.622407 
L 433.501259 268.989826 
L 440.226459 268.989826 
L 440.226459 260.540956 
L 446.951659 260.540956 
L 446.951659 247.39827 
L 453.676859 247.39827 
L 453.676859 205.153919 
L 460.402059 205.153919 
L 460.402059 174.174729 
L 467.12726 174.174729 
L 467.12726 171.358438 
L 473.85246 171.358438 
L 473.85246 142.256775 
L 480.57766 142.256775 
L 480.57766 148.828118 
L 487.30286 148.828118 
L 487.30286 163.848332 
L 494.02806 163.848332 
L 494.02806 206.092682 
L 500.753261 206.092682 
L 500.753261 222.051659 
L 507.478461 222.051659 
L 507.478461 260.540956 
L 514.203661 260.540956 
L 514.203661 266.173536 
L 520.928861 266.173536 
L 520.928861 275.56117 
L 527.654061 275.56117 
L 527.654061 277.438697 
L 534.379261 277.438697 
L 534.379261 280.254987 
L 541.104462 280.254987 
L 541.104462 279.316223 
L 547.829662 279.316223 
L 547.829662 280.254987 
L 554.554862 280.254987 
L 554.554862 281.19375 
" clip-path="url(#p84cfad32c3)" style="fill: url(#h36005986d6); stroke: #e16462; stroke-width: 3; stroke-linejoin: miter"/>
   </g>
   <g id="LineCollection_1">
    <path d="M 478.192442 281.19375 
L 478.192442 96.39375 
" clip-path="url(#p84cfad32c3)" style="fill: none; stroke-dasharray: 11.1,4.8; stroke-dashoffset: 0; stroke: #ff0000; stroke-width: 3"/>
   </g>
   <g id="LineCollection_2">
    <path d="M 478.409375 281.19375 
L 478.409375 96.39375 
" clip-path="url(#p84cfad32c3)" style="fill: none; stroke-dasharray: 11.1,4.8; stroke-dashoffset: 0; stroke: #000000; stroke-width: 3"/>
   </g>
   <g id="patch_4">
    <path d="M 143.609375 281.19375 
L 143.609375 96.39375 
" style="fill: none; stroke: #000000; stroke-width: 3; stroke-linejoin: miter; stroke-linecap: square"/>
   </g>
   <g id="patch_5">
    <path d="M 813.209375 281.19375 
L 813.209375 96.39375 
" style="fill: none; stroke: #000000; stroke-width: 3; stroke-linejoin: miter; stroke-linecap: square"/>
   </g>
   <g id="patch_6">
    <path d="M 143.609375 281.19375 
L 813.209375 281.19375 
" style="fill: none; stroke: #000000; stroke-width: 3; stroke-linejoin: miter; stroke-linecap: square"/>
   </g>
   <g id="patch_7">
    <path d="M 143.609375 96.39375 
L 813.209375 96.39375 
" style="fill: none; stroke: #000000; stroke-width: 3; stroke-linejoin: miter; stroke-linecap: square"/>
   </g>
   <g id="text_4">
    <!-- $\sigma_z = 0.0001$ -->
    <g transform="translate(185.459375 168.050893) scale(0.35 -0.35)">
     <defs>
      <path id="DejaVuSans-Oblique-3c3" d="M 2219 3044 
Q 1744 3044 1422 2700 
Q 1081 2341 969 1747 
Q 844 1119 1044 756 
Q 1241 397 1706 397 
Q 2166 397 2503 759 
Q 2844 1122 2966 1747 
Q 3075 2319 2881 2700 
Q 2700 3044 2219 3044 
z
M 2309 3503 
L 4219 3500 
L 4106 2925 
L 3463 2925 
Q 3706 2438 3575 1747 
Q 3406 888 2884 400 
Q 2359 -91 1609 -91 
Q 856 -91 525 400 
Q 194 888 363 1747 
Q 528 2609 1050 3097 
Q 1484 3503 2309 3503 
z
" transform="scale(0.015625)"/>
      <path id="DejaVuSans-Oblique-7a" d="M 744 3500 
L 3475 3500 
L 3372 2975 
L 738 459 
L 2913 459 
L 2822 0 
L -19 0 
L 84 525 
L 2719 3041 
L 653 3041 
L 744 3500 
z
" transform="scale(0.015625)"/>
      <path id="DejaVuSans-3d" d="M 678 2906 
L 4684 2906 
L 4684 2381 
L 678 2381 
L 678 2906 
z
M 678 1631 
L 4684 1631 
L 4684 1100 
L 678 1100 
L 678 1631 
z
" transform="scale(0.015625)"/>
      <path id="DejaVuSans-31" d="M 794 531 
L 1825 531 
L 1825 4091 
L 703 3866 
L 703 4441 
L 1819 4666 
L 2450 4666 
L 2450 531 
L 3481 531 
L 3481 0 
L 794 0 
L 794 531 
z
" transform="scale(0.015625)"/>
     </defs>
     <use xlink:href="#DejaVuSans-Oblique-3c3" transform="translate(0 0.78125)"/>
     <use xlink:href="#DejaVuSans-Oblique-7a" transform="translate(63.378906 -15.625) scale(0.7)"/>
     <use xlink:href="#DejaVuSans-3d" transform="translate(122.338867 0.78125)"/>
     <use xlink:href="#DejaVuSans-30" transform="translate(225.610352 0.78125)"/>
     <use xlink:href="#DejaVuSans-2e" transform="translate(289.233398 0.78125)"/>
     <use xlink:href="#DejaVuSans-30" transform="translate(321.020508 0.78125)"/>
     <use xlink:href="#DejaVuSans-30" transform="translate(384.643555 0.78125)"/>
     <use xlink:href="#DejaVuSans-30" transform="translate(448.266602 0.78125)"/>
     <use xlink:href="#DejaVuSans-31" transform="translate(511.889648 0.78125)"/>
    </g>
   </g>
   <g id="text_5">
    <!-- Redshift uncertainty -->
    <g transform="translate(275.990625 66.39375) scale(0.4 -0.4)">
     <defs>
      <path id="DejaVuSans-52" d="M 2841 2188 
Q 3044 2119 3236 1894 
Q 3428 1669 3622 1275 
L 4263 0 
L 3584 0 
L 2988 1197 
Q 2756 1666 2539 1819 
Q 2322 1972 1947 1972 
L 1259 1972 
L 1259 0 
L 628 0 
L 628 4666 
L 2053 4666 
Q 2853 4666 3247 4331 
Q 3641 3997 3641 3322 
Q 3641 2881 3436 2590 
Q 3231 2300 2841 2188 
z
M 1259 4147 
L 1259 2491 
L 2053 2491 
Q 2509 2491 2742 2702 
Q 2975 2913 2975 3322 
Q 2975 3731 2742 3939 
Q 2509 4147 2053 4147 
L 1259 4147 
z
" transform="scale(0.015625)"/>
      <path id="DejaVuSans-65" d="M 3597 1894 
L 3597 1613 
L 953 1613 
Q 991 1019 1311 708 
Q 1631 397 2203 397 
Q 2534 397 2845 478 
Q 3156 559 3463 722 
L 3463 178 
Q 3153 47 2828 -22 
Q 2503 -91 2169 -91 
Q 1331 -91 842 396 
Q 353 884 353 1716 
Q 353 2575 817 3079 
Q 1281 3584 2069 3584 
Q 2775 3584 3186 3129 
Q 3597 2675 3597 1894 
z
M 3022 2063 
Q 3016 2534 2758 2815 
Q 2500 3097 2075 3097 
Q 1594 3097 1305 2825 
Q 1016 2553 972 2059 
L 3022 2063 
z
" transform="scale(0.015625)"/>
      <path id="DejaVuSans-64" d="M 2906 2969 
L 2906 4863 
L 3481 4863 
L 3481 0 
L 2906 0 
L 2906 525 
Q 2725 213 2448 61 
Q 2172 -91 1784 -91 
Q 1150 -91 751 415 
Q 353 922 353 1747 
Q 353 2572 751 3078 
Q 1150 3584 1784 3584 
Q 2172 3584 2448 3432 
Q 2725 3281 2906 2969 
z
M 947 1747 
Q 947 1113 1208 752 
Q 1469 391 1925 391 
Q 2381 391 2643 752 
Q 2906 1113 2906 1747 
Q 2906 2381 2643 2742 
Q 2381 3103 1925 3103 
Q 1469 3103 1208 2742 
Q 947 2381 947 1747 
z
" transform="scale(0.015625)"/>
      <path id="DejaVuSans-73" d="M 2834 3397 
L 2834 2853 
Q 2591 2978 2328 3040 
Q 2066 3103 1784 3103 
Q 1356 3103 1142 2972 
Q 928 2841 928 2578 
Q 928 2378 1081 2264 
Q 1234 2150 1697 2047 
L 1894 2003 
Q 2506 1872 2764 1633 
Q 3022 1394 3022 966 
Q 3022 478 2636 193 
Q 2250 -91 1575 -91 
Q 1294 -91 989 -36 
Q 684 19 347 128 
L 347 722 
Q 666 556 975 473 
Q 1284 391 1588 391 
Q 1994 391 2212 530 
Q 2431 669 2431 922 
Q 2431 1156 2273 1281 
Q 2116 1406 1581 1522 
L 1381 1569 
Q 847 1681 609 1914 
Q 372 2147 372 2553 
Q 372 3047 722 3315 
Q 1072 3584 1716 3584 
Q 2034 3584 2315 3537 
Q 2597 3491 2834 3397 
z
" transform="scale(0.015625)"/>
      <path id="DejaVuSans-68" d="M 3513 2113 
L 3513 0 
L 2938 0 
L 2938 2094 
Q 2938 2591 2744 2837 
Q 2550 3084 2163 3084 
Q 1697 3084 1428 2787 
Q 1159 2491 1159 1978 
L 1159 0 
L 581 0 
L 581 4863 
L 1159 4863 
L 1159 2956 
Q 1366 3272 1645 3428 
Q 1925 3584 2291 3584 
Q 2894 3584 3203 3211 
Q 3513 2838 3513 2113 
z
" transform="scale(0.015625)"/>
      <path id="DejaVuSans-69" d="M 603 3500 
L 1178 3500 
L 1178 0 
L 603 0 
L 603 3500 
z
M 603 4863 
L 1178 4863 
L 1178 4134 
L 603 4134 
L 603 4863 
z
" transform="scale(0.015625)"/>
      <path id="DejaVuSans-66" d="M 2375 4863 
L 2375 4384 
L 1825 4384 
Q 1516 4384 1395 4259 
Q 1275 4134 1275 3809 
L 1275 3500 
L 2222 3500 
L 2222 3053 
L 1275 3053 
L 1275 0 
L 697 0 
L 697 3053 
L 147 3053 
L 147 3500 
L 697 3500 
L 697 3744 
Q 697 4328 969 4595 
Q 1241 4863 1831 4863 
L 2375 4863 
z
" transform="scale(0.015625)"/>
      <path id="DejaVuSans-74" d="M 1172 4494 
L 1172 3500 
L 2356 3500 
L 2356 3053 
L 1172 3053 
L 1172 1153 
Q 1172 725 1289 603 
Q 1406 481 1766 481 
L 2356 481 
L 2356 0 
L 1766 0 
Q 1100 0 847 248 
Q 594 497 594 1153 
L 594 3053 
L 172 3053 
L 172 3500 
L 594 3500 
L 594 4494 
L 1172 4494 
z
" transform="scale(0.015625)"/>
      <path id="DejaVuSans-20" transform="scale(0.015625)"/>
      <path id="DejaVuSans-75" d="M 544 1381 
L 544 3500 
L 1119 3500 
L 1119 1403 
Q 1119 906 1312 657 
Q 1506 409 1894 409 
Q 2359 409 2629 706 
Q 2900 1003 2900 1516 
L 2900 3500 
L 3475 3500 
L 3475 0 
L 2900 0 
L 2900 538 
Q 2691 219 2414 64 
Q 2138 -91 1772 -91 
Q 1169 -91 856 284 
Q 544 659 544 1381 
z
M 1991 3584 
L 1991 3584 
z
" transform="scale(0.015625)"/>
      <path id="DejaVuSans-6e" d="M 3513 2113 
L 3513 0 
L 2938 0 
L 2938 2094 
Q 2938 2591 2744 2837 
Q 2550 3084 2163 3084 
Q 1697 3084 1428 2787 
Q 1159 2491 1159 1978 
L 1159 0 
L 581 0 
L 581 3500 
L 1159 3500 
L 1159 2956 
Q 1366 3272 1645 3428 
Q 1925 3584 2291 3584 
Q 2894 3584 3203 3211 
Q 3513 2838 3513 2113 
z
" transform="scale(0.015625)"/>
      <path id="DejaVuSans-63" d="M 3122 3366 
L 3122 2828 
Q 2878 2963 2633 3030 
Q 2388 3097 2138 3097 
Q 1578 3097 1268 2742 
Q 959 2388 959 1747 
Q 959 1106 1268 751 
Q 1578 397 2138 397 
Q 2388 397 2633 464 
Q 2878 531 3122 666 
L 3122 134 
Q 2881 22 2623 -34 
Q 2366 -91 2075 -91 
Q 1284 -91 818 406 
Q 353 903 353 1747 
Q 353 2603 823 3093 
Q 1294 3584 2113 3584 
Q 2378 3584 2631 3529 
Q 2884 3475 3122 3366 
z
" transform="scale(0.015625)"/>
      <path id="DejaVuSans-72" d="M 2631 2963 
Q 2534 3019 2420 3045 
Q 2306 3072 2169 3072 
Q 1681 3072 1420 2755 
Q 1159 2438 1159 1844 
L 1159 0 
L 581 0 
L 581 3500 
L 1159 3500 
L 1159 2956 
Q 1341 3275 1631 3429 
Q 1922 3584 2338 3584 
Q 2397 3584 2469 3576 
Q 2541 3569 2628 3553 
L 2631 2963 
z
" transform="scale(0.015625)"/>
      <path id="DejaVuSans-61" d="M 2194 1759 
Q 1497 1759 1228 1600 
Q 959 1441 959 1056 
Q 959 750 1161 570 
Q 1363 391 1709 391 
Q 2188 391 2477 730 
Q 2766 1069 2766 1631 
L 2766 1759 
L 2194 1759 
z
M 3341 1997 
L 3341 0 
L 2766 0 
L 2766 531 
Q 2569 213 2275 61 
Q 1981 -91 1556 -91 
Q 1019 -91 701 211 
Q 384 513 384 1019 
Q 384 1609 779 1909 
Q 1175 2209 1959 2209 
L 2766 2209 
L 2766 2266 
Q 2766 2663 2505 2880 
Q 2244 3097 1772 3097 
Q 1472 3097 1187 3025 
Q 903 2953 641 2809 
L 641 3341 
Q 956 3463 1253 3523 
Q 1550 3584 1831 3584 
Q 2591 3584 2966 3190 
Q 3341 2797 3341 1997 
z
" transform="scale(0.015625)"/>
      <path id="DejaVuSans-79" d="M 2059 -325 
Q 1816 -950 1584 -1140 
Q 1353 -1331 966 -1331 
L 506 -1331 
L 506 -850 
L 844 -850 
Q 1081 -850 1212 -737 
Q 1344 -625 1503 -206 
L 1606 56 
L 191 3500 
L 800 3500 
L 1894 763 
L 2988 3500 
L 3597 3500 
L 2059 -325 
z
" transform="scale(0.015625)"/>
     </defs>
     <use xlink:href="#DejaVuSans-52"/>
     <use xlink:href="#DejaVuSans-65" x="64.982422"/>
     <use xlink:href="#DejaVuSans-64" x="126.505859"/>
     <use xlink:href="#DejaVuSans-73" x="189.982422"/>
     <use xlink:href="#DejaVuSans-68" x="242.082031"/>
     <use xlink:href="#DejaVuSans-69" x="305.460938"/>
     <use xlink:href="#DejaVuSans-66" x="333.244141"/>
     <use xlink:href="#DejaVuSans-74" x="366.699219"/>
     <use xlink:href="#DejaVuSans-20" x="405.908203"/>
     <use xlink:href="#DejaVuSans-75" x="437.695312"/>
     <use xlink:href="#DejaVuSans-6e" x="501.074219"/>
     <use xlink:href="#DejaVuSans-63" x="564.453125"/>
     <use xlink:href="#DejaVuSans-65" x="619.433594"/>
     <use xlink:href="#DejaVuSans-72" x="680.957031"/>
     <use xlink:href="#DejaVuSans-74" x="722.070312"/>
     <use xlink:href="#DejaVuSans-61" x="761.279297"/>
     <use xlink:href="#DejaVuSans-69" x="822.558594"/>
     <use xlink:href="#DejaVuSans-6e" x="850.341797"/>
     <use xlink:href="#DejaVuSans-74" x="913.720703"/>
     <use xlink:href="#DejaVuSans-79" x="952.929688"/>
    </g>
   </g>
   <g id="legend_1">
    <g id="patch_8">
     <path d="M 498.609375 147.99375 
L 799.209375 147.99375 
Q 803.209375 147.99375 803.209375 143.99375 
L 803.209375 110.39375 
Q 803.209375 106.39375 799.209375 106.39375 
L 498.609375 106.39375 
Q 494.609375 106.39375 494.609375 110.39375 
L 494.609375 143.99375 
Q 494.609375 147.99375 498.609375 147.99375 
z
" style="fill: #ffffff; opacity: 0.8; stroke: #cccccc; stroke-linejoin: miter"/>
    </g>
    <g id="line2d_9">
     <path d="M 502.609375 128.834375 
L 542.609375 128.834375 
" style="fill: none; stroke-dasharray: 11.1,4.8; stroke-dashoffset: 0; stroke: #ff0000; stroke-width: 3"/>
    </g>
    <g id="text_6">
     <!-- $\hat H_0-H_0=-0.01\pm0.03$ -->
     <g transform="translate(558.609375 135.834375) scale(0.2 -0.2)">
      <defs>
       <path id="DejaVuSans-302" d="M -1831 5119 
L -1369 5119 
L -603 3944 
L -1038 3944 
L -1600 4709 
L -2163 3944 
L -2597 3944 
L -1831 5119 
z
M -1600 3584 
L -1600 3584 
z
" transform="scale(0.015625)"/>
       <path id="DejaVuSans-Oblique-48" d="M 1081 4666 
L 1716 4666 
L 1344 2753 
L 3634 2753 
L 4006 4666 
L 4641 4666 
L 3731 0 
L 3097 0 
L 3531 2222 
L 1241 2222 
L 806 0 
L 172 0 
L 1081 4666 
z
" transform="scale(0.015625)"/>
       <path id="DejaVuSans-2212" d="M 678 2272 
L 4684 2272 
L 4684 1741 
L 678 1741 
L 678 2272 
z
" transform="scale(0.015625)"/>
       <path id="DejaVuSans-b1" d="M 2944 4013 
L 2944 2803 
L 4684 2803 
L 4684 2272 
L 2944 2272 
L 2944 1063 
L 2419 1063 
L 2419 2272 
L 678 2272 
L 678 2803 
L 2419 2803 
L 2419 4013 
L 2944 4013 
z
M 678 531 
L 4684 531 
L 4684 0 
L 678 0 
L 678 531 
z
" transform="scale(0.015625)"/>
       <path id="DejaVuSans-33" d="M 2597 2516 
Q 3050 2419 3304 2112 
Q 3559 1806 3559 1356 
Q 3559 666 3084 287 
Q 2609 -91 1734 -91 
Q 1441 -91 1130 -33 
Q 819 25 488 141 
L 488 750 
Q 750 597 1062 519 
Q 1375 441 1716 441 
Q 2309 441 2620 675 
Q 2931 909 2931 1356 
Q 2931 1769 2642 2001 
Q 2353 2234 1838 2234 
L 1294 2234 
L 1294 2753 
L 1863 2753 
Q 2328 2753 2575 2939 
Q 2822 3125 2822 3475 
Q 2822 3834 2567 4026 
Q 2313 4219 1838 4219 
Q 1578 4219 1281 4162 
Q 984 4106 628 3988 
L 628 4550 
Q 988 4650 1302 4700 
Q 1616 4750 1894 4750 
Q 2613 4750 3031 4423 
Q 3450 4097 3450 3541 
Q 3450 3153 3228 2886 
Q 3006 2619 2597 2516 
z
" transform="scale(0.015625)"/>
      </defs>
      <use xlink:href="#DejaVuSans-302" transform="translate(69.03125 30.015625)"/>
      <use xlink:href="#DejaVuSans-Oblique-48" transform="translate(0 0.609375)"/>
      <use xlink:href="#DejaVuSans-30" transform="translate(76.152344 -15.796875) scale(0.7)"/>
      <use xlink:href="#DejaVuSans-2212" transform="translate(142.905273 0.609375)"/>
      <use xlink:href="#DejaVuSans-Oblique-48" transform="translate(246.176758 0.609375)"/>
      <use xlink:href="#DejaVuSans-30" transform="translate(321.37207 -15.796875) scale(0.7)"/>
      <use xlink:href="#DejaVuSans-3d" transform="translate(388.125 0.609375)"/>
      <use xlink:href="#DejaVuSans-2212" transform="translate(510.878906 0.609375)"/>
      <use xlink:href="#DejaVuSans-30" transform="translate(614.150391 0.609375)"/>
      <use xlink:href="#DejaVuSans-2e" transform="translate(677.773438 0.609375)"/>
      <use xlink:href="#DejaVuSans-30" transform="translate(709.560547 0.609375)"/>
      <use xlink:href="#DejaVuSans-31" transform="translate(773.183594 0.609375)"/>
      <use xlink:href="#DejaVuSans-b1" transform="translate(856.289062 0.609375)"/>
      <use xlink:href="#DejaVuSans-30" transform="translate(959.560547 0.609375)"/>
      <use xlink:href="#DejaVuSans-2e" transform="translate(1023.183594 0.609375)"/>
      <use xlink:href="#DejaVuSans-30" transform="translate(1054.970703 0.609375)"/>
      <use xlink:href="#DejaVuSans-33" transform="translate(1118.59375 0.609375)"/>
     </g>
    </g>
   </g>
  </g>
  <g id="axes_2">
   <g id="patch_9">
    <path d="M 143.609375 465.99375 
L 813.209375 465.99375 
L 813.209375 281.19375 
L 143.609375 281.19375 
z
" style="fill: #ffffff"/>
   </g>
   <g id="matplotlib.axis_3">
    <g id="xtick_6">
     <g id="line2d_10">
      <g>
       <use xlink:href="#m70fd20c97a" x="143.609375" y="465.99375" style="stroke: #000000; stroke-width: 3"/>
      </g>
     </g>
    </g>
    <g id="xtick_7">
     <g id="line2d_11">
      <g>
       <use xlink:href="#m70fd20c97a" x="311.009375" y="465.99375" style="stroke: #000000; stroke-width: 3"/>
      </g>
     </g>
    </g>
    <g id="xtick_8">
     <g id="line2d_12">
      <g>
       <use xlink:href="#m70fd20c97a" x="478.409375" y="465.99375" style="stroke: #000000; stroke-width: 3"/>
      </g>
     </g>
    </g>
    <g id="xtick_9">
     <g id="line2d_13">
      <g>
       <use xlink:href="#m70fd20c97a" x="645.809375" y="465.99375" style="stroke: #000000; stroke-width: 3"/>
      </g>
     </g>
    </g>
    <g id="xtick_10">
     <g id="line2d_14">
      <g>
       <use xlink:href="#m70fd20c97a" x="813.209375" y="465.99375" style="stroke: #000000; stroke-width: 3"/>
      </g>
     </g>
    </g>
   </g>
   <g id="matplotlib.axis_4">
    <g id="ytick_4">
     <g id="line2d_15">
      <g>
       <use xlink:href="#ma78712c597" x="143.609375" y="465.99375" style="stroke: #000000; stroke-width: 3"/>
      </g>
     </g>
     <g id="text_7">
      <!-- 0.0 -->
      <g transform="translate(86.9 477.391406) scale(0.3 -0.3)">
       <use xlink:href="#DejaVuSans-30"/>
       <use xlink:href="#DejaVuSans-2e" x="63.623047"/>
       <use xlink:href="#DejaVuSans-30" x="95.410156"/>
      </g>
     </g>
    </g>
    <g id="ytick_5">
     <g id="line2d_16">
      <g>
       <use xlink:href="#ma78712c597" x="143.609375" y="404.39375" style="stroke: #000000; stroke-width: 3"/>
      </g>
     </g>
     <g id="text_8">
      <!-- 0.1 -->
      <g transform="translate(86.9 415.791406) scale(0.3 -0.3)">
       <use xlink:href="#DejaVuSans-30"/>
       <use xlink:href="#DejaVuSans-2e" x="63.623047"/>
       <use xlink:href="#DejaVuSans-31" x="95.410156"/>
      </g>
     </g>
    </g>
    <g id="ytick_6">
     <g id="line2d_17">
      <g>
       <use xlink:href="#ma78712c597" x="143.609375" y="342.79375" style="stroke: #000000; stroke-width: 3"/>
      </g>
     </g>
     <g id="text_9">
      <!-- 0.2 -->
      <g transform="translate(86.9 354.191406) scale(0.3 -0.3)">
       <use xlink:href="#DejaVuSans-30"/>
       <use xlink:href="#DejaVuSans-2e" x="63.623047"/>
       <use xlink:href="#DejaVuSans-32" x="95.410156"/>
      </g>
     </g>
    </g>
    <g id="text_10">
     <!-- $P(\hat{H}_{0}|\text{sample})$ -->
     <g transform="translate(74.5 489.09375) rotate(-90) scale(0.35 -0.35)">
      <defs>
       <path id="DejaVuSans-Oblique-50" d="M 1081 4666 
L 2541 4666 
Q 3178 4666 3512 4369 
Q 3847 4072 3847 3500 
Q 3847 2731 3353 2303 
Q 2859 1875 1966 1875 
L 1172 1875 
L 806 0 
L 172 0 
L 1081 4666 
z
M 1613 4147 
L 1275 2394 
L 2069 2394 
Q 2606 2394 2893 2669 
Q 3181 2944 3181 3456 
Q 3181 3784 2986 3965 
Q 2791 4147 2438 4147 
L 1613 4147 
z
" transform="scale(0.015625)"/>
       <path id="DejaVuSans-28" d="M 1984 4856 
Q 1566 4138 1362 3434 
Q 1159 2731 1159 2009 
Q 1159 1288 1364 580 
Q 1569 -128 1984 -844 
L 1484 -844 
Q 1016 -109 783 600 
Q 550 1309 550 2009 
Q 550 2706 781 3412 
Q 1013 4119 1484 4856 
L 1984 4856 
z
" transform="scale(0.015625)"/>
       <path id="DejaVuSans-7c" d="M 1344 4891 
L 1344 -1509 
L 813 -1509 
L 813 4891 
L 1344 4891 
z
" transform="scale(0.015625)"/>
       <path id="DejaVuSans-6d" d="M 3328 2828 
Q 3544 3216 3844 3400 
Q 4144 3584 4550 3584 
Q 5097 3584 5394 3201 
Q 5691 2819 5691 2113 
L 5691 0 
L 5113 0 
L 5113 2094 
Q 5113 2597 4934 2840 
Q 4756 3084 4391 3084 
Q 3944 3084 3684 2787 
Q 3425 2491 3425 1978 
L 3425 0 
L 2847 0 
L 2847 2094 
Q 2847 2600 2669 2842 
Q 2491 3084 2119 3084 
Q 1678 3084 1418 2786 
Q 1159 2488 1159 1978 
L 1159 0 
L 581 0 
L 581 3500 
L 1159 3500 
L 1159 2956 
Q 1356 3278 1631 3431 
Q 1906 3584 2284 3584 
Q 2666 3584 2933 3390 
Q 3200 3197 3328 2828 
z
" transform="scale(0.015625)"/>
       <path id="DejaVuSans-70" d="M 1159 525 
L 1159 -1331 
L 581 -1331 
L 581 3500 
L 1159 3500 
L 1159 2969 
Q 1341 3281 1617 3432 
Q 1894 3584 2278 3584 
Q 2916 3584 3314 3078 
Q 3713 2572 3713 1747 
Q 3713 922 3314 415 
Q 2916 -91 2278 -91 
Q 1894 -91 1617 61 
Q 1341 213 1159 525 
z
M 3116 1747 
Q 3116 2381 2855 2742 
Q 2594 3103 2138 3103 
Q 1681 3103 1420 2742 
Q 1159 2381 1159 1747 
Q 1159 1113 1420 752 
Q 1681 391 2138 391 
Q 2594 391 2855 752 
Q 3116 1113 3116 1747 
z
" transform="scale(0.015625)"/>
       <path id="DejaVuSans-6c" d="M 603 4863 
L 1178 4863 
L 1178 0 
L 603 0 
L 603 4863 
z
" transform="scale(0.015625)"/>
       <path id="DejaVuSans-29" d="M 513 4856 
L 1013 4856 
Q 1481 4119 1714 3412 
Q 1947 2706 1947 2009 
Q 1947 1309 1714 600 
Q 1481 -109 1013 -844 
L 513 -844 
Q 928 -128 1133 580 
Q 1338 1288 1338 2009 
Q 1338 2731 1133 3434 
Q 928 4138 513 4856 
z
" transform="scale(0.015625)"/>
      </defs>
      <use xlink:href="#DejaVuSans-Oblique-50" transform="translate(0 0.609375)"/>
      <use xlink:href="#DejaVuSans-28" transform="translate(60.302734 0.609375)"/>
      <use xlink:href="#DejaVuSans-302" transform="translate(171.693359 30.015625)"/>
      <use xlink:href="#DejaVuSans-Oblique-48" transform="translate(99.316406 0.609375)"/>
      <use xlink:href="#DejaVuSans-30" transform="translate(175.46875 -15.796875) scale(0.7)"/>
      <use xlink:href="#DejaVuSans-7c" transform="translate(222.739258 0.609375)"/>
      <use xlink:href="#DejaVuSans-73" transform="translate(256.430664 0.609375)"/>
      <use xlink:href="#DejaVuSans-61" transform="translate(308.530273 0.609375)"/>
      <use xlink:href="#DejaVuSans-6d" transform="translate(369.80957 0.609375)"/>
      <use xlink:href="#DejaVuSans-70" transform="translate(467.22168 0.609375)"/>
      <use xlink:href="#DejaVuSans-6c" transform="translate(530.698242 0.609375)"/>
      <use xlink:href="#DejaVuSans-65" transform="translate(558.481445 0.609375)"/>
      <use xlink:href="#DejaVuSans-29" transform="translate(620.004883 0.609375)"/>
     </g>
    </g>
   </g>
   <g id="patch_10">
    <path d="M 314.929963 465.99375 
L 314.929963 465.262869 
L 329.038747 465.262869 
L 329.038747 465.99375 
L 343.147532 465.99375 
L 343.147532 465.262869 
L 357.256316 465.262869 
L 357.256316 463.070227 
L 371.3651 463.070227 
L 371.3651 462.339346 
L 385.473884 462.339346 
L 385.473884 453.568776 
L 399.582668 453.568776 
L 399.582668 449.183491 
L 413.691452 449.183491 
L 413.691452 428.718827 
L 427.800236 428.718827 
L 427.800236 400.214474 
L 441.90902 400.214474 
L 441.90902 356.361624 
L 456.017804 356.361624 
L 456.017804 351.245458 
L 470.126589 351.245458 
L 470.126589 343.936649 
L 484.235373 343.936649 
L 484.235373 366.593956 
L 498.344157 366.593956 
L 498.344157 393.636547 
L 512.452941 393.636547 
L 512.452941 428.718827 
L 526.561725 428.718827 
L 526.561725 441.874682 
L 540.670509 441.874682 
L 540.670509 458.684942 
L 554.779293 458.684942 
L 554.779293 464.531988 
L 568.888077 464.531988 
L 568.888077 465.262869 
L 582.996861 465.262869 
L 582.996861 464.531988 
L 597.105645 464.531988 
L 597.105645 465.99375 
" clip-path="url(#p05137ca9d5)" style="fill: url(#h36005986d6); stroke: #e16462; stroke-width: 3; stroke-linejoin: miter"/>
   </g>
   <g id="LineCollection_3">
    <path d="M 468.219622 465.99375 
L 468.219622 164.15375 
" clip-path="url(#p05137ca9d5)" style="fill: none; stroke-dasharray: 11.1,4.8; stroke-dashoffset: 0; stroke: #ff0000; stroke-width: 3"/>
   </g>
   <g id="LineCollection_4">
    <path d="M 478.409375 465.99375 
L 478.409375 164.15375 
" clip-path="url(#p05137ca9d5)" style="fill: none; stroke-dasharray: 11.1,4.8; stroke-dashoffset: 0; stroke: #000000; stroke-width: 3"/>
   </g>
   <g id="patch_11">
    <path d="M 143.609375 465.99375 
L 143.609375 281.19375 
" style="fill: none; stroke: #000000; stroke-width: 3; stroke-linejoin: miter; stroke-linecap: square"/>
   </g>
   <g id="patch_12">
    <path d="M 813.209375 465.99375 
L 813.209375 281.19375 
" style="fill: none; stroke: #000000; stroke-width: 3; stroke-linejoin: miter; stroke-linecap: square"/>
   </g>
   <g id="patch_13">
    <path d="M 143.609375 465.99375 
L 813.209375 465.99375 
" style="fill: none; stroke: #000000; stroke-width: 3; stroke-linejoin: miter; stroke-linecap: square"/>
   </g>
   <g id="patch_14">
    <path d="M 143.609375 281.19375 
L 813.209375 281.19375 
" style="fill: none; stroke: #000000; stroke-width: 3; stroke-linejoin: miter; stroke-linecap: square"/>
   </g>
   <g id="text_11">
    <!-- $\sigma_z = 0.003$ -->
    <g transform="translate(185.459375 352.850893) scale(0.35 -0.35)">
     <use xlink:href="#DejaVuSans-Oblique-3c3" transform="translate(0 0.78125)"/>
     <use xlink:href="#DejaVuSans-Oblique-7a" transform="translate(63.378906 -15.625) scale(0.7)"/>
     <use xlink:href="#DejaVuSans-3d" transform="translate(122.338867 0.78125)"/>
     <use xlink:href="#DejaVuSans-30" transform="translate(225.610352 0.78125)"/>
     <use xlink:href="#DejaVuSans-2e" transform="translate(289.233398 0.78125)"/>
     <use xlink:href="#DejaVuSans-30" transform="translate(321.020508 0.78125)"/>
     <use xlink:href="#DejaVuSans-30" transform="translate(384.643555 0.78125)"/>
     <use xlink:href="#DejaVuSans-33" transform="translate(448.266602 0.78125)"/>
    </g>
   </g>
   <g id="legend_2">
    <g id="patch_15">
     <path d="M 498.609375 332.79375 
L 799.209375 332.79375 
Q 803.209375 332.79375 803.209375 328.79375 
L 803.209375 295.19375 
Q 803.209375 291.19375 799.209375 291.19375 
L 498.609375 291.19375 
Q 494.609375 291.19375 494.609375 295.19375 
L 494.609375 328.79375 
Q 494.609375 332.79375 498.609375 332.79375 
z
" style="fill: #ffffff; opacity: 0.8; stroke: #cccccc; stroke-linejoin: miter"/>
    </g>
    <g id="line2d_18">
     <path d="M 502.609375 313.634375 
L 542.609375 313.634375 
" style="fill: none; stroke-dasharray: 11.1,4.8; stroke-dashoffset: 0; stroke: #ff0000; stroke-width: 3"/>
    </g>
    <g id="text_12">
     <!-- $\hat H_0-H_0=-0.61\pm0.04$ -->
     <g transform="translate(558.609375 320.634375) scale(0.2 -0.2)">
      <defs>
       <path id="DejaVuSans-36" d="M 2113 2584 
Q 1688 2584 1439 2293 
Q 1191 2003 1191 1497 
Q 1191 994 1439 701 
Q 1688 409 2113 409 
Q 2538 409 2786 701 
Q 3034 994 3034 1497 
Q 3034 2003 2786 2293 
Q 2538 2584 2113 2584 
z
M 3366 4563 
L 3366 3988 
Q 3128 4100 2886 4159 
Q 2644 4219 2406 4219 
Q 1781 4219 1451 3797 
Q 1122 3375 1075 2522 
Q 1259 2794 1537 2939 
Q 1816 3084 2150 3084 
Q 2853 3084 3261 2657 
Q 3669 2231 3669 1497 
Q 3669 778 3244 343 
Q 2819 -91 2113 -91 
Q 1303 -91 875 529 
Q 447 1150 447 2328 
Q 447 3434 972 4092 
Q 1497 4750 2381 4750 
Q 2619 4750 2861 4703 
Q 3103 4656 3366 4563 
z
" transform="scale(0.015625)"/>
      </defs>
      <use xlink:href="#DejaVuSans-302" transform="translate(69.03125 30.015625)"/>
      <use xlink:href="#DejaVuSans-Oblique-48" transform="translate(0 0.609375)"/>
      <use xlink:href="#DejaVuSans-30" transform="translate(76.152344 -15.796875) scale(0.7)"/>
      <use xlink:href="#DejaVuSans-2212" transform="translate(142.905273 0.609375)"/>
      <use xlink:href="#DejaVuSans-Oblique-48" transform="translate(246.176758 0.609375)"/>
      <use xlink:href="#DejaVuSans-30" transform="translate(321.37207 -15.796875) scale(0.7)"/>
      <use xlink:href="#DejaVuSans-3d" transform="translate(388.125 0.609375)"/>
      <use xlink:href="#DejaVuSans-2212" transform="translate(510.878906 0.609375)"/>
      <use xlink:href="#DejaVuSans-30" transform="translate(614.150391 0.609375)"/>
      <use xlink:href="#DejaVuSans-2e" transform="translate(677.773438 0.609375)"/>
      <use xlink:href="#DejaVuSans-36" transform="translate(709.560547 0.609375)"/>
      <use xlink:href="#DejaVuSans-31" transform="translate(773.183594 0.609375)"/>
      <use xlink:href="#DejaVuSans-b1" transform="translate(856.289062 0.609375)"/>
      <use xlink:href="#DejaVuSans-30" transform="translate(959.560547 0.609375)"/>
      <use xlink:href="#DejaVuSans-2e" transform="translate(1023.183594 0.609375)"/>
      <use xlink:href="#DejaVuSans-30" transform="translate(1054.970703 0.609375)"/>
      <use xlink:href="#DejaVuSans-34" transform="translate(1118.59375 0.609375)"/>
     </g>
    </g>
   </g>
  </g>
  <g id="axes_3">
   <g id="patch_16">
    <path d="M 143.609375 650.79375 
L 813.209375 650.79375 
L 813.209375 465.99375 
L 143.609375 465.99375 
z
" style="fill: #ffffff"/>
   </g>
   <g id="matplotlib.axis_5">
    <g id="xtick_11">
     <g id="line2d_19">
      <g>
       <use xlink:href="#m70fd20c97a" x="143.609375" y="650.79375" style="stroke: #000000; stroke-width: 3"/>
      </g>
     </g>
     <g id="text_13">
      <!-- 50 -->
      <g transform="translate(124.521875 682.589063) scale(0.3 -0.3)">
       <defs>
        <path id="DejaVuSans-35" d="M 691 4666 
L 3169 4666 
L 3169 4134 
L 1269 4134 
L 1269 2991 
Q 1406 3038 1543 3061 
Q 1681 3084 1819 3084 
Q 2600 3084 3056 2656 
Q 3513 2228 3513 1497 
Q 3513 744 3044 326 
Q 2575 -91 1722 -91 
Q 1428 -91 1123 -41 
Q 819 9 494 109 
L 494 744 
Q 775 591 1075 516 
Q 1375 441 1709 441 
Q 2250 441 2565 725 
Q 2881 1009 2881 1497 
Q 2881 1984 2565 2268 
Q 2250 2553 1709 2553 
Q 1456 2553 1204 2497 
Q 953 2441 691 2322 
L 691 4666 
z
" transform="scale(0.015625)"/>
       </defs>
       <use xlink:href="#DejaVuSans-35"/>
       <use xlink:href="#DejaVuSans-30" x="63.623047"/>
      </g>
     </g>
    </g>
    <g id="xtick_12">
     <g id="line2d_20">
      <g>
       <use xlink:href="#m70fd20c97a" x="311.009375" y="650.79375" style="stroke: #000000; stroke-width: 3"/>
      </g>
     </g>
     <g id="text_14">
      <!-- 60 -->
      <g transform="translate(291.921875 682.589063) scale(0.3 -0.3)">
       <use xlink:href="#DejaVuSans-36"/>
       <use xlink:href="#DejaVuSans-30" x="63.623047"/>
      </g>
     </g>
    </g>
    <g id="xtick_13">
     <g id="line2d_21">
      <g>
       <use xlink:href="#m70fd20c97a" x="478.409375" y="650.79375" style="stroke: #000000; stroke-width: 3"/>
      </g>
     </g>
     <g id="text_15">
      <!-- 70 -->
      <g transform="translate(459.321875 682.589063) scale(0.3 -0.3)">
       <defs>
        <path id="DejaVuSans-37" d="M 525 4666 
L 3525 4666 
L 3525 4397 
L 1831 0 
L 1172 0 
L 2766 4134 
L 525 4134 
L 525 4666 
z
" transform="scale(0.015625)"/>
       </defs>
       <use xlink:href="#DejaVuSans-37"/>
       <use xlink:href="#DejaVuSans-30" x="63.623047"/>
      </g>
     </g>
    </g>
    <g id="xtick_14">
     <g id="line2d_22">
      <g>
       <use xlink:href="#m70fd20c97a" x="645.809375" y="650.79375" style="stroke: #000000; stroke-width: 3"/>
      </g>
     </g>
     <g id="text_16">
      <!-- 80 -->
      <g transform="translate(626.721875 682.589063) scale(0.3 -0.3)">
       <defs>
        <path id="DejaVuSans-38" d="M 2034 2216 
Q 1584 2216 1326 1975 
Q 1069 1734 1069 1313 
Q 1069 891 1326 650 
Q 1584 409 2034 409 
Q 2484 409 2743 651 
Q 3003 894 3003 1313 
Q 3003 1734 2745 1975 
Q 2488 2216 2034 2216 
z
M 1403 2484 
Q 997 2584 770 2862 
Q 544 3141 544 3541 
Q 544 4100 942 4425 
Q 1341 4750 2034 4750 
Q 2731 4750 3128 4425 
Q 3525 4100 3525 3541 
Q 3525 3141 3298 2862 
Q 3072 2584 2669 2484 
Q 3125 2378 3379 2068 
Q 3634 1759 3634 1313 
Q 3634 634 3220 271 
Q 2806 -91 2034 -91 
Q 1263 -91 848 271 
Q 434 634 434 1313 
Q 434 1759 690 2068 
Q 947 2378 1403 2484 
z
M 1172 3481 
Q 1172 3119 1398 2916 
Q 1625 2713 2034 2713 
Q 2441 2713 2670 2916 
Q 2900 3119 2900 3481 
Q 2900 3844 2670 4047 
Q 2441 4250 2034 4250 
Q 1625 4250 1398 4047 
Q 1172 3844 1172 3481 
z
" transform="scale(0.015625)"/>
       </defs>
       <use xlink:href="#DejaVuSans-38"/>
       <use xlink:href="#DejaVuSans-30" x="63.623047"/>
      </g>
     </g>
    </g>
    <g id="xtick_15">
     <g id="line2d_23">
      <g>
       <use xlink:href="#m70fd20c97a" x="813.209375" y="650.79375" style="stroke: #000000; stroke-width: 3"/>
      </g>
     </g>
     <g id="text_17">
      <!-- 90 -->
      <g transform="translate(794.121875 682.589063) scale(0.3 -0.3)">
       <defs>
        <path id="DejaVuSans-39" d="M 703 97 
L 703 672 
Q 941 559 1184 500 
Q 1428 441 1663 441 
Q 2288 441 2617 861 
Q 2947 1281 2994 2138 
Q 2813 1869 2534 1725 
Q 2256 1581 1919 1581 
Q 1219 1581 811 2004 
Q 403 2428 403 3163 
Q 403 3881 828 4315 
Q 1253 4750 1959 4750 
Q 2769 4750 3195 4129 
Q 3622 3509 3622 2328 
Q 3622 1225 3098 567 
Q 2575 -91 1691 -91 
Q 1453 -91 1209 -44 
Q 966 3 703 97 
z
M 1959 2075 
Q 2384 2075 2632 2365 
Q 2881 2656 2881 3163 
Q 2881 3666 2632 3958 
Q 2384 4250 1959 4250 
Q 1534 4250 1286 3958 
Q 1038 3666 1038 3163 
Q 1038 2656 1286 2365 
Q 1534 2075 1959 2075 
z
" transform="scale(0.015625)"/>
       </defs>
       <use xlink:href="#DejaVuSans-39"/>
       <use xlink:href="#DejaVuSans-30" x="63.623047"/>
      </g>
     </g>
    </g>
    <g id="text_18">
     <!-- $\hat H_0$ (km s$^{-1}$ Mpc$^{-1}$) -->
     <g transform="translate(316.884375 742.328125) scale(0.35 -0.35)">
      <defs>
       <path id="DejaVuSans-6b" d="M 581 4863 
L 1159 4863 
L 1159 1991 
L 2875 3500 
L 3609 3500 
L 1753 1863 
L 3688 0 
L 2938 0 
L 1159 1709 
L 1159 0 
L 581 0 
L 581 4863 
z
" transform="scale(0.015625)"/>
       <path id="DejaVuSans-4d" d="M 628 4666 
L 1569 4666 
L 2759 1491 
L 3956 4666 
L 4897 4666 
L 4897 0 
L 4281 0 
L 4281 4097 
L 3078 897 
L 2444 897 
L 1241 4097 
L 1241 0 
L 628 0 
L 628 4666 
z
" transform="scale(0.015625)"/>
      </defs>
      <use xlink:href="#DejaVuSans-302" transform="translate(69.03125 30.015625)"/>
      <use xlink:href="#DejaVuSans-Oblique-48" transform="translate(0 0.609375)"/>
      <use xlink:href="#DejaVuSans-30" transform="translate(76.152344 -15.796875) scale(0.7)"/>
      <use xlink:href="#DejaVuSans-20" transform="translate(123.422852 0.609375)"/>
      <use xlink:href="#DejaVuSans-28" transform="translate(155.209961 0.609375)"/>
      <use xlink:href="#DejaVuSans-6b" transform="translate(194.223633 0.609375)"/>
      <use xlink:href="#DejaVuSans-6d" transform="translate(252.133789 0.609375)"/>
      <use xlink:href="#DejaVuSans-20" transform="translate(349.545898 0.609375)"/>
      <use xlink:href="#DejaVuSans-73" transform="translate(381.333008 0.609375)"/>
      <use xlink:href="#DejaVuSans-2212" transform="translate(434.389648 38.890625) scale(0.7)"/>
      <use xlink:href="#DejaVuSans-31" transform="translate(493.041992 38.890625) scale(0.7)"/>
      <use xlink:href="#DejaVuSans-20" transform="translate(540.3125 0.609375)"/>
      <use xlink:href="#DejaVuSans-4d" transform="translate(572.099609 0.609375)"/>
      <use xlink:href="#DejaVuSans-70" transform="translate(658.378906 0.609375)"/>
      <use xlink:href="#DejaVuSans-63" transform="translate(721.855469 0.609375)"/>
      <use xlink:href="#DejaVuSans-2212" transform="translate(777.792969 38.890625) scale(0.7)"/>
      <use xlink:href="#DejaVuSans-31" transform="translate(836.445312 38.890625) scale(0.7)"/>
      <use xlink:href="#DejaVuSans-29" transform="translate(883.71582 0.609375)"/>
     </g>
    </g>
   </g>
   <g id="matplotlib.axis_6">
    <g id="ytick_7">
     <g id="line2d_24">
      <g>
       <use xlink:href="#ma78712c597" x="143.609375" y="650.79375" style="stroke: #000000; stroke-width: 3"/>
      </g>
     </g>
     <g id="text_19">
      <!-- 0.00 -->
      <g transform="translate(67.8125 662.191406) scale(0.3 -0.3)">
       <use xlink:href="#DejaVuSans-30"/>
       <use xlink:href="#DejaVuSans-2e" x="63.623047"/>
       <use xlink:href="#DejaVuSans-30" x="95.410156"/>
       <use xlink:href="#DejaVuSans-30" x="159.033203"/>
      </g>
     </g>
    </g>
    <g id="ytick_8">
     <g id="line2d_25">
      <g>
       <use xlink:href="#ma78712c597" x="143.609375" y="581.49375" style="stroke: #000000; stroke-width: 3"/>
      </g>
     </g>
     <g id="text_20">
      <!-- 0.03 -->
      <g transform="translate(67.8125 592.891406) scale(0.3 -0.3)">
       <use xlink:href="#DejaVuSans-30"/>
       <use xlink:href="#DejaVuSans-2e" x="63.623047"/>
       <use xlink:href="#DejaVuSans-30" x="95.410156"/>
       <use xlink:href="#DejaVuSans-33" x="159.033203"/>
      </g>
     </g>
    </g>
    <g id="ytick_9">
     <g id="line2d_26">
      <g>
       <use xlink:href="#ma78712c597" x="143.609375" y="512.19375" style="stroke: #000000; stroke-width: 3"/>
      </g>
     </g>
     <g id="text_21">
      <!-- 0.06 -->
      <g transform="translate(67.8125 523.591406) scale(0.3 -0.3)">
       <use xlink:href="#DejaVuSans-30"/>
       <use xlink:href="#DejaVuSans-2e" x="63.623047"/>
       <use xlink:href="#DejaVuSans-30" x="95.410156"/>
       <use xlink:href="#DejaVuSans-36" x="159.033203"/>
      </g>
     </g>
    </g>
   </g>
   <g id="patch_17">
    <path d="M 147.449993 650.79375 
L 147.449993 642.293335 
L 188.433049 642.293335 
L 188.433049 640.404354 
L 229.416105 640.404354 
L 229.416105 634.737411 
L 270.399162 634.737411 
L 270.399162 617.736582 
L 311.382218 617.736582 
L 311.382218 595.06881 
L 352.365275 595.06881 
L 352.365275 566.734094 
L 393.348331 566.734094 
L 393.348331 523.28753 
L 434.331387 523.28753 
L 434.331387 520.454059 
L 475.314444 520.454059 
L 475.314444 525.176511 
L 516.2975 525.176511 
L 516.2975 535.565907 
L 557.280557 535.565907 
L 557.280557 566.734094 
L 598.263613 566.734094 
L 598.263613 589.401866 
L 639.246669 589.401866 
L 639.246669 616.792091 
L 680.229726 616.792091 
L 680.229726 629.070468 
L 721.212782 629.070468 
L 721.212782 638.515373 
L 762.195838 638.515373 
L 762.195838 646.071297 
L 803.178895 646.071297 
L 803.178895 641.348845 
L 844.161951 641.348845 
L 844.161951 647.960278 
L 885.145008 647.960278 
L 885.145008 648.904769 
L 926.128064 648.904769 
L 926.128064 646.071297 
L 967.11112 646.071297 
L 967.11112 650.79375 
" clip-path="url(#pab8df1eca7)" style="fill: url(#h36005986d6); stroke: #e16462; stroke-width: 3; stroke-linejoin: miter"/>
   </g>
   <g id="LineCollection_5">
    <path d="M 442.471301 650.79375 
L 442.471301 -1 
" clip-path="url(#pab8df1eca7)" style="fill: none; stroke-dasharray: 11.1,4.8; stroke-dashoffset: 0; stroke: #ff0000; stroke-width: 3"/>
   </g>
   <g id="LineCollection_6">
    <path d="M 478.409375 650.79375 
L 478.409375 -1 
" clip-path="url(#pab8df1eca7)" style="fill: none; stroke-dasharray: 11.1,4.8; stroke-dashoffset: 0; stroke: #000000; stroke-width: 3"/>
   </g>
   <g id="patch_18">
    <path d="M 143.609375 650.79375 
L 143.609375 465.99375 
" style="fill: none; stroke: #000000; stroke-width: 3; stroke-linejoin: miter; stroke-linecap: square"/>
   </g>
   <g id="patch_19">
    <path d="M 813.209375 650.79375 
L 813.209375 465.99375 
" style="fill: none; stroke: #000000; stroke-width: 3; stroke-linejoin: miter; stroke-linecap: square"/>
   </g>
   <g id="patch_20">
    <path d="M 143.609375 650.79375 
L 813.209375 650.79375 
" style="fill: none; stroke: #000000; stroke-width: 3; stroke-linejoin: miter; stroke-linecap: square"/>
   </g>
   <g id="patch_21">
    <path d="M 143.609375 465.99375 
L 813.209375 465.99375 
" style="fill: none; stroke: #000000; stroke-width: 3; stroke-linejoin: miter; stroke-linecap: square"/>
   </g>
   <g id="text_22">
    <!-- $\sigma_z = 0.01$ -->
    <g transform="translate(185.459375 537.650893) scale(0.35 -0.35)">
     <use xlink:href="#DejaVuSans-Oblique-3c3" transform="translate(0 0.78125)"/>
     <use xlink:href="#DejaVuSans-Oblique-7a" transform="translate(63.378906 -15.625) scale(0.7)"/>
     <use xlink:href="#DejaVuSans-3d" transform="translate(122.338867 0.78125)"/>
     <use xlink:href="#DejaVuSans-30" transform="translate(225.610352 0.78125)"/>
     <use xlink:href="#DejaVuSans-2e" transform="translate(289.233398 0.78125)"/>
     <use xlink:href="#DejaVuSans-30" transform="translate(321.020508 0.78125)"/>
     <use xlink:href="#DejaVuSans-31" transform="translate(384.643555 0.78125)"/>
    </g>
   </g>
   <g id="legend_3">
    <g id="patch_22">
     <path d="M 498.609375 517.59375 
L 799.209375 517.59375 
Q 803.209375 517.59375 803.209375 513.59375 
L 803.209375 479.99375 
Q 803.209375 475.99375 799.209375 475.99375 
L 498.609375 475.99375 
Q 494.609375 475.99375 494.609375 479.99375 
L 494.609375 513.59375 
Q 494.609375 517.59375 498.609375 517.59375 
z
" style="fill: #ffffff; opacity: 0.8; stroke: #cccccc; stroke-linejoin: miter"/>
    </g>
    <g id="line2d_27">
     <path d="M 502.609375 498.434375 
L 542.609375 498.434375 
" style="fill: none; stroke-dasharray: 11.1,4.8; stroke-dashoffset: 0; stroke: #ff0000; stroke-width: 3"/>
    </g>
    <g id="text_23">
     <!-- $\hat H_0-H_0=-2.15\pm0.05$ -->
     <g transform="translate(558.609375 505.434375) scale(0.2 -0.2)">
      <use xlink:href="#DejaVuSans-302" transform="translate(69.03125 30.015625)"/>
      <use xlink:href="#DejaVuSans-Oblique-48" transform="translate(0 0.609375)"/>
      <use xlink:href="#DejaVuSans-30" transform="translate(76.152344 -15.796875) scale(0.7)"/>
      <use xlink:href="#DejaVuSans-2212" transform="translate(142.905273 0.609375)"/>
      <use xlink:href="#DejaVuSans-Oblique-48" transform="translate(246.176758 0.609375)"/>
      <use xlink:href="#DejaVuSans-30" transform="translate(321.37207 -15.796875) scale(0.7)"/>
      <use xlink:href="#DejaVuSans-3d" transform="translate(388.125 0.609375)"/>
      <use xlink:href="#DejaVuSans-2212" transform="translate(510.878906 0.609375)"/>
      <use xlink:href="#DejaVuSans-32" transform="translate(614.150391 0.609375)"/>
      <use xlink:href="#DejaVuSans-2e" transform="translate(677.773438 0.609375)"/>
      <use xlink:href="#DejaVuSans-31" transform="translate(709.560547 0.609375)"/>
      <use xlink:href="#DejaVuSans-35" transform="translate(773.183594 0.609375)"/>
      <use xlink:href="#DejaVuSans-b1" transform="translate(856.289062 0.609375)"/>
      <use xlink:href="#DejaVuSans-30" transform="translate(959.560547 0.609375)"/>
      <use xlink:href="#DejaVuSans-2e" transform="translate(1023.183594 0.609375)"/>
      <use xlink:href="#DejaVuSans-30" transform="translate(1054.970703 0.609375)"/>
      <use xlink:href="#DejaVuSans-35" transform="translate(1118.59375 0.609375)"/>
     </g>
    </g>
   </g>
  </g>
 </g>
 <defs>
  <clipPath id="p84cfad32c3">
   <rect x="143.609375" y="96.39375" width="669.6" height="184.8"/>
  </clipPath>
  <clipPath id="p05137ca9d5">
   <rect x="143.609375" y="281.19375" width="669.6" height="184.8"/>
  </clipPath>
  <clipPath id="pab8df1eca7">
   <rect x="143.609375" y="465.99375" width="669.6" height="184.8"/>
  </clipPath>
 </defs>
 <defs>
  <pattern id="h36005986d6" patternUnits="userSpaceOnUse" x="0" y="0" width="72" height="72">
   <rect x="0" y="0" width="73" height="73" fill="none"/>
   <path d="M -36 36 
L 36 -36 
M -30 42 
L 42 -30 
M -24 48 
L 48 -24 
M -18 54 
L 54 -18 
M -12 60 
L 60 -12 
M -6 66 
L 66 -6 
M 0 72 
L 72 0 
M 6 78 
L 78 6 
M 12 84 
L 84 12 
M 18 90 
L 90 18 
M 24 96 
L 96 24 
M 30 102 
L 102 30 
M 36 108 
L 108 36 
" style="fill: #e16462; stroke: #e16462; stroke-width: 1.0; stroke-linecap: butt; stroke-linejoin: miter"/>
  </pattern>
 </defs>
</svg>
