<?xml version="1.0" encoding="utf-8" standalone="no"?>
<!DOCTYPE svg PUBLIC "-//W3C//DTD SVG 1.1//EN"
  "http://www.w3.org/Graphics/SVG/1.1/DTD/svg11.dtd">
<svg xmlns:xlink="http://www.w3.org/1999/xlink" width="842.308594pt" height="694.765937pt" viewBox="0 0 842.308594 694.765937" xmlns="http://www.w3.org/2000/svg" version="1.1">
 <metadata>
  <rdf:RDF xmlns:dc="http://purl.org/dc/elements/1.1/" xmlns:cc="http://creativecommons.org/ns#" xmlns:rdf="http://www.w3.org/1999/02/22-rdf-syntax-ns#">
   <cc:Work>
    <dc:type rdf:resource="http://purl.org/dc/dcmitype/StillImage"/>
    <dc:date>2024-03-21T00:03:27.838117</dc:date>
    <dc:format>image/svg+xml</dc:format>
    <dc:creator>
     <cc:Agent>
      <dc:title>Matplotlib v3.8.0, https://matplotlib.org/</dc:title>
     </cc:Agent>
    </dc:creator>
   </cc:Work>
  </rdf:RDF>
 </metadata>
 <defs>
  <style type="text/css">*{stroke-linejoin: round; stroke-linecap: butt}</style>
 </defs>
 <g id="figure_1">
  <g id="patch_1">
   <path d="M 0 694.765937 
L 842.308594 694.765937 
L 842.308594 0 
L 0 0 
z
" style="fill: #ffffff"/>
" style="fill: #ffffff"/>
  </g>
  <g id="axes_1">
   <g id="patch_2">
    <path d="M 136.708594 299.34 
L 806.308594 299.34 
L 806.308594 36 
L 136.708594 36 
z
" style="fill: #ffffff"/>
   </g>
   <g id="matplotlib.axis_1">
    <g id="xtick_1">
     <g id="line2d_1">
      <defs>
       <path id="m911b53dde9" d="M 0 0 
L 0 -8 
" style="stroke: #000000; stroke-width: 3"/>
" style="stroke: #000000; stroke-width: 3"/>
      </defs>
      <g>
       <use xlink:href="#m911b53dde9" x="136.708594" y="299.34" style="stroke: #000000; stroke-width: 3"/>
      </g>
     </g>
    </g>
    <g id="xtick_2">
     <g id="line2d_2">
      <g>
       <use xlink:href="#m911b53dde9" x="285.508594" y="299.34" style="stroke: #000000; stroke-width: 3"/>
      </g>
     </g>
    </g>
    <g id="xtick_3">
     <g id="line2d_3">
      <g>
       <use xlink:href="#m911b53dde9" x="434.308594" y="299.34" style="stroke: #000000; stroke-width: 3"/>
      </g>
     </g>
    </g>
    <g id="xtick_4">
     <g id="line2d_4">
      <g>
       <use xlink:href="#m911b53dde9" x="583.108594" y="299.34" style="stroke: #000000; stroke-width: 3"/>
      </g>
     </g>
    </g>
    <g id="xtick_5">
     <g id="line2d_5">
      <g>
       <use xlink:href="#m911b53dde9" x="731.908594" y="299.34" style="stroke: #000000; stroke-width: 3"/>
      </g>
     </g>
    </g>
   </g>
   <g id="matplotlib.axis_2">
    <g id="ytick_1">
     <g id="line2d_6">
      <defs>
       <path id="m2a785f1801" d="M 0 0 
L 8 0 
" style="stroke: #000000; stroke-width: 3"/>
" style="stroke: #000000; stroke-width: 3"/>
      </defs>
      <g>
       <use xlink:href="#m2a785f1801" x="136.708594" y="299.34" style="stroke: #000000; stroke-width: 3"/>
      </g>
     </g>
     <g id="text_1">
      <!-- 0.0 -->
      <g transform="translate(83.008594 310.076719) scale(0.3 -0.3)">
       <defs>
        <path id="ArialMT-30" d="M 266 2259 
Q 266 3072 433 3567 
Q 600 4063 929 4331 
Q 1259 4600 1759 4600 
Q 2128 4600 2406 4451 
Q 2684 4303 2865 4023 
Q 3047 3744 3150 3342 
Q 3253 2941 3253 2259 
Q 3253 1453 3087 958 
Q 2922 463 2592 192 
Q 2263 -78 1759 -78 
Q 1097 -78 719 397 
Q 266 969 266 2259 
z
M 844 2259 
Q 844 1131 1108 757 
Q 1372 384 1759 384 
Q 2147 384 2411 759 
Q 2675 1134 2675 2259 
Q 2675 3391 2411 3762 
Q 2147 4134 1753 4134 
Q 1366 4134 1134 3806 
Q 844 3388 844 2259 
z
" transform="scale(0.015625)"/>
        <path id="ArialMT-2e" d="M 581 0 
L 581 641 
L 1222 641 
L 1222 0 
L 581 0 
z
" transform="scale(0.015625)"/>
       </defs>
       <use xlink:href="#ArialMT-30"/>
       <use xlink:href="#ArialMT-2e" x="55.615234"/>
       <use xlink:href="#ArialMT-30" x="83.398438"/>
      </g>
     </g>
    </g>
    <g id="ytick_2">
     <g id="line2d_7">
      <g>
       <use xlink:href="#m2a785f1801" x="136.708594" y="191.854286" style="stroke: #000000; stroke-width: 3"/>
      </g>
     </g>
     <g id="text_2">
      <!-- 0.2 -->
      <g transform="translate(83.008594 202.591004) scale(0.3 -0.3)">
       <defs>
        <path id="ArialMT-32" d="M 3222 541 
L 3222 0 
L 194 0 
Q 188 203 259 391 
Q 375 700 629 1000 
Q 884 1300 1366 1694 
Q 2113 2306 2375 2664 
Q 2638 3022 2638 3341 
Q 2638 3675 2398 3904 
Q 2159 4134 1775 4134 
Q 1369 4134 1125 3890 
Q 881 3647 878 3216 
L 300 3275 
Q 359 3922 746 4261 
Q 1134 4600 1788 4600 
Q 2447 4600 2831 4234 
Q 3216 3869 3216 3328 
Q 3216 3053 3103 2787 
Q 2991 2522 2730 2228 
Q 2469 1934 1863 1422 
Q 1356 997 1212 845 
Q 1069 694 975 541 
L 3222 541 
z
" transform="scale(0.015625)"/>
       </defs>
       <use xlink:href="#ArialMT-30"/>
       <use xlink:href="#ArialMT-2e" x="55.615234"/>
       <use xlink:href="#ArialMT-32" x="83.398438"/>
      </g>
     </g>
    </g>
    <g id="ytick_3">
     <g id="line2d_8">
      <g>
       <use xlink:href="#m2a785f1801" x="136.708594" y="84.368571" style="stroke: #000000; stroke-width: 3"/>
      </g>
     </g>
     <g id="text_3">
      <!-- 0.4 -->
      <g transform="translate(83.008594 95.10529) scale(0.3 -0.3)">
       <defs>
        <path id="ArialMT-34" d="M 2069 0 
L 2069 1097 
L 81 1097 
L 81 1613 
L 2172 4581 
L 2631 4581 
L 2631 1613 
L 3250 1613 
L 3250 1097 
L 2631 1097 
L 2631 0 
L 2069 0 
z
M 2069 1613 
L 2069 3678 
L 634 1613 
L 2069 1613 
z
" transform="scale(0.015625)"/>
       </defs>
       <use xlink:href="#ArialMT-30"/>
       <use xlink:href="#ArialMT-2e" x="55.615234"/>
       <use xlink:href="#ArialMT-34" x="83.398438"/>
      </g>
     </g>
    </g>
    <g id="text_4">
     <!-- Not Included -->
     <g transform="translate(61.052344 265.921562) rotate(-90) scale(0.35 -0.35)">
      <defs>
       <path id="ArialMT-4e" d="M 488 0 
L 488 4581 
L 1109 4581 
L 3516 984 
L 3516 4581 
L 4097 4581 
L 4097 0 
L 3475 0 
L 1069 3600 
L 1069 0 
L 488 0 
z
" transform="scale(0.015625)"/>
       <path id="ArialMT-6f" d="M 213 1659 
Q 213 2581 725 3025 
Q 1153 3394 1769 3394 
Q 2453 3394 2887 2945 
Q 3322 2497 3322 1706 
Q 3322 1066 3130 698 
Q 2938 331 2570 128 
Q 2203 -75 1769 -75 
Q 1072 -75 642 372 
Q 213 819 213 1659 
z
M 791 1659 
Q 791 1022 1069 705 
Q 1347 388 1769 388 
Q 2188 388 2466 706 
Q 2744 1025 2744 1678 
Q 2744 2294 2464 2611 
Q 2184 2928 1769 2928 
Q 1347 2928 1069 2612 
Q 791 2297 791 1659 
z
" transform="scale(0.015625)"/>
       <path id="ArialMT-74" d="M 1650 503 
L 1731 6 
Q 1494 -44 1306 -44 
Q 1000 -44 831 53 
Q 663 150 594 308 
Q 525 466 525 972 
L 525 2881 
L 113 2881 
L 113 3319 
L 525 3319 
L 525 4141 
L 1084 4478 
L 1084 3319 
L 1650 3319 
L 1650 2881 
L 1084 2881 
L 1084 941 
Q 1084 700 1114 631 
Q 1144 563 1211 522 
Q 1278 481 1403 481 
Q 1497 481 1650 503 
z
" transform="scale(0.015625)"/>
       <path id="ArialMT-20" transform="scale(0.015625)"/>
       <path id="ArialMT-49" d="M 597 0 
L 597 4581 
L 1203 4581 
L 1203 0 
L 597 0 
z
" transform="scale(0.015625)"/>
       <path id="ArialMT-6e" d="M 422 0 
L 422 3319 
L 928 3319 
L 928 2847 
Q 1294 3394 1984 3394 
Q 2284 3394 2536 3286 
Q 2788 3178 2913 3003 
Q 3038 2828 3088 2588 
Q 3119 2431 3119 2041 
L 3119 0 
L 2556 0 
L 2556 2019 
Q 2556 2363 2490 2533 
Q 2425 2703 2258 2804 
Q 2091 2906 1866 2906 
Q 1506 2906 1245 2678 
Q 984 2450 984 1813 
L 984 0 
L 422 0 
z
" transform="scale(0.015625)"/>
       <path id="ArialMT-63" d="M 2588 1216 
L 3141 1144 
Q 3050 572 2676 248 
Q 2303 -75 1759 -75 
Q 1078 -75 664 370 
Q 250 816 250 1647 
Q 250 2184 428 2587 
Q 606 2991 970 3192 
Q 1334 3394 1763 3394 
Q 2303 3394 2647 3120 
Q 2991 2847 3088 2344 
L 2541 2259 
Q 2463 2594 2264 2762 
Q 2066 2931 1784 2931 
Q 1359 2931 1093 2626 
Q 828 2322 828 1663 
Q 828 994 1084 691 
Q 1341 388 1753 388 
Q 2084 388 2306 591 
Q 2528 794 2588 1216 
z
" transform="scale(0.015625)"/>
       <path id="ArialMT-6c" d="M 409 0 
L 409 4581 
L 972 4581 
L 972 0 
L 409 0 
z
" transform="scale(0.015625)"/>
       <path id="ArialMT-75" d="M 2597 0 
L 2597 488 
Q 2209 -75 1544 -75 
Q 1250 -75 995 37 
Q 741 150 617 320 
Q 494 491 444 738 
Q 409 903 409 1263 
L 409 3319 
L 972 3319 
L 972 1478 
Q 972 1038 1006 884 
Q 1059 663 1231 536 
Q 1403 409 1656 409 
Q 1909 409 2131 539 
Q 2353 669 2445 892 
Q 2538 1116 2538 1541 
L 2538 3319 
L 3100 3319 
L 3100 0 
L 2597 0 
z
" transform="scale(0.015625)"/>
       <path id="ArialMT-64" d="M 2575 0 
L 2575 419 
Q 2259 -75 1647 -75 
Q 1250 -75 917 144 
Q 584 363 401 755 
Q 219 1147 219 1656 
Q 219 2153 384 2558 
Q 550 2963 881 3178 
Q 1213 3394 1622 3394 
Q 1922 3394 2156 3267 
Q 2391 3141 2538 2938 
L 2538 4581 
L 3097 4581 
L 3097 0 
L 2575 0 
z
M 797 1656 
Q 797 1019 1065 703 
Q 1334 388 1700 388 
Q 2069 388 2326 689 
Q 2584 991 2584 1609 
Q 2584 2291 2321 2609 
Q 2059 2928 1675 2928 
Q 1300 2928 1048 2622 
Q 797 2316 797 1656 
z
" transform="scale(0.015625)"/>
       <path id="ArialMT-65" d="M 2694 1069 
L 3275 997 
Q 3138 488 2766 206 
Q 2394 -75 1816 -75 
Q 1088 -75 661 373 
Q 234 822 234 1631 
Q 234 2469 665 2931 
Q 1097 3394 1784 3394 
Q 2450 3394 2872 2941 
Q 3294 2488 3294 1666 
Q 3294 1616 3291 1516 
L 816 1516 
Q 847 969 1125 678 
Q 1403 388 1819 388 
Q 2128 388 2347 550 
Q 2566 713 2694 1069 
z
M 847 1978 
L 2700 1978 
Q 2663 2397 2488 2606 
Q 2219 2931 1791 2931 
Q 1403 2931 1139 2672 
Q 875 2413 847 1978 
z
" transform="scale(0.015625)"/>
      </defs>
      <use xlink:href="#ArialMT-4e"/>
      <use xlink:href="#ArialMT-6f" x="72.216797"/>
      <use xlink:href="#ArialMT-74" x="127.832031"/>
      <use xlink:href="#ArialMT-20" x="155.615234"/>
      <use xlink:href="#ArialMT-49" x="183.398438"/>
      <use xlink:href="#ArialMT-6e" x="211.181641"/>
      <use xlink:href="#ArialMT-63" x="266.796875"/>
      <use xlink:href="#ArialMT-6c" x="316.796875"/>
      <use xlink:href="#ArialMT-75" x="339.013672"/>
      <use xlink:href="#ArialMT-64" x="394.628906"/>
      <use xlink:href="#ArialMT-65" x="450.244141"/>
      <use xlink:href="#ArialMT-64" x="505.859375"/>
     </g>
    </g>
   </g>
   <g id="patch_3">
    <path d="M 214.972922 299.34 
L 214.972922 296.545412 
L 250.742666 296.545412 
L 250.742666 294.309741 
L 286.51241 294.309741 
L 286.51241 281.454634 
L 322.282154 281.454634 
L 322.282154 264.687103 
L 358.051898 264.687103 
L 358.051898 226.121782 
L 393.821641 226.121782 
L 393.821641 194.822391 
L 429.591385 194.822391 
L 429.591385 146.196551 
L 465.361129 146.196551 
L 465.361129 132.223608 
L 501.130873 132.223608 
L 501.130873 137.253868 
L 536.900617 137.253868 
L 536.900617 163.522999 
L 572.67036 163.522999 
L 572.67036 189.233214 
L 608.440104 189.233214 
L 608.440104 235.064465 
L 644.209848 235.064465 
L 644.209848 266.363856 
L 679.979592 266.363856 
L 679.979592 276.424374 
L 715.749336 276.424374 
L 715.749336 282.013551 
L 751.519079 282.013551 
L 751.519079 291.515152 
L 787.288823 291.515152 
L 787.288823 297.104329 
L 823.058567 297.104329 
L 823.058567 297.663247 
L 843.308594 297.663247 
" clip-path="url(#pa977ce109d)" style="fill: none; stroke: #ff00ff; stroke-width: 3.5; stroke-linejoin: miter"/>
   </g>
   <g id="LineCollection_1">
    <path d="M 496.144155 299.34 
L 496.144155 36 
" clip-path="url(#pa977ce109d)" style="fill: none; stroke-dasharray: 11.1,4.8; stroke-dashoffset: 0; stroke: #0000ff; stroke-width: 3"/>
   </g>
   <g id="LineCollection_2">
    <path d="M 434.308594 299.34 
L 434.308594 36 
" clip-path="url(#pa977ce109d)" style="fill: none; stroke-dasharray: 11.1,4.8; stroke-dashoffset: 0; stroke: #ff0000; stroke-width: 3"/>
   </g>
   <g id="patch_4">
    <path d="M 136.708594 299.34 
L 136.708594 36 
" style="fill: none; stroke: #000000; stroke-width: 3; stroke-linejoin: miter; stroke-linecap: square"/>
   </g>
   <g id="patch_5">
    <path d="M 806.308594 299.34 
L 806.308594 36 
" style="fill: none; stroke: #000000; stroke-width: 3; stroke-linejoin: miter; stroke-linecap: square"/>
   </g>
   <g id="patch_6">
    <path d="M 136.708594 299.34 
L 806.308594 299.34 
" style="fill: none; stroke: #000000; stroke-width: 3; stroke-linejoin: miter; stroke-linecap: square"/>
   </g>
   <g id="patch_7">
    <path d="M 136.708594 36 
L 806.308594 36 
" style="fill: none; stroke: #000000; stroke-width: 3; stroke-linejoin: miter; stroke-linecap: square"/>
   </g>
   <g id="legend_1">
    <g id="patch_8">
     <path d="M 471.558594 97.5 
L 788.808594 97.5 
Q 793.808594 97.5 793.808594 92.5 
L 793.808594 53.5 
Q 793.808594 48.5 788.808594 48.5 
L 471.558594 48.5 
Q 466.558594 48.5 466.558594 53.5 
L 466.558594 92.5 
Q 466.558594 97.5 471.558594 97.5 
z
" style="fill: #ffffff; stroke: #cccccc; stroke-linejoin: miter"/>
    </g>
    <g id="line2d_9">
     <path d="M 476.558594 73.78125 
L 526.558594 73.78125 
" style="fill: none; stroke-dasharray: 11.1,4.8; stroke-dashoffset: 0; stroke: #0000ff; stroke-width: 3"/>
    </g>
    <g id="text_5">
     <!-- $\hat H_0-H_0=0.83\pm0.02$ -->
     <g transform="translate(546.558594 82.53125) scale(0.25 -0.25)">
      <defs>
       <path id="DejaVuSans-302" d="M -1831 5119 
L -1369 5119 
L -603 3944 
L -1038 3944 
L -1600 4709 
L -2163 3944 
L -2597 3944 
L -1831 5119 
z
M -1600 3584 
L -1600 3584 
z
" transform="scale(0.015625)"/>
       <path id="DejaVuSans-Oblique-48" d="M 1081 4666 
L 1716 4666 
L 1344 2753 
L 3634 2753 
L 4006 4666 
L 4641 4666 
L 3731 0 
L 3097 0 
L 3531 2222 
L 1241 2222 
L 806 0 
L 172 0 
L 1081 4666 
z
" transform="scale(0.015625)"/>
       <path id="DejaVuSans-2212" d="M 678 2272 
L 4684 2272 
L 4684 1741 
L 678 1741 
L 678 2272 
z
" transform="scale(0.015625)"/>
       <path id="DejaVuSans-3d" d="M 678 2906 
L 4684 2906 
L 4684 2381 
L 678 2381 
L 678 2906 
z
M 678 1631 
L 4684 1631 
L 4684 1100 
L 678 1100 
L 678 1631 
z
" transform="scale(0.015625)"/>
       <path id="DejaVuSans-38" d="M 2034 2216 
Q 1584 2216 1326 1975 
Q 1069 1734 1069 1313 
Q 1069 891 1326 650 
Q 1584 409 2034 409 
Q 2484 409 2743 651 
Q 3003 894 3003 1313 
Q 3003 1734 2745 1975 
Q 2488 2216 2034 2216 
z
M 1403 2484 
Q 997 2584 770 2862 
Q 544 3141 544 3541 
Q 544 4100 942 4425 
Q 1341 4750 2034 4750 
Q 2731 4750 3128 4425 
Q 3525 4100 3525 3541 
Q 3525 3141 3298 2862 
Q 3072 2584 2669 2484 
Q 3125 2378 3379 2068 
Q 3634 1759 3634 1313 
Q 3634 634 3220 271 
Q 2806 -91 2034 -91 
Q 1263 -91 848 271 
Q 434 634 434 1313 
Q 434 1759 690 2068 
Q 947 2378 1403 2484 
z
M 1172 3481 
Q 1172 3119 1398 2916 
Q 1625 2713 2034 2713 
Q 2441 2713 2670 2916 
Q 2900 3119 2900 3481 
Q 2900 3844 2670 4047 
Q 2441 4250 2034 4250 
Q 1625 4250 1398 4047 
Q 1172 3844 1172 3481 
z
" transform="scale(0.015625)"/>
       <path id="DejaVuSans-33" d="M 2597 2516 
Q 3050 2419 3304 2112 
Q 3559 1806 3559 1356 
Q 3559 666 3084 287 
Q 2609 -91 1734 -91 
Q 1441 -91 1130 -33 
Q 819 25 488 141 
L 488 750 
Q 750 597 1062 519 
Q 1375 441 1716 441 
Q 2309 441 2620 675 
Q 2931 909 2931 1356 
Q 2931 1769 2642 2001 
Q 2353 2234 1838 2234 
L 1294 2234 
L 1294 2753 
L 1863 2753 
Q 2328 2753 2575 2939 
Q 2822 3125 2822 3475 
Q 2822 3834 2567 4026 
Q 2313 4219 1838 4219 
Q 1578 4219 1281 4162 
Q 984 4106 628 3988 
L 628 4550 
Q 988 4650 1302 4700 
Q 1616 4750 1894 4750 
Q 2613 4750 3031 4423 
Q 3450 4097 3450 3541 
Q 3450 3153 3228 2886 
Q 3006 2619 2597 2516 
z
" transform="scale(0.015625)"/>
       <path id="DejaVuSans-b1" d="M 2944 4013 
L 2944 2803 
L 4684 2803 
L 4684 2272 
L 2944 2272 
L 2944 1063 
L 2419 1063 
L 2419 2272 
L 678 2272 
L 678 2803 
L 2419 2803 
L 2419 4013 
L 2944 4013 
z
M 678 531 
L 4684 531 
L 4684 0 
L 678 0 
L 678 531 
z
" transform="scale(0.015625)"/>
      </defs>
      <use xlink:href="#DejaVuSans-302" transform="translate(69.03125 30.015625)"/>
      <use xlink:href="#DejaVuSans-Oblique-48" transform="translate(0 0.609375)"/>
      <use xlink:href="#DejaVuSans-30" transform="translate(76.152344 -15.796875) scale(0.7)"/>
      <use xlink:href="#DejaVuSans-2212" transform="translate(142.905273 0.609375)"/>
      <use xlink:href="#DejaVuSans-Oblique-48" transform="translate(246.176758 0.609375)"/>
      <use xlink:href="#DejaVuSans-30" transform="translate(321.37207 -15.796875) scale(0.7)"/>
      <use xlink:href="#DejaVuSans-3d" transform="translate(388.125 0.609375)"/>
      <use xlink:href="#DejaVuSans-30" transform="translate(491.396484 0.609375)"/>
      <use xlink:href="#DejaVuSans-2e" transform="translate(555.019531 0.609375)"/>
      <use xlink:href="#DejaVuSans-38" transform="translate(584.181641 0.609375)"/>
      <use xlink:href="#DejaVuSans-33" transform="translate(647.804688 0.609375)"/>
      <use xlink:href="#DejaVuSans-b1" transform="translate(730.910156 0.609375)"/>
      <use xlink:href="#DejaVuSans-30" transform="translate(834.181641 0.609375)"/>
      <use xlink:href="#DejaVuSans-2e" transform="translate(897.804688 0.609375)"/>
      <use xlink:href="#DejaVuSans-30" transform="translate(929.591797 0.609375)"/>
      <use xlink:href="#DejaVuSans-32" transform="translate(993.214844 0.609375)"/>
     </g>
    </g>
   </g>
  </g>
  <g id="axes_2">
   <g id="patch_9">
    <path d="M 136.708594 562.68 
L 806.308594 562.68 
L 806.308594 299.34 
L 136.708594 299.34 
z
" style="fill: #ffffff"/>
   </g>
   <g id="matplotlib.axis_3">
    <g id="xtick_6">
     <g id="line2d_10">
      <g>
       <use xlink:href="#m911b53dde9" x="136.708594" y="562.68" style="stroke: #000000; stroke-width: 3"/>
      </g>
     </g>
     <g id="text_6">
      <!-- 66 -->
      <g transform="translate(120.025781 596.153437) scale(0.3 -0.3)">
       <defs>
        <path id="ArialMT-36" d="M 3184 3459 
L 2625 3416 
Q 2550 3747 2413 3897 
Q 2184 4138 1850 4138 
Q 1581 4138 1378 3988 
Q 1113 3794 959 3422 
Q 806 3050 800 2363 
Q 1003 2672 1297 2822 
Q 1591 2972 1913 2972 
Q 2475 2972 2870 2558 
Q 3266 2144 3266 1488 
Q 3266 1056 3080 686 
Q 2894 316 2569 119 
Q 2244 -78 1831 -78 
Q 1128 -78 684 439 
Q 241 956 241 2144 
Q 241 3472 731 4075 
Q 1159 4600 1884 4600 
Q 2425 4600 2770 4297 
Q 3116 3994 3184 3459 
z
M 888 1484 
Q 888 1194 1011 928 
Q 1134 663 1356 523 
Q 1578 384 1822 384 
Q 2178 384 2434 671 
Q 2691 959 2691 1453 
Q 2691 1928 2437 2201 
Q 2184 2475 1800 2475 
Q 1419 2475 1153 2201 
Q 888 1928 888 1484 
z
" transform="scale(0.015625)"/>
       </defs>
       <use xlink:href="#ArialMT-36"/>
       <use xlink:href="#ArialMT-36" x="55.615234"/>
      </g>
     </g>
    </g>
    <g id="xtick_7">
     <g id="line2d_11">
      <g>
       <use xlink:href="#m911b53dde9" x="285.508594" y="562.68" style="stroke: #000000; stroke-width: 3"/>
      </g>
     </g>
     <g id="text_7">
      <!-- 68 -->
      <g transform="translate(268.825781 596.153437) scale(0.3 -0.3)">
       <defs>
        <path id="ArialMT-38" d="M 1131 2484 
Q 781 2613 612 2850 
Q 444 3088 444 3419 
Q 444 3919 803 4259 
Q 1163 4600 1759 4600 
Q 2359 4600 2725 4251 
Q 3091 3903 3091 3403 
Q 3091 3084 2923 2848 
Q 2756 2613 2416 2484 
Q 2838 2347 3058 2040 
Q 3278 1734 3278 1309 
Q 3278 722 2862 322 
Q 2447 -78 1769 -78 
Q 1091 -78 675 323 
Q 259 725 259 1325 
Q 259 1772 486 2073 
Q 713 2375 1131 2484 
z
M 1019 3438 
Q 1019 3113 1228 2906 
Q 1438 2700 1772 2700 
Q 2097 2700 2305 2904 
Q 2513 3109 2513 3406 
Q 2513 3716 2298 3927 
Q 2084 4138 1766 4138 
Q 1444 4138 1231 3931 
Q 1019 3725 1019 3438 
z
M 838 1322 
Q 838 1081 952 856 
Q 1066 631 1291 507 
Q 1516 384 1775 384 
Q 2178 384 2440 643 
Q 2703 903 2703 1303 
Q 2703 1709 2433 1975 
Q 2163 2241 1756 2241 
Q 1359 2241 1098 1978 
Q 838 1716 838 1322 
z
" transform="scale(0.015625)"/>
       </defs>
       <use xlink:href="#ArialMT-36"/>
       <use xlink:href="#ArialMT-38" x="55.615234"/>
      </g>
     </g>
    </g>
    <g id="xtick_8">
     <g id="line2d_12">
      <g>
       <use xlink:href="#m911b53dde9" x="434.308594" y="562.68" style="stroke: #000000; stroke-width: 3"/>
      </g>
     </g>
     <g id="text_8">
      <!-- 70 -->
      <g transform="translate(417.625781 596.153437) scale(0.3 -0.3)">
       <defs>
        <path id="ArialMT-37" d="M 303 3981 
L 303 4522 
L 3269 4522 
L 3269 4084 
Q 2831 3619 2401 2847 
Q 1972 2075 1738 1259 
Q 1569 684 1522 0 
L 944 0 
Q 953 541 1156 1306 
Q 1359 2072 1739 2783 
Q 2119 3494 2547 3981 
L 303 3981 
z
" transform="scale(0.015625)"/>
       </defs>
       <use xlink:href="#ArialMT-37"/>
       <use xlink:href="#ArialMT-30" x="55.615234"/>
      </g>
     </g>
    </g>
    <g id="xtick_9">
     <g id="line2d_13">
      <g>
       <use xlink:href="#m911b53dde9" x="583.108594" y="562.68" style="stroke: #000000; stroke-width: 3"/>
      </g>
     </g>
     <g id="text_9">
      <!-- 72 -->
      <g transform="translate(566.425781 596.153437) scale(0.3 -0.3)">
       <use xlink:href="#ArialMT-37"/>
       <use xlink:href="#ArialMT-32" x="55.615234"/>
      </g>
     </g>
    </g>
    <g id="xtick_10">
     <g id="line2d_14">
      <g>
       <use xlink:href="#m911b53dde9" x="731.908594" y="562.68" style="stroke: #000000; stroke-width: 3"/>
      </g>
     </g>
     <g id="text_10">
      <!-- 74 -->
      <g transform="translate(715.225781 596.153437) scale(0.3 -0.3)">
       <use xlink:href="#ArialMT-37"/>
       <use xlink:href="#ArialMT-34" x="55.615234"/>
      </g>
     </g>
    </g>
    <g id="text_11">
     <!-- $\hat H_0$ (km s$^{-1}$ Mpc$^{-1}$) -->
     <g transform="translate(322.058594 651.065937) scale(0.35 -0.35)">
      <defs>
       <path id="ArialMT-28" d="M 1497 -1347 
Q 1031 -759 709 28 
Q 388 816 388 1659 
Q 388 2403 628 3084 
Q 909 3875 1497 4659 
L 1900 4659 
Q 1522 4009 1400 3731 
Q 1209 3300 1100 2831 
Q 966 2247 966 1656 
Q 966 153 1900 -1347 
L 1497 -1347 
z
" transform="scale(0.015625)"/>
       <path id="ArialMT-6b" d="M 425 0 
L 425 4581 
L 988 4581 
L 988 1969 
L 2319 3319 
L 3047 3319 
L 1778 2088 
L 3175 0 
L 2481 0 
L 1384 1697 
L 988 1316 
L 988 0 
L 425 0 
z
" transform="scale(0.015625)"/>
       <path id="ArialMT-6d" d="M 422 0 
L 422 3319 
L 925 3319 
L 925 2853 
Q 1081 3097 1340 3245 
Q 1600 3394 1931 3394 
Q 2300 3394 2536 3241 
Q 2772 3088 2869 2813 
Q 3263 3394 3894 3394 
Q 4388 3394 4653 3120 
Q 4919 2847 4919 2278 
L 4919 0 
L 4359 0 
L 4359 2091 
Q 4359 2428 4304 2576 
Q 4250 2725 4106 2815 
Q 3963 2906 3769 2906 
Q 3419 2906 3187 2673 
Q 2956 2441 2956 1928 
L 2956 0 
L 2394 0 
L 2394 2156 
Q 2394 2531 2256 2718 
Q 2119 2906 1806 2906 
Q 1569 2906 1367 2781 
Q 1166 2656 1075 2415 
Q 984 2175 984 1722 
L 984 0 
L 422 0 
z
" transform="scale(0.015625)"/>
       <path id="ArialMT-73" d="M 197 991 
L 753 1078 
Q 800 744 1014 566 
Q 1228 388 1613 388 
Q 2000 388 2187 545 
Q 2375 703 2375 916 
Q 2375 1106 2209 1216 
Q 2094 1291 1634 1406 
Q 1016 1563 777 1677 
Q 538 1791 414 1992 
Q 291 2194 291 2438 
Q 291 2659 392 2848 
Q 494 3038 669 3163 
Q 800 3259 1026 3326 
Q 1253 3394 1513 3394 
Q 1903 3394 2198 3281 
Q 2494 3169 2634 2976 
Q 2775 2784 2828 2463 
L 2278 2388 
Q 2241 2644 2061 2787 
Q 1881 2931 1553 2931 
Q 1166 2931 1000 2803 
Q 834 2675 834 2503 
Q 834 2394 903 2306 
Q 972 2216 1119 2156 
Q 1203 2125 1616 2013 
Q 2213 1853 2448 1751 
Q 2684 1650 2818 1456 
Q 2953 1263 2953 975 
Q 2953 694 2789 445 
Q 2625 197 2315 61 
Q 2006 -75 1616 -75 
Q 969 -75 630 194 
Q 291 463 197 991 
z
" transform="scale(0.015625)"/>
       <path id="Cmr10-31" d="M 594 0 
L 594 225 
Q 1394 225 1394 428 
L 1394 3788 
Q 1063 3628 556 3628 
L 556 3853 
Q 1341 3853 1741 4263 
L 1831 4263 
Q 1853 4263 1873 4245 
Q 1894 4228 1894 4206 
L 1894 428 
Q 1894 225 2694 225 
L 2694 0 
L 594 0 
z
" transform="scale(0.015625)"/>
       <path id="ArialMT-4d" d="M 475 0 
L 475 4581 
L 1388 4581 
L 2472 1338 
Q 2622 884 2691 659 
Q 2769 909 2934 1394 
L 4031 4581 
L 4847 4581 
L 4847 0 
L 4263 0 
L 4263 3834 
L 2931 0 
L 2384 0 
L 1059 3900 
L 1059 0 
L 475 0 
z
" transform="scale(0.015625)"/>
       <path id="ArialMT-70" d="M 422 -1272 
L 422 3319 
L 934 3319 
L 934 2888 
Q 1116 3141 1344 3267 
Q 1572 3394 1897 3394 
Q 2322 3394 2647 3175 
Q 2972 2956 3137 2557 
Q 3303 2159 3303 1684 
Q 3303 1175 3120 767 
Q 2938 359 2589 142 
Q 2241 -75 1856 -75 
Q 1575 -75 1351 44 
Q 1128 163 984 344 
L 984 -1272 
L 422 -1272 
z
M 931 1641 
Q 931 1000 1190 694 
Q 1450 388 1819 388 
Q 2194 388 2461 705 
Q 2728 1022 2728 1688 
Q 2728 2322 2467 2637 
Q 2206 2953 1844 2953 
Q 1484 2953 1207 2617 
Q 931 2281 931 1641 
z
" transform="scale(0.015625)"/>
       <path id="ArialMT-29" d="M 791 -1347 
L 388 -1347 
Q 1322 153 1322 1656 
Q 1322 2244 1188 2822 
Q 1081 3291 891 3722 
Q 769 4003 388 4659 
L 791 4659 
Q 1378 3875 1659 3084 
Q 1900 2403 1900 1659 
Q 1900 816 1576 28 
Q 1253 -759 791 -1347 
z
" transform="scale(0.015625)"/>
      </defs>
      <use xlink:href="#Cmr10-5e" transform="translate(27.609375 27.609375)"/>
      <use xlink:href="#Cmmi10-48" transform="translate(0 0.609375)"/>
      <use xlink:href="#Cmr10-30" transform="translate(89.026641 -16.396875) scale(0.7)"/>
      <use xlink:href="#ArialMT-20" transform="translate(130.403984 0.609375)"/>
      <use xlink:href="#ArialMT-28" transform="translate(158.187187 0.609375)"/>
      <use xlink:href="#ArialMT-6b" transform="translate(191.487969 0.609375)"/>
      <use xlink:href="#ArialMT-6d" transform="translate(241.487969 0.609375)"/>
      <use xlink:href="#ArialMT-20" transform="translate(324.78875 0.609375)"/>
      <use xlink:href="#ArialMT-73" transform="translate(352.571953 0.609375)"/>
      <use xlink:href="#Cmsy10-a1" transform="translate(407.036094 38.873438) scale(0.7)"/>
      <use xlink:href="#Cmr10-31" transform="translate(461.415977 38.873438) scale(0.7)"/>
      <use xlink:href="#ArialMT-20" transform="translate(502.79332 0.609375)"/>
      <use xlink:href="#ArialMT-4d" transform="translate(530.576523 0.609375)"/>
      <use xlink:href="#ArialMT-70" transform="translate(613.877305 0.609375)"/>
      <use xlink:href="#ArialMT-63" transform="translate(669.492539 0.609375)"/>
      <use xlink:href="#Cmsy10-a1" transform="translate(723.95668 38.873438) scale(0.7)"/>
      <use xlink:href="#Cmr10-31" transform="translate(778.336563 38.873438) scale(0.7)"/>
      <use xlink:href="#ArialMT-29" transform="translate(819.713906 0.609375)"/>
     </g>
    </g>
   </g>
   <g id="matplotlib.axis_4">
    <g id="ytick_4">
     <g id="line2d_15">
      <g>
       <use xlink:href="#m2a785f1801" x="136.708594" y="562.68" style="stroke: #000000; stroke-width: 3"/>
      </g>
     </g>
     <g id="text_12">
      <!-- 0.0 -->
      <g transform="translate(83.008594 573.416719) scale(0.3 -0.3)">
       <use xlink:href="#ArialMT-30"/>
       <use xlink:href="#ArialMT-2e" x="55.615234"/>
       <use xlink:href="#ArialMT-30" x="83.398438"/>
      </g>
     </g>
    </g>
    <g id="ytick_5">
     <g id="line2d_16">
      <g>
       <use xlink:href="#m2a785f1801" x="136.708594" y="455.194286" style="stroke: #000000; stroke-width: 3"/>
      </g>
     </g>
     <g id="text_13">
      <!-- 0.2 -->
      <g transform="translate(83.008594 465.931004) scale(0.3 -0.3)">
       <use xlink:href="#ArialMT-30"/>
       <use xlink:href="#ArialMT-2e" x="55.615234"/>
       <use xlink:href="#ArialMT-32" x="83.398438"/>
      </g>
     </g>
    </g>
    <g id="ytick_6">
     <g id="line2d_17">
      <g>
       <use xlink:href="#m2a785f1801" x="136.708594" y="347.708571" style="stroke: #000000; stroke-width: 3"/>
      </g>
     </g>
     <g id="text_14">
      <!-- 0.4 -->
      <g transform="translate(83.008594 358.44529) scale(0.3 -0.3)">
       <use xlink:href="#ArialMT-30"/>
       <use xlink:href="#ArialMT-2e" x="55.615234"/>
       <use xlink:href="#ArialMT-34" x="83.398438"/>
      </g>
     </g>
    </g>
    <g id="text_15">
     <!-- Included -->
     <g transform="translate(61.052344 497.168203) rotate(-90) scale(0.35 -0.35)">
      <use xlink:href="#ArialMT-49"/>
      <use xlink:href="#ArialMT-6e" x="27.783203"/>
      <use xlink:href="#ArialMT-63" x="83.398438"/>
      <use xlink:href="#ArialMT-6c" x="133.398438"/>
      <use xlink:href="#ArialMT-75" x="155.615234"/>
      <use xlink:href="#ArialMT-64" x="211.230469"/>
      <use xlink:href="#ArialMT-65" x="266.845703"/>
      <use xlink:href="#ArialMT-64" x="322.460938"/>
     </g>
    </g>
   </g>
   <g id="patch_10">
    <path d="M 162.944654 562.68 
L 162.944654 560.138641 
L 194.411824 560.138641 
L 194.411824 556.961943 
L 225.878995 556.961943 
L 225.878995 554.420584 
L 257.346166 554.420584 
L 257.346166 532.183695 
L 288.813337 532.183695 
L 288.813337 518.206221 
L 320.280508 518.206221 
L 320.280508 466.743706 
L 351.747679 466.743706 
L 351.747679 431.164683 
L 383.21485 431.164683 
L 383.21485 365.724694 
L 414.682021 365.724694 
L 414.682021 384.784885 
L 446.149192 384.784885 
L 446.149192 382.878866 
L 477.616363 382.878866 
L 477.616363 411.469152 
L 509.083534 411.469152 
L 509.083534 461.025648 
L 540.550705 461.025648 
L 540.550705 495.969332 
L 572.017876 495.969332 
L 572.017876 527.100977 
L 603.485047 527.100977 
L 603.485047 539.172431 
L 634.952218 539.172431 
L 634.952218 553.785244 
L 666.419388 553.785244 
L 666.419388 557.597282 
L 697.886559 557.597282 
L 697.886559 560.138641 
L 729.35373 560.138641 
L 729.35373 562.68 
L 760.820901 562.68 
L 760.820901 560.773981 
L 792.288072 560.773981 
L 792.288072 562.68 
" clip-path="url(#pb821887b9a)" style="fill: none; stroke: #ff00ff; stroke-width: 3.5; stroke-linejoin: miter"/>
   </g>
   <g id="LineCollection_3">
    <path d="M 434.875601 562.68 
L 434.875601 299.34 
" clip-path="url(#pb821887b9a)" style="fill: none; stroke-dasharray: 11.1,4.8; stroke-dashoffset: 0; stroke: #0000ff; stroke-width: 3"/>
   </g>
   <g id="LineCollection_4">
    <path d="M 434.308594 562.68 
L 434.308594 299.34 
" clip-path="url(#pb821887b9a)" style="fill: none; stroke-dasharray: 11.1,4.8; stroke-dashoffset: 0; stroke: #ff0000; stroke-width: 3"/>
   </g>
   <g id="patch_11">
    <path d="M 136.708594 562.68 
L 136.708594 299.34 
" style="fill: none; stroke: #000000; stroke-width: 3; stroke-linejoin: miter; stroke-linecap: square"/>
   </g>
   <g id="patch_12">
    <path d="M 806.308594 562.68 
L 806.308594 299.34 
" style="fill: none; stroke: #000000; stroke-width: 3; stroke-linejoin: miter; stroke-linecap: square"/>
   </g>
   <g id="patch_13">
    <path d="M 136.708594 562.68 
L 806.308594 562.68 
" style="fill: none; stroke: #000000; stroke-width: 3; stroke-linejoin: miter; stroke-linecap: square"/>
   </g>
   <g id="patch_14">
    <path d="M 136.708594 299.34 
L 806.308594 299.34 
" style="fill: none; stroke: #000000; stroke-width: 3; stroke-linejoin: miter; stroke-linecap: square"/>
   </g>
   <g id="legend_2">
    <g id="patch_15">
     <path d="M 471.558594 360.84 
L 788.808594 360.84 
Q 793.808594 360.84 793.808594 355.84 
L 793.808594 316.84 
Q 793.808594 311.84 788.808594 311.84 
L 471.558594 311.84 
Q 466.558594 311.84 466.558594 316.84 
L 466.558594 355.84 
Q 466.558594 360.84 471.558594 360.84 
z
" style="fill: #ffffff; stroke: #cccccc; stroke-linejoin: miter"/>
    </g>
    <g id="line2d_18">
     <path d="M 476.558594 337.12125 
L 526.558594 337.12125 
" style="fill: none; stroke-dasharray: 11.1,4.8; stroke-dashoffset: 0; stroke: #0000ff; stroke-width: 3"/>
    </g>
    <g id="text_16">
     <!-- $\hat H_0-H_0=0.01\pm0.02$ -->
     <g transform="translate(546.558594 345.87125) scale(0.25 -0.25)">
      <use xlink:href="#Cmr10-5e" transform="translate(27.609375 27.609375)"/>
      <use xlink:href="#Cmmi10-48" transform="translate(0 0.609375)"/>
      <use xlink:href="#Cmr10-30" transform="translate(89.026641 -16.396875) scale(0.7)"/>
      <use xlink:href="#Cmsy10-a1" transform="translate(147.962578 0.609375)"/>
      <use xlink:href="#Cmmi10-48" transform="translate(243.206719 0.609375)"/>
      <use xlink:href="#Cmr10-30" transform="translate(326.312187 -16.396875) scale(0.7)"/>
      <use xlink:href="#Cmr10-3d" transform="translate(385.248125 0.609375)"/>
      <use xlink:href="#Cmr10-30" transform="translate(480.492266 0.609375)"/>
      <use xlink:href="#Cmmi10-3a" transform="translate(530.492266 0.609375)"/>
      <use xlink:href="#Cmr10-30" transform="translate(558.177812 0.609375)"/>
      <use xlink:href="#Cmr10-31" transform="translate(608.177812 0.609375)"/>
      <use xlink:href="#Cmsy10-a7" transform="translate(675.736406 0.609375)"/>
      <use xlink:href="#Cmr10-30" transform="translate(770.980547 0.609375)"/>
      <use xlink:href="#Cmmi10-3a" transform="translate(820.980547 0.609375)"/>
      <use xlink:href="#Cmr10-30" transform="translate(848.666094 0.609375)"/>
      <use xlink:href="#Cmr10-32" transform="translate(898.666094 0.609375)"/>
     </g>
    </g>
   </g>
  </g>
  <g id="text_18">
   <!-- $P(\hat{H}_{0}|\text{sample})$ -->
   <g transform="translate(74.5 471.81375) rotate(-90) scale(0.35 -0.35)">
    <defs>
     <path id="DejaVuSans-Oblique-50" d="M 1081 4666 
L 2541 4666 
Q 3178 4666 3512 4369 
Q 3847 4072 3847 3500 
Q 3847 2731 3353 2303 
Q 2859 1875 1966 1875 
L 1172 1875 
L 806 0 
L 172 0 
L 1081 4666 
z
M 1613 4147 
L 1275 2394 
L 2069 2394 
Q 2606 2394 2893 2669 
Q 3181 2944 3181 3456 
Q 3181 3784 2986 3965 
Q 2791 4147 2438 4147 
L 1613 4147 
z
" transform="scale(0.015625)"/>
     <path id="DejaVuSans-7c" d="M 1344 4891 
L 1344 -1509 
L 813 -1509 
L 813 4891 
L 1344 4891 
z
" transform="scale(0.015625)"/>
     <path id="DejaVuSans-61" d="M 2194 1759 
Q 1497 1759 1228 1600 
Q 959 1441 959 1056 
Q 959 750 1161 570 
Q 1363 391 1709 391 
Q 2188 391 2477 730 
Q 2766 1069 2766 1631 
L 2766 1759 
L 2194 1759 
z
M 3341 1997 
L 3341 0 
L 2766 0 
L 2766 531 
Q 2569 213 2275 61 
Q 1981 -91 1556 -91 
Q 1019 -91 701 211 
Q 384 513 384 1019 
Q 384 1609 779 1909 
Q 1175 2209 1959 2209 
L 2766 2209 
L 2766 2266 
Q 2766 2663 2505 2880 
Q 2244 3097 1772 3097 
Q 1472 3097 1187 3025 
Q 903 2953 641 2809 
L 641 3341 
Q 956 3463 1253 3523 
Q 1550 3584 1831 3584 
Q 2591 3584 2966 3190 
Q 3341 2797 3341 1997 
z
" transform="scale(0.015625)"/>
    </defs>
    <use xlink:href="#DejaVuSans-Oblique-50" transform="translate(0 0.609375)"/>
    <use xlink:href="#DejaVuSans-28" transform="translate(60.302734 0.609375)"/>
    <use xlink:href="#DejaVuSans-302" transform="translate(171.693359 30.015625)"/>
    <use xlink:href="#DejaVuSans-Oblique-48" transform="translate(99.316406 0.609375)"/>
    <use xlink:href="#DejaVuSans-30" transform="translate(175.46875 -15.796875) scale(0.7)"/>
    <use xlink:href="#DejaVuSans-7c" transform="translate(222.739258 0.609375)"/>
    <use xlink:href="#DejaVuSans-73" transform="translate(256.430664 0.609375)"/>
    <use xlink:href="#DejaVuSans-61" transform="translate(308.530273 0.609375)"/>
    <use xlink:href="#DejaVuSans-6d" transform="translate(369.80957 0.609375)"/>
    <use xlink:href="#DejaVuSans-70" transform="translate(467.22168 0.609375)"/>
    <use xlink:href="#DejaVuSans-6c" transform="translate(530.698242 0.609375)"/>
    <use xlink:href="#DejaVuSans-65" transform="translate(558.481445 0.609375)"/>
    <use xlink:href="#DejaVuSans-29" transform="translate(620.004883 0.609375)"/>
   </g>
  </g>
 </g>
 <defs>
  <clipPath id="pa977ce109d">
   <rect x="136.708594" y="36" width="669.6" height="263.34"/>
  </clipPath>
  <clipPath id="pb821887b9a">
   <rect x="136.708594" y="299.34" width="669.6" height="263.34"/>
  </clipPath>
 </defs>
 <defs>
  <pattern id="hb57496fa35" patternUnits="userSpaceOnUse" x="0" y="0" width="72" height="72">
   <rect x="0" y="0" width="73" height="73" fill="none"/>
   <path d="M -36 36 
L 36 -36 
M -30 42 
L 42 -30 
M -24 48 
L 48 -24 
M -18 54 
L 54 -18 
M -12 60 
L 60 -12 
M -6 66 
L 66 -6 
M 0 72 
L 72 0 
M 6 78 
L 78 6 
M 12 84 
L 84 12 
M 18 90 
L 90 18 
M 24 96 
L 96 24 
M 30 102 
L 102 30 
M 36 108 
L 108 36 
" style="fill: #e16462; stroke: #e16462; stroke-width: 1.0; stroke-linecap: butt; stroke-linejoin: miter"/>
  </pattern>
 </defs>
</svg>
