<?xml version="1.0" encoding="utf-8" standalone="no"?>
<!DOCTYPE svg PUBLIC "-//W3C//DTD SVG 1.1//EN"
  "http://www.w3.org/Graphics/SVG/1.1/DTD/svg11.dtd">
<svg xmlns:xlink="http://www.w3.org/1999/xlink" width="887.384375pt" height="785.678125pt" viewBox="0 0 887.384375 785.678125" xmlns="http://www.w3.org/2000/svg" version="1.1">
 <metadata>
  <rdf:RDF xmlns:dc="http://purl.org/dc/elements/1.1/" xmlns:cc="http://creativecommons.org/ns#" xmlns:rdf="http://www.w3.org/1999/02/22-rdf-syntax-ns#">
   <cc:Work>
    <dc:type rdf:resource="http://purl.org/dc/dcmitype/StillImage"/>
    <dc:date>2024-03-21T21:02:46.054620</dc:date>
    <dc:format>image/svg+xml</dc:format>
    <dc:creator>
     <cc:Agent>
      <dc:title>Matplotlib v3.8.0, https://matplotlib.org/</dc:title>
     </cc:Agent>
    </dc:creator>
   </cc:Work>
  </rdf:RDF>
 </metadata>
 <defs>
  <style type="text/css">*{stroke-linejoin: round; stroke-linecap: butt}</style>
 </defs>
 <g id="figure_1">
  <g id="patch_1">
   <path d="M 0 785.678125 
L 887.384375 785.678125 
L 887.384375 0 
L 0 0 
z
" style="fill: #ffffff"/>
  </g>
  <g id="axes_1">
   <g id="patch_2">
    <path d="M 162.696875 281.19375 
L 832.296875 281.19375 
L 832.296875 96.39375 
L 162.696875 96.39375 
z
" style="fill: #ffffff"/>
   </g>
   <g id="matplotlib.axis_1">
    <g id="xtick_1">
     <g id="line2d_1">
      <defs>
       <path id="m7040c3ce8a" d="M 0 0 
L 0 -8 
" style="stroke: #000000; stroke-width: 3"/>
      </defs>
      <g>
       <use xlink:href="#m7040c3ce8a" x="162.696875" y="281.19375" style="stroke: #000000; stroke-width: 3"/>
      </g>
     </g>
    </g>
    <g id="xtick_2">
     <g id="line2d_2">
      <g>
       <use xlink:href="#m7040c3ce8a" x="330.096875" y="281.19375" style="stroke: #000000; stroke-width: 3"/>
      </g>
     </g>
    </g>
    <g id="xtick_3">
     <g id="line2d_3">
      <g>
       <use xlink:href="#m7040c3ce8a" x="497.496875" y="281.19375" style="stroke: #000000; stroke-width: 3"/>
      </g>
     </g>
    </g>
    <g id="xtick_4">
     <g id="line2d_4">
      <g>
       <use xlink:href="#m7040c3ce8a" x="664.896875" y="281.19375" style="stroke: #000000; stroke-width: 3"/>
      </g>
     </g>
    </g>
    <g id="xtick_5">
     <g id="line2d_5">
      <g>
       <use xlink:href="#m7040c3ce8a" x="832.296875" y="281.19375" style="stroke: #000000; stroke-width: 3"/>
      </g>
     </g>
    </g>
   </g>
   <g id="matplotlib.axis_2">
    <g id="ytick_1">
     <g id="line2d_6">
      <defs>
       <path id="m9ba7aa5664" d="M 0 0 
L 8 0 
" style="stroke: #000000; stroke-width: 3"/>
      </defs>
      <g>
       <use xlink:href="#m9ba7aa5664" x="162.696875" y="281.19375" style="stroke: #000000; stroke-width: 3"/>
      </g>
     </g>
     <g id="text_1">
      <!-- 0.0 -->
      <g transform="translate(105.9875 292.591406) scale(0.3 -0.3)">
       <defs>
        <path id="DejaVuSans-30" d="M 2034 4250 
Q 1547 4250 1301 3770 
Q 1056 3291 1056 2328 
Q 1056 1369 1301 889 
Q 1547 409 2034 409 
Q 2525 409 2770 889 
Q 3016 1369 3016 2328 
Q 3016 3291 2770 3770 
Q 2525 4250 2034 4250 
z
M 2034 4750 
Q 2819 4750 3233 4129 
Q 3647 3509 3647 2328 
Q 3647 1150 3233 529 
Q 2819 -91 2034 -91 
Q 1250 -91 836 529 
Q 422 1150 422 2328 
Q 422 3509 836 4129 
Q 1250 4750 2034 4750 
z
" transform="scale(0.015625)"/>
        <path id="DejaVuSans-2e" d="M 684 794 
L 1344 794 
L 1344 0 
L 684 0 
L 684 794 
z
" transform="scale(0.015625)"/>
       </defs>
       <use xlink:href="#DejaVuSans-30"/>
       <use xlink:href="#DejaVuSans-2e" x="63.623047"/>
       <use xlink:href="#DejaVuSans-30" x="95.410156"/>
      </g>
     </g>
    </g>
    <g id="ytick_2">
     <g id="line2d_7">
      <g>
       <use xlink:href="#m9ba7aa5664" x="162.696875" y="205.765179" style="stroke: #000000; stroke-width: 3"/>
      </g>
     </g>
     <g id="text_2">
      <!-- 0.2 -->
      <g transform="translate(105.9875 217.162835) scale(0.3 -0.3)">
       <defs>
        <path id="DejaVuSans-32" d="M 1228 531 
L 3431 531 
L 3431 0 
L 469 0 
L 469 531 
Q 828 903 1448 1529 
Q 2069 2156 2228 2338 
Q 2531 2678 2651 2914 
Q 2772 3150 2772 3378 
Q 2772 3750 2511 3984 
Q 2250 4219 1831 4219 
Q 1534 4219 1204 4116 
Q 875 4013 500 3803 
L 500 4441 
Q 881 4594 1212 4672 
Q 1544 4750 1819 4750 
Q 2544 4750 2975 4387 
Q 3406 4025 3406 3419 
Q 3406 3131 3298 2873 
Q 3191 2616 2906 2266 
Q 2828 2175 2409 1742 
Q 1991 1309 1228 531 
z
" transform="scale(0.015625)"/>
       </defs>
       <use xlink:href="#DejaVuSans-30"/>
       <use xlink:href="#DejaVuSans-2e" x="63.623047"/>
       <use xlink:href="#DejaVuSans-32" x="95.410156"/>
      </g>
     </g>
    </g>
    <g id="ytick_3">
     <g id="line2d_8">
      <g>
       <use xlink:href="#m9ba7aa5664" x="162.696875" y="130.336607" style="stroke: #000000; stroke-width: 3"/>
      </g>
     </g>
     <g id="text_3">
      <!-- 0.4 -->
      <g transform="translate(105.9875 141.734263) scale(0.3 -0.3)">
       <defs>
        <path id="DejaVuSans-34" d="M 2419 4116 
L 825 1625 
L 2419 1625 
L 2419 4116 
z
M 2253 4666 
L 3047 4666 
L 3047 1625 
L 3713 1625 
L 3713 1100 
L 3047 1100 
L 3047 0 
L 2419 0 
L 2419 1100 
L 313 1100 
L 313 1709 
L 2253 4666 
z
" transform="scale(0.015625)"/>
       </defs>
       <use xlink:href="#DejaVuSans-30"/>
       <use xlink:href="#DejaVuSans-2e" x="63.623047"/>
       <use xlink:href="#DejaVuSans-34" x="95.410156"/>
      </g>
     </g>
    </g>
   </g>
   <g id="patch_3">
    <path d="M 432.170511 281.19375 
L 432.170511 279.841057 
L 441.505036 279.841057 
L 441.505036 278.150192 
L 450.839561 278.150192 
L 450.839561 270.372209 
L 460.174086 270.372209 
L 460.174086 257.859802 
L 469.50861 257.859802 
L 469.50861 225.057006 
L 478.843135 225.057006 
L 478.843135 184.8144 
L 488.17766 184.8144 
L 488.17766 154.716989 
L 497.512185 154.716989 
L 497.512185 149.644392 
L 506.846709 149.644392 
L 506.846709 175.683725 
L 516.181234 175.683725 
L 516.181234 214.573638 
L 525.515759 214.573638 
L 525.515759 250.758166 
L 534.850284 250.758166 
L 534.850284 263.270573 
L 544.184809 263.270573 
L 544.184809 277.135672 
L 553.519333 277.135672 
L 553.519333 279.502884 
L 562.853858 279.502884 
L 562.853858 280.517404 
L 572.188383 280.517404 
L 572.188383 281.19375 
L 581.522908 281.19375 
L 581.522908 281.19375 
L 590.857432 281.19375 
L 590.857432 281.19375 
L 600.191957 281.19375 
L 600.191957 281.19375 
L 609.526482 281.19375 
L 609.526482 281.19375 
L 618.861007 281.19375 
L 618.861007 281.19375 
L 628.195531 281.19375 
L 628.195531 280.855577 
L 637.530056 280.855577 
L 637.530056 281.19375 
" clip-path="url(#pc0b9a5a8fa)" style="fill: url(#h82f292538c); stroke: #e16462; stroke-width: 3; stroke-linejoin: miter"/>
   </g>
   <g id="LineCollection_1">
    <path d="M 498.314441 281.19375 
L 498.314441 96.39375 
" clip-path="url(#pc0b9a5a8fa)" style="fill: none; stroke-dasharray: 11.1,4.8; stroke-dashoffset: 0; stroke: #ff0000; stroke-width: 3"/>
   </g>
   <g id="LineCollection_2">
    <path d="M 497.496875 281.19375 
L 497.496875 96.39375 
" clip-path="url(#pc0b9a5a8fa)" style="fill: none; stroke-dasharray: 11.1,4.8; stroke-dashoffset: 0; stroke: #000000; stroke-width: 3"/>
   </g>
   <g id="patch_4">
    <path d="M 162.696875 281.19375 
L 162.696875 96.39375 
" style="fill: none; stroke: #000000; stroke-width: 3; stroke-linejoin: miter; stroke-linecap: square"/>
   </g>
   <g id="patch_5">
    <path d="M 832.296875 281.19375 
L 832.296875 96.39375 
" style="fill: none; stroke: #000000; stroke-width: 3; stroke-linejoin: miter; stroke-linecap: square"/>
   </g>
   <g id="patch_6">
    <path d="M 162.696875 281.19375 
L 832.296875 281.19375 
" style="fill: none; stroke: #000000; stroke-width: 3; stroke-linejoin: miter; stroke-linecap: square"/>
   </g>
   <g id="patch_7">
    <path d="M 162.696875 96.39375 
L 832.296875 96.39375 
" style="fill: none; stroke: #000000; stroke-width: 3; stroke-linejoin: miter; stroke-linecap: square"/>
   </g>
   <g id="text_4">
    <!-- $F_{\mathrm{min}}/F_* = 0.01$ -->
    <g transform="translate(204.546875 168.050893) scale(0.35 -0.35)">
     <defs>
      <path id="DejaVuSans-Oblique-46" d="M 1081 4666 
L 3756 4666 
L 3653 4134 
L 1606 4134 
L 1338 2759 
L 3188 2759 
L 3084 2228 
L 1234 2228 
L 800 0 
L 172 0 
L 1081 4666 
z
" transform="scale(0.015625)"/>
      <path id="DejaVuSans-6d" d="M 3328 2828 
Q 3544 3216 3844 3400 
Q 4144 3584 4550 3584 
Q 5097 3584 5394 3201 
Q 5691 2819 5691 2113 
L 5691 0 
L 5113 0 
L 5113 2094 
Q 5113 2597 4934 2840 
Q 4756 3084 4391 3084 
Q 3944 3084 3684 2787 
Q 3425 2491 3425 1978 
L 3425 0 
L 2847 0 
L 2847 2094 
Q 2847 2600 2669 2842 
Q 2491 3084 2119 3084 
Q 1678 3084 1418 2786 
Q 1159 2488 1159 1978 
L 1159 0 
L 581 0 
L 581 3500 
L 1159 3500 
L 1159 2956 
Q 1356 3278 1631 3431 
Q 1906 3584 2284 3584 
Q 2666 3584 2933 3390 
Q 3200 3197 3328 2828 
z
" transform="scale(0.015625)"/>
      <path id="DejaVuSans-69" d="M 603 3500 
L 1178 3500 
L 1178 0 
L 603 0 
L 603 3500 
z
M 603 4863 
L 1178 4863 
L 1178 4134 
L 603 4134 
L 603 4863 
z
" transform="scale(0.015625)"/>
      <path id="DejaVuSans-6e" d="M 3513 2113 
L 3513 0 
L 2938 0 
L 2938 2094 
Q 2938 2591 2744 2837 
Q 2550 3084 2163 3084 
Q 1697 3084 1428 2787 
Q 1159 2491 1159 1978 
L 1159 0 
L 581 0 
L 581 3500 
L 1159 3500 
L 1159 2956 
Q 1366 3272 1645 3428 
Q 1925 3584 2291 3584 
Q 2894 3584 3203 3211 
Q 3513 2838 3513 2113 
z
" transform="scale(0.015625)"/>
      <path id="DejaVuSans-2f" d="M 1625 4666 
L 2156 4666 
L 531 -594 
L 0 -594 
L 1625 4666 
z
" transform="scale(0.015625)"/>
      <path id="DejaVuSans-2a" d="M 3009 3897 
L 1888 3291 
L 3009 2681 
L 2828 2375 
L 1778 3009 
L 1778 1831 
L 1422 1831 
L 1422 3009 
L 372 2375 
L 191 2681 
L 1313 3291 
L 191 3897 
L 372 4206 
L 1422 3572 
L 1422 4750 
L 1778 4750 
L 1778 3572 
L 2828 4206 
L 3009 3897 
z
" transform="scale(0.015625)"/>
      <path id="DejaVuSans-3d" d="M 678 2906 
L 4684 2906 
L 4684 2381 
L 678 2381 
L 678 2906 
z
M 678 1631 
L 4684 1631 
L 4684 1100 
L 678 1100 
L 678 1631 
z
" transform="scale(0.015625)"/>
      <path id="DejaVuSans-31" d="M 794 531 
L 1825 531 
L 1825 4091 
L 703 3866 
L 703 4441 
L 1819 4666 
L 2450 4666 
L 2450 531 
L 3481 531 
L 3481 0 
L 794 0 
L 794 531 
z
" transform="scale(0.015625)"/>
     </defs>
     <use xlink:href="#DejaVuSans-Oblique-46" transform="translate(0 0.78125)"/>
     <use xlink:href="#DejaVuSans-6d" transform="translate(57.519531 -15.625) scale(0.7)"/>
     <use xlink:href="#DejaVuSans-69" transform="translate(125.708008 -15.625) scale(0.7)"/>
     <use xlink:href="#DejaVuSans-6e" transform="translate(145.15625 -15.625) scale(0.7)"/>
     <use xlink:href="#DejaVuSans-2f" transform="translate(192.255859 0.78125)"/>
     <use xlink:href="#DejaVuSans-Oblique-46" transform="translate(225.947266 0.78125)"/>
     <use xlink:href="#DejaVuSans-2a" transform="translate(297.104492 -15.625) scale(0.7)"/>
     <use xlink:href="#DejaVuSans-3d" transform="translate(367.958984 0.78125)"/>
     <use xlink:href="#DejaVuSans-30" transform="translate(471.230469 0.78125)"/>
     <use xlink:href="#DejaVuSans-2e" transform="translate(534.853516 0.78125)"/>
     <use xlink:href="#DejaVuSans-30" transform="translate(566.640625 0.78125)"/>
     <use xlink:href="#DejaVuSans-31" transform="translate(630.263672 0.78125)"/>
    </g>
   </g>
   <g id="text_5">
    <!-- $f_{\mathrm{det}} = 49\%$ -->
    <g transform="translate(204.546875 217.079464) scale(0.35 -0.35)">
     <defs>
      <path id="DejaVuSans-Oblique-66" d="M 3059 4863 
L 2969 4384 
L 2419 4384 
Q 2106 4384 1964 4261 
Q 1822 4138 1753 3809 
L 1691 3500 
L 2638 3500 
L 2553 3053 
L 1606 3053 
L 1013 0 
L 434 0 
L 1031 3053 
L 481 3053 
L 563 3500 
L 1113 3500 
L 1159 3744 
Q 1278 4363 1576 4613 
Q 1875 4863 2516 4863 
L 3059 4863 
z
" transform="scale(0.015625)"/>
      <path id="DejaVuSans-64" d="M 2906 2969 
L 2906 4863 
L 3481 4863 
L 3481 0 
L 2906 0 
L 2906 525 
Q 2725 213 2448 61 
Q 2172 -91 1784 -91 
Q 1150 -91 751 415 
Q 353 922 353 1747 
Q 353 2572 751 3078 
Q 1150 3584 1784 3584 
Q 2172 3584 2448 3432 
Q 2725 3281 2906 2969 
z
M 947 1747 
Q 947 1113 1208 752 
Q 1469 391 1925 391 
Q 2381 391 2643 752 
Q 2906 1113 2906 1747 
Q 2906 2381 2643 2742 
Q 2381 3103 1925 3103 
Q 1469 3103 1208 2742 
Q 947 2381 947 1747 
z
" transform="scale(0.015625)"/>
      <path id="DejaVuSans-65" d="M 3597 1894 
L 3597 1613 
L 953 1613 
Q 991 1019 1311 708 
Q 1631 397 2203 397 
Q 2534 397 2845 478 
Q 3156 559 3463 722 
L 3463 178 
Q 3153 47 2828 -22 
Q 2503 -91 2169 -91 
Q 1331 -91 842 396 
Q 353 884 353 1716 
Q 353 2575 817 3079 
Q 1281 3584 2069 3584 
Q 2775 3584 3186 3129 
Q 3597 2675 3597 1894 
z
M 3022 2063 
Q 3016 2534 2758 2815 
Q 2500 3097 2075 3097 
Q 1594 3097 1305 2825 
Q 1016 2553 972 2059 
L 3022 2063 
z
" transform="scale(0.015625)"/>
      <path id="DejaVuSans-74" d="M 1172 4494 
L 1172 3500 
L 2356 3500 
L 2356 3053 
L 1172 3053 
L 1172 1153 
Q 1172 725 1289 603 
Q 1406 481 1766 481 
L 2356 481 
L 2356 0 
L 1766 0 
Q 1100 0 847 248 
Q 594 497 594 1153 
L 594 3053 
L 172 3053 
L 172 3500 
L 594 3500 
L 594 4494 
L 1172 4494 
z
" transform="scale(0.015625)"/>
      <path id="DejaVuSans-39" d="M 703 97 
L 703 672 
Q 941 559 1184 500 
Q 1428 441 1663 441 
Q 2288 441 2617 861 
Q 2947 1281 2994 2138 
Q 2813 1869 2534 1725 
Q 2256 1581 1919 1581 
Q 1219 1581 811 2004 
Q 403 2428 403 3163 
Q 403 3881 828 4315 
Q 1253 4750 1959 4750 
Q 2769 4750 3195 4129 
Q 3622 3509 3622 2328 
Q 3622 1225 3098 567 
Q 2575 -91 1691 -91 
Q 1453 -91 1209 -44 
Q 966 3 703 97 
z
M 1959 2075 
Q 2384 2075 2632 2365 
Q 2881 2656 2881 3163 
Q 2881 3666 2632 3958 
Q 2384 4250 1959 4250 
Q 1534 4250 1286 3958 
Q 1038 3666 1038 3163 
Q 1038 2656 1286 2365 
Q 1534 2075 1959 2075 
z
" transform="scale(0.015625)"/>
      <path id="DejaVuSans-25" d="M 4653 2053 
Q 4381 2053 4226 1822 
Q 4072 1591 4072 1178 
Q 4072 772 4226 539 
Q 4381 306 4653 306 
Q 4919 306 5073 539 
Q 5228 772 5228 1178 
Q 5228 1588 5073 1820 
Q 4919 2053 4653 2053 
z
M 4653 2450 
Q 5147 2450 5437 2106 
Q 5728 1763 5728 1178 
Q 5728 594 5436 251 
Q 5144 -91 4653 -91 
Q 4153 -91 3862 251 
Q 3572 594 3572 1178 
Q 3572 1766 3864 2108 
Q 4156 2450 4653 2450 
z
M 1428 4353 
Q 1159 4353 1004 4120 
Q 850 3888 850 3481 
Q 850 3069 1003 2837 
Q 1156 2606 1428 2606 
Q 1700 2606 1854 2837 
Q 2009 3069 2009 3481 
Q 2009 3884 1853 4118 
Q 1697 4353 1428 4353 
z
M 4250 4750 
L 4750 4750 
L 1831 -91 
L 1331 -91 
L 4250 4750 
z
M 1428 4750 
Q 1922 4750 2215 4408 
Q 2509 4066 2509 3481 
Q 2509 2891 2217 2550 
Q 1925 2209 1428 2209 
Q 931 2209 642 2551 
Q 353 2894 353 3481 
Q 353 4063 643 4406 
Q 934 4750 1428 4750 
z
" transform="scale(0.015625)"/>
     </defs>
     <use xlink:href="#DejaVuSans-Oblique-66" transform="translate(0 0.015625)"/>
     <use xlink:href="#DejaVuSans-64" transform="translate(35.205078 -16.390625) scale(0.7)"/>
     <use xlink:href="#DejaVuSans-65" transform="translate(79.638672 -16.390625) scale(0.7)"/>
     <use xlink:href="#DejaVuSans-74" transform="translate(122.705078 -16.390625) scale(0.7)"/>
     <use xlink:href="#DejaVuSans-3d" transform="translate(172.368164 0.015625)"/>
     <use xlink:href="#DejaVuSans-34" transform="translate(275.639648 0.015625)"/>
     <use xlink:href="#DejaVuSans-39" transform="translate(339.262695 0.015625)"/>
     <use xlink:href="#DejaVuSans-25" transform="translate(402.885742 0.015625)"/>
    </g>
   </g>
   <g id="text_6">
    <!-- Survey completeness -->
    <g transform="translate(282.325 66.39375) scale(0.4 -0.4)">
     <defs>
      <path id="DejaVuSans-53" d="M 3425 4513 
L 3425 3897 
Q 3066 4069 2747 4153 
Q 2428 4238 2131 4238 
Q 1616 4238 1336 4038 
Q 1056 3838 1056 3469 
Q 1056 3159 1242 3001 
Q 1428 2844 1947 2747 
L 2328 2669 
Q 3034 2534 3370 2195 
Q 3706 1856 3706 1288 
Q 3706 609 3251 259 
Q 2797 -91 1919 -91 
Q 1588 -91 1214 -16 
Q 841 59 441 206 
L 441 856 
Q 825 641 1194 531 
Q 1563 422 1919 422 
Q 2459 422 2753 634 
Q 3047 847 3047 1241 
Q 3047 1584 2836 1778 
Q 2625 1972 2144 2069 
L 1759 2144 
Q 1053 2284 737 2584 
Q 422 2884 422 3419 
Q 422 4038 858 4394 
Q 1294 4750 2059 4750 
Q 2388 4750 2728 4690 
Q 3069 4631 3425 4513 
z
" transform="scale(0.015625)"/>
      <path id="DejaVuSans-75" d="M 544 1381 
L 544 3500 
L 1119 3500 
L 1119 1403 
Q 1119 906 1312 657 
Q 1506 409 1894 409 
Q 2359 409 2629 706 
Q 2900 1003 2900 1516 
L 2900 3500 
L 3475 3500 
L 3475 0 
L 2900 0 
L 2900 538 
Q 2691 219 2414 64 
Q 2138 -91 1772 -91 
Q 1169 -91 856 284 
Q 544 659 544 1381 
z
M 1991 3584 
L 1991 3584 
z
" transform="scale(0.015625)"/>
      <path id="DejaVuSans-72" d="M 2631 2963 
Q 2534 3019 2420 3045 
Q 2306 3072 2169 3072 
Q 1681 3072 1420 2755 
Q 1159 2438 1159 1844 
L 1159 0 
L 581 0 
L 581 3500 
L 1159 3500 
L 1159 2956 
Q 1341 3275 1631 3429 
Q 1922 3584 2338 3584 
Q 2397 3584 2469 3576 
Q 2541 3569 2628 3553 
L 2631 2963 
z
" transform="scale(0.015625)"/>
      <path id="DejaVuSans-76" d="M 191 3500 
L 800 3500 
L 1894 563 
L 2988 3500 
L 3597 3500 
L 2284 0 
L 1503 0 
L 191 3500 
z
" transform="scale(0.015625)"/>
      <path id="DejaVuSans-79" d="M 2059 -325 
Q 1816 -950 1584 -1140 
Q 1353 -1331 966 -1331 
L 506 -1331 
L 506 -850 
L 844 -850 
Q 1081 -850 1212 -737 
Q 1344 -625 1503 -206 
L 1606 56 
L 191 3500 
L 800 3500 
L 1894 763 
L 2988 3500 
L 3597 3500 
L 2059 -325 
z
" transform="scale(0.015625)"/>
      <path id="DejaVuSans-20" transform="scale(0.015625)"/>
      <path id="DejaVuSans-63" d="M 3122 3366 
L 3122 2828 
Q 2878 2963 2633 3030 
Q 2388 3097 2138 3097 
Q 1578 3097 1268 2742 
Q 959 2388 959 1747 
Q 959 1106 1268 751 
Q 1578 397 2138 397 
Q 2388 397 2633 464 
Q 2878 531 3122 666 
L 3122 134 
Q 2881 22 2623 -34 
Q 2366 -91 2075 -91 
Q 1284 -91 818 406 
Q 353 903 353 1747 
Q 353 2603 823 3093 
Q 1294 3584 2113 3584 
Q 2378 3584 2631 3529 
Q 2884 3475 3122 3366 
z
" transform="scale(0.015625)"/>
      <path id="DejaVuSans-6f" d="M 1959 3097 
Q 1497 3097 1228 2736 
Q 959 2375 959 1747 
Q 959 1119 1226 758 
Q 1494 397 1959 397 
Q 2419 397 2687 759 
Q 2956 1122 2956 1747 
Q 2956 2369 2687 2733 
Q 2419 3097 1959 3097 
z
M 1959 3584 
Q 2709 3584 3137 3096 
Q 3566 2609 3566 1747 
Q 3566 888 3137 398 
Q 2709 -91 1959 -91 
Q 1206 -91 779 398 
Q 353 888 353 1747 
Q 353 2609 779 3096 
Q 1206 3584 1959 3584 
z
" transform="scale(0.015625)"/>
      <path id="DejaVuSans-70" d="M 1159 525 
L 1159 -1331 
L 581 -1331 
L 581 3500 
L 1159 3500 
L 1159 2969 
Q 1341 3281 1617 3432 
Q 1894 3584 2278 3584 
Q 2916 3584 3314 3078 
Q 3713 2572 3713 1747 
Q 3713 922 3314 415 
Q 2916 -91 2278 -91 
Q 1894 -91 1617 61 
Q 1341 213 1159 525 
z
M 3116 1747 
Q 3116 2381 2855 2742 
Q 2594 3103 2138 3103 
Q 1681 3103 1420 2742 
Q 1159 2381 1159 1747 
Q 1159 1113 1420 752 
Q 1681 391 2138 391 
Q 2594 391 2855 752 
Q 3116 1113 3116 1747 
z
" transform="scale(0.015625)"/>
      <path id="DejaVuSans-6c" d="M 603 4863 
L 1178 4863 
L 1178 0 
L 603 0 
L 603 4863 
z
" transform="scale(0.015625)"/>
      <path id="DejaVuSans-73" d="M 2834 3397 
L 2834 2853 
Q 2591 2978 2328 3040 
Q 2066 3103 1784 3103 
Q 1356 3103 1142 2972 
Q 928 2841 928 2578 
Q 928 2378 1081 2264 
Q 1234 2150 1697 2047 
L 1894 2003 
Q 2506 1872 2764 1633 
Q 3022 1394 3022 966 
Q 3022 478 2636 193 
Q 2250 -91 1575 -91 
Q 1294 -91 989 -36 
Q 684 19 347 128 
L 347 722 
Q 666 556 975 473 
Q 1284 391 1588 391 
Q 1994 391 2212 530 
Q 2431 669 2431 922 
Q 2431 1156 2273 1281 
Q 2116 1406 1581 1522 
L 1381 1569 
Q 847 1681 609 1914 
Q 372 2147 372 2553 
Q 372 3047 722 3315 
Q 1072 3584 1716 3584 
Q 2034 3584 2315 3537 
Q 2597 3491 2834 3397 
z
" transform="scale(0.015625)"/>
     </defs>
     <use xlink:href="#DejaVuSans-53"/>
     <use xlink:href="#DejaVuSans-75" x="63.476562"/>
     <use xlink:href="#DejaVuSans-72" x="126.855469"/>
     <use xlink:href="#DejaVuSans-76" x="167.96875"/>
     <use xlink:href="#DejaVuSans-65" x="227.148438"/>
     <use xlink:href="#DejaVuSans-79" x="288.671875"/>
     <use xlink:href="#DejaVuSans-20" x="347.851562"/>
     <use xlink:href="#DejaVuSans-63" x="379.638672"/>
     <use xlink:href="#DejaVuSans-6f" x="434.619141"/>
     <use xlink:href="#DejaVuSans-6d" x="495.800781"/>
     <use xlink:href="#DejaVuSans-70" x="593.212891"/>
     <use xlink:href="#DejaVuSans-6c" x="656.689453"/>
     <use xlink:href="#DejaVuSans-65" x="684.472656"/>
     <use xlink:href="#DejaVuSans-74" x="745.996094"/>
     <use xlink:href="#DejaVuSans-65" x="785.205078"/>
     <use xlink:href="#DejaVuSans-6e" x="846.728516"/>
     <use xlink:href="#DejaVuSans-65" x="910.107422"/>
     <use xlink:href="#DejaVuSans-73" x="971.630859"/>
     <use xlink:href="#DejaVuSans-73" x="1023.730469"/>
    </g>
   </g>
   <g id="legend_1">
    <g id="patch_8">
     <path d="M 542.296875 147.99375 
L 818.296875 147.99375 
Q 822.296875 147.99375 822.296875 143.99375 
L 822.296875 110.39375 
Q 822.296875 106.39375 818.296875 106.39375 
L 542.296875 106.39375 
Q 538.296875 106.39375 538.296875 110.39375 
L 538.296875 143.99375 
Q 538.296875 147.99375 542.296875 147.99375 
z
" style="fill: #ffffff; opacity: 0.8; stroke: #cccccc; stroke-linejoin: miter"/>
    </g>
    <g id="line2d_9">
     <path d="M 546.296875 128.834375 
L 586.296875 128.834375 
" style="fill: none; stroke-dasharray: 11.1,4.8; stroke-dashoffset: 0; stroke: #ff0000; stroke-width: 3"/>
    </g>
    <g id="text_7">
     <!-- $\hat H_0-H_0=0.05\pm0.03$ -->
     <g transform="translate(602.296875 135.834375) scale(0.2 -0.2)">
      <defs>
       <path id="DejaVuSans-302" d="M -1831 5119 
L -1369 5119 
L -603 3944 
L -1038 3944 
L -1600 4709 
L -2163 3944 
L -2597 3944 
L -1831 5119 
z
M -1600 3584 
L -1600 3584 
z
" transform="scale(0.015625)"/>
       <path id="DejaVuSans-Oblique-48" d="M 1081 4666 
L 1716 4666 
L 1344 2753 
L 3634 2753 
L 4006 4666 
L 4641 4666 
L 3731 0 
L 3097 0 
L 3531 2222 
L 1241 2222 
L 806 0 
L 172 0 
L 1081 4666 
z
" transform="scale(0.015625)"/>
       <path id="DejaVuSans-2212" d="M 678 2272 
L 4684 2272 
L 4684 1741 
L 678 1741 
L 678 2272 
z
" transform="scale(0.015625)"/>
       <path id="DejaVuSans-35" d="M 691 4666 
L 3169 4666 
L 3169 4134 
L 1269 4134 
L 1269 2991 
Q 1406 3038 1543 3061 
Q 1681 3084 1819 3084 
Q 2600 3084 3056 2656 
Q 3513 2228 3513 1497 
Q 3513 744 3044 326 
Q 2575 -91 1722 -91 
Q 1428 -91 1123 -41 
Q 819 9 494 109 
L 494 744 
Q 775 591 1075 516 
Q 1375 441 1709 441 
Q 2250 441 2565 725 
Q 2881 1009 2881 1497 
Q 2881 1984 2565 2268 
Q 2250 2553 1709 2553 
Q 1456 2553 1204 2497 
Q 953 2441 691 2322 
L 691 4666 
z
" transform="scale(0.015625)"/>
       <path id="DejaVuSans-b1" d="M 2944 4013 
L 2944 2803 
L 4684 2803 
L 4684 2272 
L 2944 2272 
L 2944 1063 
L 2419 1063 
L 2419 2272 
L 678 2272 
L 678 2803 
L 2419 2803 
L 2419 4013 
L 2944 4013 
z
M 678 531 
L 4684 531 
L 4684 0 
L 678 0 
L 678 531 
z
" transform="scale(0.015625)"/>
       <path id="DejaVuSans-33" d="M 2597 2516 
Q 3050 2419 3304 2112 
Q 3559 1806 3559 1356 
Q 3559 666 3084 287 
Q 2609 -91 1734 -91 
Q 1441 -91 1130 -33 
Q 819 25 488 141 
L 488 750 
Q 750 597 1062 519 
Q 1375 441 1716 441 
Q 2309 441 2620 675 
Q 2931 909 2931 1356 
Q 2931 1769 2642 2001 
Q 2353 2234 1838 2234 
L 1294 2234 
L 1294 2753 
L 1863 2753 
Q 2328 2753 2575 2939 
Q 2822 3125 2822 3475 
Q 2822 3834 2567 4026 
Q 2313 4219 1838 4219 
Q 1578 4219 1281 4162 
Q 984 4106 628 3988 
L 628 4550 
Q 988 4650 1302 4700 
Q 1616 4750 1894 4750 
Q 2613 4750 3031 4423 
Q 3450 4097 3450 3541 
Q 3450 3153 3228 2886 
Q 3006 2619 2597 2516 
z
" transform="scale(0.015625)"/>
      </defs>
      <use xlink:href="#DejaVuSans-302" transform="translate(69.03125 30.015625)"/>
      <use xlink:href="#DejaVuSans-Oblique-48" transform="translate(0 0.609375)"/>
      <use xlink:href="#DejaVuSans-30" transform="translate(76.152344 -15.796875) scale(0.7)"/>
      <use xlink:href="#DejaVuSans-2212" transform="translate(142.905273 0.609375)"/>
      <use xlink:href="#DejaVuSans-Oblique-48" transform="translate(246.176758 0.609375)"/>
      <use xlink:href="#DejaVuSans-30" transform="translate(321.37207 -15.796875) scale(0.7)"/>
      <use xlink:href="#DejaVuSans-3d" transform="translate(388.125 0.609375)"/>
      <use xlink:href="#DejaVuSans-30" transform="translate(491.396484 0.609375)"/>
      <use xlink:href="#DejaVuSans-2e" transform="translate(555.019531 0.609375)"/>
      <use xlink:href="#DejaVuSans-30" transform="translate(586.806641 0.609375)"/>
      <use xlink:href="#DejaVuSans-35" transform="translate(650.429688 0.609375)"/>
      <use xlink:href="#DejaVuSans-b1" transform="translate(733.535156 0.609375)"/>
      <use xlink:href="#DejaVuSans-30" transform="translate(836.806641 0.609375)"/>
      <use xlink:href="#DejaVuSans-2e" transform="translate(900.429688 0.609375)"/>
      <use xlink:href="#DejaVuSans-30" transform="translate(932.216797 0.609375)"/>
      <use xlink:href="#DejaVuSans-33" transform="translate(995.839844 0.609375)"/>
     </g>
    </g>
   </g>
  </g>
  <g id="axes_2">
   <g id="patch_9">
    <path d="M 162.696875 465.99375 
L 832.296875 465.99375 
L 832.296875 281.19375 
L 162.696875 281.19375 
z
" style="fill: #ffffff"/>
   </g>
   <g id="matplotlib.axis_3">
    <g id="xtick_6">
     <g id="line2d_10">
      <g>
       <use xlink:href="#m7040c3ce8a" x="162.696875" y="465.99375" style="stroke: #000000; stroke-width: 3"/>
      </g>
     </g>
    </g>
    <g id="xtick_7">
     <g id="line2d_11">
      <g>
       <use xlink:href="#m7040c3ce8a" x="330.096875" y="465.99375" style="stroke: #000000; stroke-width: 3"/>
      </g>
     </g>
    </g>
    <g id="xtick_8">
     <g id="line2d_12">
      <g>
       <use xlink:href="#m7040c3ce8a" x="497.496875" y="465.99375" style="stroke: #000000; stroke-width: 3"/>
      </g>
     </g>
    </g>
    <g id="xtick_9">
     <g id="line2d_13">
      <g>
       <use xlink:href="#m7040c3ce8a" x="664.896875" y="465.99375" style="stroke: #000000; stroke-width: 3"/>
      </g>
     </g>
    </g>
    <g id="xtick_10">
     <g id="line2d_14">
      <g>
       <use xlink:href="#m7040c3ce8a" x="832.296875" y="465.99375" style="stroke: #000000; stroke-width: 3"/>
      </g>
     </g>
    </g>
   </g>
   <g id="matplotlib.axis_4">
    <g id="ytick_4">
     <g id="line2d_15">
      <g>
       <use xlink:href="#m9ba7aa5664" x="162.696875" y="465.99375" style="stroke: #000000; stroke-width: 3"/>
      </g>
     </g>
     <g id="text_8">
      <!-- 0.00 -->
      <g transform="translate(86.9 477.391406) scale(0.3 -0.3)">
       <use xlink:href="#DejaVuSans-30"/>
       <use xlink:href="#DejaVuSans-2e" x="63.623047"/>
       <use xlink:href="#DejaVuSans-30" x="95.410156"/>
       <use xlink:href="#DejaVuSans-30" x="159.033203"/>
      </g>
     </g>
    </g>
    <g id="ytick_5">
     <g id="line2d_16">
      <g>
       <use xlink:href="#m9ba7aa5664" x="162.696875" y="396.69375" style="stroke: #000000; stroke-width: 3"/>
      </g>
     </g>
     <g id="text_9">
      <!-- 0.15 -->
      <g transform="translate(86.9 408.091406) scale(0.3 -0.3)">
       <use xlink:href="#DejaVuSans-30"/>
       <use xlink:href="#DejaVuSans-2e" x="63.623047"/>
       <use xlink:href="#DejaVuSans-31" x="95.410156"/>
       <use xlink:href="#DejaVuSans-35" x="159.033203"/>
      </g>
     </g>
    </g>
    <g id="ytick_6">
     <g id="line2d_17">
      <g>
       <use xlink:href="#m9ba7aa5664" x="162.696875" y="327.39375" style="stroke: #000000; stroke-width: 3"/>
      </g>
     </g>
     <g id="text_10">
      <!-- 0.30 -->
      <g transform="translate(86.9 338.791406) scale(0.3 -0.3)">
       <use xlink:href="#DejaVuSans-30"/>
       <use xlink:href="#DejaVuSans-2e" x="63.623047"/>
       <use xlink:href="#DejaVuSans-33" x="95.410156"/>
       <use xlink:href="#DejaVuSans-30" x="159.033203"/>
      </g>
     </g>
    </g>
    <g id="text_11">
     <!-- $P(\hat{H}_{0}|\text{sample})$ -->
     <g transform="translate(74.5 489.09375) rotate(-90) scale(0.35 -0.35)">
      <defs>
       <path id="DejaVuSans-Oblique-50" d="M 1081 4666 
L 2541 4666 
Q 3178 4666 3512 4369 
Q 3847 4072 3847 3500 
Q 3847 2731 3353 2303 
Q 2859 1875 1966 1875 
L 1172 1875 
L 806 0 
L 172 0 
L 1081 4666 
z
M 1613 4147 
L 1275 2394 
L 2069 2394 
Q 2606 2394 2893 2669 
Q 3181 2944 3181 3456 
Q 3181 3784 2986 3965 
Q 2791 4147 2438 4147 
L 1613 4147 
z
" transform="scale(0.015625)"/>
       <path id="DejaVuSans-28" d="M 1984 4856 
Q 1566 4138 1362 3434 
Q 1159 2731 1159 2009 
Q 1159 1288 1364 580 
Q 1569 -128 1984 -844 
L 1484 -844 
Q 1016 -109 783 600 
Q 550 1309 550 2009 
Q 550 2706 781 3412 
Q 1013 4119 1484 4856 
L 1984 4856 
z
" transform="scale(0.015625)"/>
       <path id="DejaVuSans-7c" d="M 1344 4891 
L 1344 -1509 
L 813 -1509 
L 813 4891 
L 1344 4891 
z
" transform="scale(0.015625)"/>
       <path id="DejaVuSans-61" d="M 2194 1759 
Q 1497 1759 1228 1600 
Q 959 1441 959 1056 
Q 959 750 1161 570 
Q 1363 391 1709 391 
Q 2188 391 2477 730 
Q 2766 1069 2766 1631 
L 2766 1759 
L 2194 1759 
z
M 3341 1997 
L 3341 0 
L 2766 0 
L 2766 531 
Q 2569 213 2275 61 
Q 1981 -91 1556 -91 
Q 1019 -91 701 211 
Q 384 513 384 1019 
Q 384 1609 779 1909 
Q 1175 2209 1959 2209 
L 2766 2209 
L 2766 2266 
Q 2766 2663 2505 2880 
Q 2244 3097 1772 3097 
Q 1472 3097 1187 3025 
Q 903 2953 641 2809 
L 641 3341 
Q 956 3463 1253 3523 
Q 1550 3584 1831 3584 
Q 2591 3584 2966 3190 
Q 3341 2797 3341 1997 
z
" transform="scale(0.015625)"/>
       <path id="DejaVuSans-29" d="M 513 4856 
L 1013 4856 
Q 1481 4119 1714 3412 
Q 1947 2706 1947 2009 
Q 1947 1309 1714 600 
Q 1481 -109 1013 -844 
L 513 -844 
Q 928 -128 1133 580 
Q 1338 1288 1338 2009 
Q 1338 2731 1133 3434 
Q 928 4138 513 4856 
z
" transform="scale(0.015625)"/>
      </defs>
      <use xlink:href="#DejaVuSans-Oblique-50" transform="translate(0 0.609375)"/>
      <use xlink:href="#DejaVuSans-28" transform="translate(60.302734 0.609375)"/>
      <use xlink:href="#DejaVuSans-302" transform="translate(171.693359 30.015625)"/>
      <use xlink:href="#DejaVuSans-Oblique-48" transform="translate(99.316406 0.609375)"/>
      <use xlink:href="#DejaVuSans-30" transform="translate(175.46875 -15.796875) scale(0.7)"/>
      <use xlink:href="#DejaVuSans-7c" transform="translate(222.739258 0.609375)"/>
      <use xlink:href="#DejaVuSans-73" transform="translate(256.430664 0.609375)"/>
      <use xlink:href="#DejaVuSans-61" transform="translate(308.530273 0.609375)"/>
      <use xlink:href="#DejaVuSans-6d" transform="translate(369.80957 0.609375)"/>
      <use xlink:href="#DejaVuSans-70" transform="translate(467.22168 0.609375)"/>
      <use xlink:href="#DejaVuSans-6c" transform="translate(530.698242 0.609375)"/>
      <use xlink:href="#DejaVuSans-65" transform="translate(558.481445 0.609375)"/>
      <use xlink:href="#DejaVuSans-29" transform="translate(620.004883 0.609375)"/>
     </g>
    </g>
   </g>
   <g id="patch_10">
    <path d="M 435.407106 465.99375 
L 435.407106 462.29214 
L 445.85375 462.29214 
L 445.85375 460.811496 
L 456.300393 460.811496 
L 456.300393 446.005056 
L 466.747037 446.005056 
L 466.747037 429.347811 
L 477.193681 429.347811 
L 477.193681 365.309959 
L 487.640324 365.309959 
L 487.640324 334.216435 
L 498.086968 334.216435 
L 498.086968 325.332571 
L 508.533611 325.332571 
L 508.533611 331.255147 
L 518.980255 331.255147 
L 518.980255 382.337365 
L 529.426898 382.337365 
L 529.426898 418.242981 
L 539.873542 418.242981 
L 539.873542 441.192963 
L 550.320185 441.192963 
L 550.320185 457.480047 
L 560.766829 457.480047 
L 560.766829 464.513106 
L 571.213473 464.513106 
L 571.213473 465.99375 
L 581.660116 465.99375 
L 581.660116 465.623589 
L 592.10676 465.623589 
L 592.10676 465.99375 
L 602.553403 465.99375 
L 602.553403 465.99375 
L 613.000047 465.99375 
L 613.000047 465.99375 
L 623.44669 465.99375 
L 623.44669 465.99375 
L 633.893334 465.99375 
L 633.893334 465.99375 
L 644.339978 465.99375 
L 644.339978 465.99375 
L 654.786621 465.99375 
L 654.786621 465.623589 
L 665.233265 465.623589 
L 665.233265 465.99375 
" clip-path="url(#pa2220ef7bf)" style="fill: url(#h82f292538c); stroke: #e16462; stroke-width: 3; stroke-linejoin: miter"/>
   </g>
   <g id="LineCollection_3">
    <path d="M 502.776163 465.99375 
L 502.776163 239.61375 
" clip-path="url(#pa2220ef7bf)" style="fill: none; stroke-dasharray: 11.1,4.8; stroke-dashoffset: 0; stroke: #ff0000; stroke-width: 3"/>
   </g>
   <g id="LineCollection_4">
    <path d="M 497.496875 465.99375 
L 497.496875 239.61375 
" clip-path="url(#pa2220ef7bf)" style="fill: none; stroke-dasharray: 11.1,4.8; stroke-dashoffset: 0; stroke: #000000; stroke-width: 3"/>
   </g>
   <g id="patch_11">
    <path d="M 162.696875 465.99375 
L 162.696875 281.19375 
" style="fill: none; stroke: #000000; stroke-width: 3; stroke-linejoin: miter; stroke-linecap: square"/>
   </g>
   <g id="patch_12">
    <path d="M 832.296875 465.99375 
L 832.296875 281.19375 
" style="fill: none; stroke: #000000; stroke-width: 3; stroke-linejoin: miter; stroke-linecap: square"/>
   </g>
   <g id="patch_13">
    <path d="M 162.696875 465.99375 
L 832.296875 465.99375 
" style="fill: none; stroke: #000000; stroke-width: 3; stroke-linejoin: miter; stroke-linecap: square"/>
   </g>
   <g id="patch_14">
    <path d="M 162.696875 281.19375 
L 832.296875 281.19375 
" style="fill: none; stroke: #000000; stroke-width: 3; stroke-linejoin: miter; stroke-linecap: square"/>
   </g>
   <g id="text_12">
    <!-- $F_{\mathrm{min}}/F_* = 0.1$ -->
    <g transform="translate(204.546875 352.850893) scale(0.35 -0.35)">
     <use xlink:href="#DejaVuSans-Oblique-46" transform="translate(0 0.78125)"/>
     <use xlink:href="#DejaVuSans-6d" transform="translate(57.519531 -15.625) scale(0.7)"/>
     <use xlink:href="#DejaVuSans-69" transform="translate(125.708008 -15.625) scale(0.7)"/>
     <use xlink:href="#DejaVuSans-6e" transform="translate(145.15625 -15.625) scale(0.7)"/>
     <use xlink:href="#DejaVuSans-2f" transform="translate(192.255859 0.78125)"/>
     <use xlink:href="#DejaVuSans-Oblique-46" transform="translate(225.947266 0.78125)"/>
     <use xlink:href="#DejaVuSans-2a" transform="translate(297.104492 -15.625) scale(0.7)"/>
     <use xlink:href="#DejaVuSans-3d" transform="translate(367.958984 0.78125)"/>
     <use xlink:href="#DejaVuSans-30" transform="translate(471.230469 0.78125)"/>
     <use xlink:href="#DejaVuSans-2e" transform="translate(534.853516 0.78125)"/>
     <use xlink:href="#DejaVuSans-31" transform="translate(566.640625 0.78125)"/>
    </g>
   </g>
   <g id="text_13">
    <!-- $f_{\mathrm{det}} = 9\%$ -->
    <g transform="translate(204.546875 401.879464) scale(0.35 -0.35)">
     <use xlink:href="#DejaVuSans-Oblique-66" transform="translate(0 0.015625)"/>
     <use xlink:href="#DejaVuSans-64" transform="translate(35.205078 -16.390625) scale(0.7)"/>
     <use xlink:href="#DejaVuSans-65" transform="translate(79.638672 -16.390625) scale(0.7)"/>
     <use xlink:href="#DejaVuSans-74" transform="translate(122.705078 -16.390625) scale(0.7)"/>
     <use xlink:href="#DejaVuSans-3d" transform="translate(172.368164 0.015625)"/>
     <use xlink:href="#DejaVuSans-39" transform="translate(275.639648 0.015625)"/>
     <use xlink:href="#DejaVuSans-25" transform="translate(339.262695 0.015625)"/>
    </g>
   </g>
   <g id="legend_2">
    <g id="patch_15">
     <path d="M 542.296875 332.79375 
L 818.296875 332.79375 
Q 822.296875 332.79375 822.296875 328.79375 
L 822.296875 295.19375 
Q 822.296875 291.19375 818.296875 291.19375 
L 542.296875 291.19375 
Q 538.296875 291.19375 538.296875 295.19375 
L 538.296875 328.79375 
Q 538.296875 332.79375 542.296875 332.79375 
z
" style="fill: #ffffff; opacity: 0.8; stroke: #cccccc; stroke-linejoin: miter"/>
    </g>
    <g id="line2d_18">
     <path d="M 546.296875 313.634375 
L 586.296875 313.634375 
" style="fill: none; stroke-dasharray: 11.1,4.8; stroke-dashoffset: 0; stroke: #ff0000; stroke-width: 3"/>
    </g>
    <g id="text_14">
     <!-- $\hat H_0-H_0=0.32\pm0.03$ -->
     <g transform="translate(602.296875 320.634375) scale(0.2 -0.2)">
      <use xlink:href="#DejaVuSans-302" transform="translate(69.03125 30.015625)"/>
      <use xlink:href="#DejaVuSans-Oblique-48" transform="translate(0 0.609375)"/>
      <use xlink:href="#DejaVuSans-30" transform="translate(76.152344 -15.796875) scale(0.7)"/>
      <use xlink:href="#DejaVuSans-2212" transform="translate(142.905273 0.609375)"/>
      <use xlink:href="#DejaVuSans-Oblique-48" transform="translate(246.176758 0.609375)"/>
      <use xlink:href="#DejaVuSans-30" transform="translate(321.37207 -15.796875) scale(0.7)"/>
      <use xlink:href="#DejaVuSans-3d" transform="translate(388.125 0.609375)"/>
      <use xlink:href="#DejaVuSans-30" transform="translate(491.396484 0.609375)"/>
      <use xlink:href="#DejaVuSans-2e" transform="translate(555.019531 0.609375)"/>
      <use xlink:href="#DejaVuSans-33" transform="translate(586.806641 0.609375)"/>
      <use xlink:href="#DejaVuSans-32" transform="translate(650.429688 0.609375)"/>
      <use xlink:href="#DejaVuSans-b1" transform="translate(733.535156 0.609375)"/>
      <use xlink:href="#DejaVuSans-30" transform="translate(836.806641 0.609375)"/>
      <use xlink:href="#DejaVuSans-2e" transform="translate(900.429688 0.609375)"/>
      <use xlink:href="#DejaVuSans-30" transform="translate(932.216797 0.609375)"/>
      <use xlink:href="#DejaVuSans-33" transform="translate(995.839844 0.609375)"/>
     </g>
    </g>
   </g>
  </g>
  <g id="axes_3">
   <g id="patch_16">
    <path d="M 162.696875 650.79375 
L 832.296875 650.79375 
L 832.296875 465.99375 
L 162.696875 465.99375 
z
" style="fill: #ffffff"/>
   </g>
   <g id="matplotlib.axis_5">
    <g id="xtick_11">
     <g id="line2d_19">
      <g>
       <use xlink:href="#m7040c3ce8a" x="162.696875" y="650.79375" style="stroke: #000000; stroke-width: 3"/>
      </g>
     </g>
     <g id="text_15">
      <!-- 50 -->
      <g transform="translate(143.609375 682.589063) scale(0.3 -0.3)">
       <use xlink:href="#DejaVuSans-35"/>
       <use xlink:href="#DejaVuSans-30" x="63.623047"/>
      </g>
     </g>
    </g>
    <g id="xtick_12">
     <g id="line2d_20">
      <g>
       <use xlink:href="#m7040c3ce8a" x="330.096875" y="650.79375" style="stroke: #000000; stroke-width: 3"/>
      </g>
     </g>
     <g id="text_16">
      <!-- 60 -->
      <g transform="translate(311.009375 682.589063) scale(0.3 -0.3)">
       <defs>
        <path id="DejaVuSans-36" d="M 2113 2584 
Q 1688 2584 1439 2293 
Q 1191 2003 1191 1497 
Q 1191 994 1439 701 
Q 1688 409 2113 409 
Q 2538 409 2786 701 
Q 3034 994 3034 1497 
Q 3034 2003 2786 2293 
Q 2538 2584 2113 2584 
z
M 3366 4563 
L 3366 3988 
Q 3128 4100 2886 4159 
Q 2644 4219 2406 4219 
Q 1781 4219 1451 3797 
Q 1122 3375 1075 2522 
Q 1259 2794 1537 2939 
Q 1816 3084 2150 3084 
Q 2853 3084 3261 2657 
Q 3669 2231 3669 1497 
Q 3669 778 3244 343 
Q 2819 -91 2113 -91 
Q 1303 -91 875 529 
Q 447 1150 447 2328 
Q 447 3434 972 4092 
Q 1497 4750 2381 4750 
Q 2619 4750 2861 4703 
Q 3103 4656 3366 4563 
z
" transform="scale(0.015625)"/>
       </defs>
       <use xlink:href="#DejaVuSans-36"/>
       <use xlink:href="#DejaVuSans-30" x="63.623047"/>
      </g>
     </g>
    </g>
    <g id="xtick_13">
     <g id="line2d_21">
      <g>
       <use xlink:href="#m7040c3ce8a" x="497.496875" y="650.79375" style="stroke: #000000; stroke-width: 3"/>
      </g>
     </g>
     <g id="text_17">
      <!-- 70 -->
      <g transform="translate(478.409375 682.589063) scale(0.3 -0.3)">
       <defs>
        <path id="DejaVuSans-37" d="M 525 4666 
L 3525 4666 
L 3525 4397 
L 1831 0 
L 1172 0 
L 2766 4134 
L 525 4134 
L 525 4666 
z
" transform="scale(0.015625)"/>
       </defs>
       <use xlink:href="#DejaVuSans-37"/>
       <use xlink:href="#DejaVuSans-30" x="63.623047"/>
      </g>
     </g>
    </g>
    <g id="xtick_14">
     <g id="line2d_22">
      <g>
       <use xlink:href="#m7040c3ce8a" x="664.896875" y="650.79375" style="stroke: #000000; stroke-width: 3"/>
      </g>
     </g>
     <g id="text_18">
      <!-- 80 -->
      <g transform="translate(645.809375 682.589063) scale(0.3 -0.3)">
       <defs>
        <path id="DejaVuSans-38" d="M 2034 2216 
Q 1584 2216 1326 1975 
Q 1069 1734 1069 1313 
Q 1069 891 1326 650 
Q 1584 409 2034 409 
Q 2484 409 2743 651 
Q 3003 894 3003 1313 
Q 3003 1734 2745 1975 
Q 2488 2216 2034 2216 
z
M 1403 2484 
Q 997 2584 770 2862 
Q 544 3141 544 3541 
Q 544 4100 942 4425 
Q 1341 4750 2034 4750 
Q 2731 4750 3128 4425 
Q 3525 4100 3525 3541 
Q 3525 3141 3298 2862 
Q 3072 2584 2669 2484 
Q 3125 2378 3379 2068 
Q 3634 1759 3634 1313 
Q 3634 634 3220 271 
Q 2806 -91 2034 -91 
Q 1263 -91 848 271 
Q 434 634 434 1313 
Q 434 1759 690 2068 
Q 947 2378 1403 2484 
z
M 1172 3481 
Q 1172 3119 1398 2916 
Q 1625 2713 2034 2713 
Q 2441 2713 2670 2916 
Q 2900 3119 2900 3481 
Q 2900 3844 2670 4047 
Q 2441 4250 2034 4250 
Q 1625 4250 1398 4047 
Q 1172 3844 1172 3481 
z
" transform="scale(0.015625)"/>
       </defs>
       <use xlink:href="#DejaVuSans-38"/>
       <use xlink:href="#DejaVuSans-30" x="63.623047"/>
      </g>
     </g>
    </g>
    <g id="xtick_15">
     <g id="line2d_23">
      <g>
       <use xlink:href="#m7040c3ce8a" x="832.296875" y="650.79375" style="stroke: #000000; stroke-width: 3"/>
      </g>
     </g>
     <g id="text_19">
      <!-- 90 -->
      <g transform="translate(813.209375 682.589063) scale(0.3 -0.3)">
       <use xlink:href="#DejaVuSans-39"/>
       <use xlink:href="#DejaVuSans-30" x="63.623047"/>
      </g>
     </g>
    </g>
    <g id="text_20">
     <!-- $\hat H_0$ (km s$^{-1}$ Mpc$^{-1}$) -->
     <g transform="translate(335.971875 742.328125) scale(0.35 -0.35)">
      <defs>
       <path id="DejaVuSans-6b" d="M 581 4863 
L 1159 4863 
L 1159 1991 
L 2875 3500 
L 3609 3500 
L 1753 1863 
L 3688 0 
L 2938 0 
L 1159 1709 
L 1159 0 
L 581 0 
L 581 4863 
z
" transform="scale(0.015625)"/>
       <path id="DejaVuSans-4d" d="M 628 4666 
L 1569 4666 
L 2759 1491 
L 3956 4666 
L 4897 4666 
L 4897 0 
L 4281 0 
L 4281 4097 
L 3078 897 
L 2444 897 
L 1241 4097 
L 1241 0 
L 628 0 
L 628 4666 
z
" transform="scale(0.015625)"/>
      </defs>
      <use xlink:href="#DejaVuSans-302" transform="translate(69.03125 30.015625)"/>
      <use xlink:href="#DejaVuSans-Oblique-48" transform="translate(0 0.609375)"/>
      <use xlink:href="#DejaVuSans-30" transform="translate(76.152344 -15.796875) scale(0.7)"/>
      <use xlink:href="#DejaVuSans-20" transform="translate(123.422852 0.609375)"/>
      <use xlink:href="#DejaVuSans-28" transform="translate(155.209961 0.609375)"/>
      <use xlink:href="#DejaVuSans-6b" transform="translate(194.223633 0.609375)"/>
      <use xlink:href="#DejaVuSans-6d" transform="translate(252.133789 0.609375)"/>
      <use xlink:href="#DejaVuSans-20" transform="translate(349.545898 0.609375)"/>
      <use xlink:href="#DejaVuSans-73" transform="translate(381.333008 0.609375)"/>
      <use xlink:href="#DejaVuSans-2212" transform="translate(434.389648 38.890625) scale(0.7)"/>
      <use xlink:href="#DejaVuSans-31" transform="translate(493.041992 38.890625) scale(0.7)"/>
      <use xlink:href="#DejaVuSans-20" transform="translate(540.3125 0.609375)"/>
      <use xlink:href="#DejaVuSans-4d" transform="translate(572.099609 0.609375)"/>
      <use xlink:href="#DejaVuSans-70" transform="translate(658.378906 0.609375)"/>
      <use xlink:href="#DejaVuSans-63" transform="translate(721.855469 0.609375)"/>
      <use xlink:href="#DejaVuSans-2212" transform="translate(777.792969 38.890625) scale(0.7)"/>
      <use xlink:href="#DejaVuSans-31" transform="translate(836.445312 38.890625) scale(0.7)"/>
      <use xlink:href="#DejaVuSans-29" transform="translate(883.71582 0.609375)"/>
     </g>
    </g>
   </g>
   <g id="matplotlib.axis_6">
    <g id="ytick_7">
     <g id="line2d_24">
      <g>
       <use xlink:href="#m9ba7aa5664" x="162.696875" y="650.79375" style="stroke: #000000; stroke-width: 3"/>
      </g>
     </g>
     <g id="text_21">
      <!-- 0.00 -->
      <g transform="translate(86.9 662.191406) scale(0.3 -0.3)">
       <use xlink:href="#DejaVuSans-30"/>
       <use xlink:href="#DejaVuSans-2e" x="63.623047"/>
       <use xlink:href="#DejaVuSans-30" x="95.410156"/>
       <use xlink:href="#DejaVuSans-30" x="159.033203"/>
      </g>
     </g>
    </g>
    <g id="ytick_8">
     <g id="line2d_25">
      <g>
       <use xlink:href="#m9ba7aa5664" x="162.696875" y="576.87375" style="stroke: #000000; stroke-width: 3"/>
      </g>
     </g>
     <g id="text_22">
      <!-- 0.08 -->
      <g transform="translate(86.9 588.271406) scale(0.3 -0.3)">
       <use xlink:href="#DejaVuSans-30"/>
       <use xlink:href="#DejaVuSans-2e" x="63.623047"/>
       <use xlink:href="#DejaVuSans-30" x="95.410156"/>
       <use xlink:href="#DejaVuSans-38" x="159.033203"/>
      </g>
     </g>
    </g>
    <g id="ytick_9">
     <g id="line2d_26">
      <g>
       <use xlink:href="#m9ba7aa5664" x="162.696875" y="502.95375" style="stroke: #000000; stroke-width: 3"/>
      </g>
     </g>
     <g id="text_23">
      <!-- 0.16 -->
      <g transform="translate(86.9 514.351406) scale(0.3 -0.3)">
       <use xlink:href="#DejaVuSans-30"/>
       <use xlink:href="#DejaVuSans-2e" x="63.623047"/>
       <use xlink:href="#DejaVuSans-31" x="95.410156"/>
       <use xlink:href="#DejaVuSans-36" x="159.033203"/>
      </g>
     </g>
    </g>
   </g>
   <g id="patch_17">
    <path d="M 221.207947 650.79375 
L 221.207947 650.075115 
L 243.44329 650.075115 
L 243.44329 650.075115 
L 265.678634 650.075115 
L 265.678634 649.715798 
L 287.913977 649.715798 
L 287.913977 650.434433 
L 310.149321 650.434433 
L 310.149321 647.919211 
L 332.384665 647.919211 
L 332.384665 647.919211 
L 354.620008 647.919211 
L 354.620008 645.044672 
L 376.855352 645.044672 
L 376.855352 637.499007 
L 399.090695 637.499007 
L 399.090695 624.204264 
L 421.326039 624.204264 
L 421.326039 594.021604 
L 443.561382 594.021604 
L 443.561382 556.652596 
L 465.796726 556.652596 
L 465.796726 512.815875 
L 488.03207 512.815875 
L 488.03207 509.222701 
L 510.267413 509.222701 
L 510.267413 536.530822 
L 532.502757 536.530822 
L 532.502757 592.943651 
L 554.7381 592.943651 
L 554.7381 625.641533 
L 576.973444 625.641533 
L 576.973444 641.810815 
L 599.208787 641.810815 
L 599.208787 648.637846 
L 621.444131 648.637846 
L 621.444131 648.997163 
L 643.679475 648.997163 
L 643.679475 650.434433 
L 665.914818 650.434433 
L 665.914818 650.79375 
L 688.150162 650.79375 
L 688.150162 650.434433 
L 710.385505 650.434433 
L 710.385505 650.79375 
" clip-path="url(#pdb2575b082)" style="fill: url(#h82f292538c); stroke: #e16462; stroke-width: 3; stroke-linejoin: miter"/>
   </g>
   <g id="LineCollection_5">
    <path d="M 486.952352 650.79375 
L 486.952352 198.03375 
" clip-path="url(#pdb2575b082)" style="fill: none; stroke-dasharray: 11.1,4.8; stroke-dashoffset: 0; stroke: #ff0000; stroke-width: 3"/>
   </g>
   <g id="LineCollection_6">
    <path d="M 497.496875 650.79375 
L 497.496875 198.03375 
" clip-path="url(#pdb2575b082)" style="fill: none; stroke-dasharray: 11.1,4.8; stroke-dashoffset: 0; stroke: #000000; stroke-width: 3"/>
   </g>
   <g id="patch_18">
    <path d="M 162.696875 650.79375 
L 162.696875 465.99375 
" style="fill: none; stroke: #000000; stroke-width: 3; stroke-linejoin: miter; stroke-linecap: square"/>
   </g>
   <g id="patch_19">
    <path d="M 832.296875 650.79375 
L 832.296875 465.99375 
" style="fill: none; stroke: #000000; stroke-width: 3; stroke-linejoin: miter; stroke-linecap: square"/>
   </g>
   <g id="patch_20">
    <path d="M 162.696875 650.79375 
L 832.296875 650.79375 
" style="fill: none; stroke: #000000; stroke-width: 3; stroke-linejoin: miter; stroke-linecap: square"/>
   </g>
   <g id="patch_21">
    <path d="M 162.696875 465.99375 
L 832.296875 465.99375 
" style="fill: none; stroke: #000000; stroke-width: 3; stroke-linejoin: miter; stroke-linecap: square"/>
   </g>
   <g id="text_24">
    <!-- $F_{\mathrm{min}}/F_* = 0.5$ -->
    <g transform="translate(204.546875 537.650893) scale(0.35 -0.35)">
     <use xlink:href="#DejaVuSans-Oblique-46" transform="translate(0 0.78125)"/>
     <use xlink:href="#DejaVuSans-6d" transform="translate(57.519531 -15.625) scale(0.7)"/>
     <use xlink:href="#DejaVuSans-69" transform="translate(125.708008 -15.625) scale(0.7)"/>
     <use xlink:href="#DejaVuSans-6e" transform="translate(145.15625 -15.625) scale(0.7)"/>
     <use xlink:href="#DejaVuSans-2f" transform="translate(192.255859 0.78125)"/>
     <use xlink:href="#DejaVuSans-Oblique-46" transform="translate(225.947266 0.78125)"/>
     <use xlink:href="#DejaVuSans-2a" transform="translate(297.104492 -15.625) scale(0.7)"/>
     <use xlink:href="#DejaVuSans-3d" transform="translate(367.958984 0.78125)"/>
     <use xlink:href="#DejaVuSans-30" transform="translate(471.230469 0.78125)"/>
     <use xlink:href="#DejaVuSans-2e" transform="translate(534.853516 0.78125)"/>
     <use xlink:href="#DejaVuSans-35" transform="translate(566.640625 0.78125)"/>
    </g>
   </g>
   <g id="text_25">
    <!-- $f_{\mathrm{det}} = 1\%$ -->
    <g transform="translate(204.546875 586.679464) scale(0.35 -0.35)">
     <use xlink:href="#DejaVuSans-Oblique-66" transform="translate(0 0.015625)"/>
     <use xlink:href="#DejaVuSans-64" transform="translate(35.205078 -16.390625) scale(0.7)"/>
     <use xlink:href="#DejaVuSans-65" transform="translate(79.638672 -16.390625) scale(0.7)"/>
     <use xlink:href="#DejaVuSans-74" transform="translate(122.705078 -16.390625) scale(0.7)"/>
     <use xlink:href="#DejaVuSans-3d" transform="translate(172.368164 0.015625)"/>
     <use xlink:href="#DejaVuSans-31" transform="translate(275.639648 0.015625)"/>
     <use xlink:href="#DejaVuSans-25" transform="translate(339.262695 0.015625)"/>
    </g>
   </g>
   <g id="legend_3">
    <g id="patch_22">
     <path d="M 517.696875 517.59375 
L 818.296875 517.59375 
Q 822.296875 517.59375 822.296875 513.59375 
L 822.296875 479.99375 
Q 822.296875 475.99375 818.296875 475.99375 
L 517.696875 475.99375 
Q 513.696875 475.99375 513.696875 479.99375 
L 513.696875 513.59375 
Q 513.696875 517.59375 517.696875 517.59375 
z
" style="fill: #ffffff; opacity: 0.8; stroke: #cccccc; stroke-linejoin: miter"/>
    </g>
    <g id="line2d_27">
     <path d="M 521.696875 498.434375 
L 561.696875 498.434375 
" style="fill: none; stroke-dasharray: 11.1,4.8; stroke-dashoffset: 0; stroke: #ff0000; stroke-width: 3"/>
    </g>
    <g id="text_26">
     <!-- $\hat H_0-H_0=-0.63\pm0.03$ -->
     <g transform="translate(577.696875 505.434375) scale(0.2 -0.2)">
      <use xlink:href="#DejaVuSans-302" transform="translate(69.03125 30.015625)"/>
      <use xlink:href="#DejaVuSans-Oblique-48" transform="translate(0 0.609375)"/>
      <use xlink:href="#DejaVuSans-30" transform="translate(76.152344 -15.796875) scale(0.7)"/>
      <use xlink:href="#DejaVuSans-2212" transform="translate(142.905273 0.609375)"/>
      <use xlink:href="#DejaVuSans-Oblique-48" transform="translate(246.176758 0.609375)"/>
      <use xlink:href="#DejaVuSans-30" transform="translate(321.37207 -15.796875) scale(0.7)"/>
      <use xlink:href="#DejaVuSans-3d" transform="translate(388.125 0.609375)"/>
      <use xlink:href="#DejaVuSans-2212" transform="translate(510.878906 0.609375)"/>
      <use xlink:href="#DejaVuSans-30" transform="translate(614.150391 0.609375)"/>
      <use xlink:href="#DejaVuSans-2e" transform="translate(677.773438 0.609375)"/>
      <use xlink:href="#DejaVuSans-36" transform="translate(709.560547 0.609375)"/>
      <use xlink:href="#DejaVuSans-33" transform="translate(773.183594 0.609375)"/>
      <use xlink:href="#DejaVuSans-b1" transform="translate(856.289062 0.609375)"/>
      <use xlink:href="#DejaVuSans-30" transform="translate(959.560547 0.609375)"/>
      <use xlink:href="#DejaVuSans-2e" transform="translate(1023.183594 0.609375)"/>
      <use xlink:href="#DejaVuSans-30" transform="translate(1054.970703 0.609375)"/>
      <use xlink:href="#DejaVuSans-33" transform="translate(1118.59375 0.609375)"/>
     </g>
    </g>
   </g>
  </g>
 </g>
 <defs>
  <clipPath id="pc0b9a5a8fa">
   <rect x="162.696875" y="96.39375" width="669.6" height="184.8"/>
  </clipPath>
  <clipPath id="pa2220ef7bf">
   <rect x="162.696875" y="281.19375" width="669.6" height="184.8"/>
  </clipPath>
  <clipPath id="pdb2575b082">
   <rect x="162.696875" y="465.99375" width="669.6" height="184.8"/>
  </clipPath>
 </defs>
 <defs>
  <pattern id="h82f292538c" patternUnits="userSpaceOnUse" x="0" y="0" width="72" height="72">
   <rect x="0" y="0" width="73" height="73" fill="none"/>
   <path d="M -36 36 
L 36 -36 
M -30 42 
L 42 -30 
M -24 48 
L 48 -24 
M -18 54 
L 54 -18 
M -12 60 
L 60 -12 
M -6 66 
L 66 -6 
M 0 72 
L 72 0 
M 6 78 
L 78 6 
M 12 84 
L 84 12 
M 18 90 
L 90 18 
M 24 96 
L 96 24 
M 30 102 
L 102 30 
M 36 108 
L 108 36 
" style="fill: #e16462; stroke: #e16462; stroke-width: 1.0; stroke-linecap: butt; stroke-linejoin: miter"/>
  </pattern>
 </defs>
</svg>
